SplineFontDB: 3.0
FontName: PropCourierSans-Bold
FullName: PropCourierSans
FamilyName: PropCourierSans
Weight: Bold
Copyright: PropCourier was designed by Manufactura Independente (Ana Carvalho & Ricardo Lafuente), in October 2010. It is a friendly fork of OSP's NotCourier.\nNotCourier was designed by OSP (Ludivine Loiseau), in July 2008. It is based on Nimbus Mono, copyright (URW)++,Copyright 1999 by (URW)++ Design & Development; Cyrillic glyphs added by Valek Filippov (C) 2001-2005
UComments: "NotCourierSans-Bold contains 1 ornamental glyph encoded in the private use characters:+AAoA-- in U E000, the OSP frog mascot is accessible through the Ornament Open Type feature under the OSP_frog ligature (source glyph name : O S P - to access it from keyboard +ACIA-OSP+ACIA)+AAoA" 

StartChar: exclam
Encoding: 33 33 1
Width: 301
Flags: HMW
HStem: -15 20
LayerCount: 2
Fore
SplineSet
229 525 m 2
 200 228 l 2
 197 197 179 179 151 179 c 0
 123 179 104 198 101 228 c 2
 72 525 l 2
 71 537 70 551 70 558 c 0
 70 604 104 638 151 638 c 0
 197 638 231 604 231 558 c 0
 231 552 230 538 229 525 c 2
159 -15 m 2
 142 -15 l 2
 105 -15 75 15 75 51 c 0
 75 87 105 117 142 117 c 2
 159 117 l 2
 196 117 225 88 225 51 c 0
 225 14 196 -15 159 -15 c 2
EndSplineSet
EndChar

StartChar: quotedbl
Encoding: 34 34 2
Width: 600
Flags: HMW
HStem: 582 20<136 264 264 264 336 464 464 464>
LayerCount: 2
Fore
SplineSet
136 602 m 1
 264 602 l 1
 233 348 l 2
 229 322 221 312 201 312 c 0
 182 312 173 322 170 347 c 2
 136 602 l 1
336 602 m 1
 464 602 l 1
 433 348 l 2
 429 322 421 312 401 312 c 0
 382 312 373 322 370 347 c 2
 336 602 l 1
EndSplineSet
Validated: 1
EndChar

StartChar: numbersign
Encoding: 35 35 3
Width: 600
Flags: HMW
HStem: 139 99<115.5 161 128 154 261 326 128 254 432 451 451 452> 344 100<135.5 175 149 168 149 269 276 340 447 472>
LayerCount: 2
Fore
SplineSet
447 444 m 1
 472 444 l 2
 499 444 507 442 517 435 c 0
 530 425 538 410 538 394 c 0
 538 377 529 360 514 351 c 0
 505 346 496 344 472 344 c 2
 440 344 l 1
 432 238 l 1
 451 238 l 2
 478 238 488 236 497 229 c 0
 510 219 518 204 518 188 c 0
 518 171 509 155 494 146 c 0
 485 141 475 139 452 139 c 2
 425 139 l 1
 414 -29 l 2
 413 -44 406 -67 401 -73 c 0
 391 -85 376 -92 362 -92 c 0
 336.057 -92 312.883 -68.9187 312.883 -44.0468 c 0
 312.883 -43.0337 312.922 -42.0176 313 -41 c 2
 315 -22 l 1
 326 139 l 1
 254 139 l 1
 242 -29 l 2
 242 -70 225 -92 192 -92 c 0
 163 -92 142 -70 142 -40 c 0
 142 -36 142 -29 143 -22 c 2
 154 139 l 1
 128 139 l 2
 103 139 93 141 83 148 c 0
 70 158 62 173 62 189 c 0
 62 205 71 222 86 231 c 0
 95 237 102 238 128 238 c 2
 161 238 l 1
 168 344 l 1
 149 344 l 2
 122 344 113 346 103 353 c 0
 90 363 82 379 82 394 c 0
 82 411 91 428 106 437 c 0
 115 443 122 444 149 444 c 2
 175 444 l 1
 187 612 l 2
 188 638 190 645 198 656 c 0
 208 668 223 675 238 675 c 0
 266.365 675 288.033 652.04 288.033 624.834 c 0
 288.033 624.225 288.022 623.613 288 623 c 2
 287 605 l 1
 276 444 l 1
 347 444 l 1
 359 612 l 2
 360 640 362 646 370 656 c 0
 380 668 395 675 410 675 c 0
 435.054 675 460.108 651.786 460.108 629.517 c 0
 460.108 628.676 460.073 627.837 460 627 c 2
 458 605 l 1
 447 444 l 1
340 344 m 1
 269 344 l 1
 261 238 l 1
 333 238 l 1
 340 344 l 1
EndSplineSet
Validated: 1
EndChar

StartChar: dollar
Encoding: 36 36 4
Width: 600
Flags: HMW
HStem: -123 247<293.5 309.5> 417 20 495 189<294 310.5 294 330.5>
VStem: 107 104<419.5 451.5 419.5 474> 252 99<-56 27 -70 27 592 618> 413 104<178.5 217.5>
LayerCount: 2
Fore
SplineSet
487 438 m 0
 477 424 462 417 446 417 c 0
 419 417 400 432 394 459 c 0
 391 478 351 495 310 495 c 0
 250 495 211 470 211 433 c 0
 211 406 235 387 286 377 c 2
 351 363 l 2
 413 350 449 334 475 308 c 0
 502 281 517 242 517 199 c 0
 517 112 455 47 351 27 c 1
 351 -56 l 2
 351 -84 350 -92 342 -102 c 0
 332 -115 317 -123 302 -123 c 0
 285 -123 268 -114 259 -99 c 0
 253 -90 252 -81 252 -56 c 2
 252 27 l 1
 210 36 206 38.5327 173 52 c 0
 129.282 69.8415 82.9077 125.45 82.9077 174.11 c 0
 82.9077 186.045 85.6973 197.561 92 208 c 0
 99.8897 221.067 117 229 133 229 c 0
 146 229 160 223 169 215 c 0
 176 207 176 207 184 180 c 0
 192 149 245 124 300 124 c 0
 365 124 413 157 413 200 c 0
 413 235 389 254 333 265 c 2
 259 280 l 2
 160 300 107 354 107 435 c 0
 107 513 166 577 252 592 c 1
 252 618 l 2
 252 645 254 653 261 664 c 0
 271 676 286 684 302 684 c 0
 319 684 335 675 344 660 c 0
 350 651 351 644 351 618 c 2
 351 592 l 1
 362 590 403 582 418 574 c 0
 466.049 548.374 495.627 502.776 495.627 467.104 c 0
 495.627 456.188 492.858 446.201 487 438 c 0
EndSplineSet
Validated: 1
EndChar

StartChar: percent
Encoding: 37 37 5
Width: 600
Flags: HMW
HStem: -15 65<348.5 389 348.5 406.5> 199 65<348 389> 338 65<208 248.5 208 267> 552 65<208 249>
VStem: 89 65<457.5 498 457.5 516> 229 65<104.5 145 104.5 163> 303 65<457 498> 443 65<104 145>
LayerCount: 2
Fore
SplineSet
228 617 m 0
 307 617 368 555 368 476 c 0
 368 401 305 338 229 338 c 0
 152 338 89 401 89 478 c 0
 89 554 152 617 228 617 c 0
228 552 m 0
 188 552 154 518 154 478 c 0
 154 437 188 403 228 403 c 0
 269 403 303 437 303 477 c 0
 303 519 270 552 228 552 c 0
491 331 m 2
 129 213 l 2
 122 211 113 209 109 209 c 0
 94 209 80 224 80 241 c 0
 80 257 88 265 110 272 c 2
 472 390 l 2
 484 394 486 394 492 394 c 0
 507 394 521 379 521 362 c 0
 521 346 513 337 491 331 c 2
368 264 m 0
 447 264 508 202 508 123 c 0
 508 48 445 -15 368 -15 c 0
 292 -15 229 48 229 125 c 0
 229 201 292 264 368 264 c 0
368 199 m 0
 328 199 294 165 294 125 c 0
 294 84 328 50 369 50 c 0
 409 50 443 84 443 124 c 0
 443 166 410 199 368 199 c 0
EndSplineSet
Validated: 1
EndChar

StartChar: ampersand
Encoding: 38 38 6
Width: 600
Flags: W
HStem: -14 100<189.021 311.432> 0 21G<370 500> 450 100<247.277 337.727>
VStem: 75 100<100.542 198.22> 137 100<352.639 439.836>
LayerCount: 2
Fore
SplineSet
434 100 m 1xa8
 500 0 l 9
 381 0 l 1x68
 370 15 l 1
 340 -6 310 -14 257 -14 c 0
 147 -14 75 48 75 144 c 0xb0
 75 211 109 267 171 303 c 1
 144 349 137 368 137 399 c 0
 137 480 208 550 289 550 c 0
 313 550 385 541 435 460 c 1
 353 416 l 1
 324 442 310 450 290 450 c 0
 261 450 237 428 237 400 c 0
 237 389 246 370 265 343 c 1
 365 198 l 1
 388 280 l 1
 487 280 l 17
 472 202 454 136 434 100 c 1xa8
312 100 m 1
 228 220 l 1
 193 204 175 177 175 144 c 0
 175 105 202 86 257 86 c 0xb0
 282 86 293 89 312 100 c 1
EndSplineSet
Validated: 1
EndChar

StartChar: quoteright
Encoding: 8217 8217 7
Width: 600
Flags: W
HStem: 331 292
VStem: 147 204
LayerCount: 2
Fore
SplineSet
219 623 m 1
 351 623 l 1
 210 355 l 2
 202 339 190 331 178 331 c 0
 161 331 147 344 147 359 c 0
 147 365 147 367 150 378 c 2
 219 623 l 1
EndSplineSet
Validated: 1
EndChar

StartChar: parenleft
Encoding: 40 40 8
Width: 334
Flags: HMW
VStem: 70 111<189 290.5 189 296.5>
LayerCount: 2
Fore
SplineSet
243 632 m 0
 272 632 294 610 294 583 c 0
 294 571 292 565 282 549 c 0
 212 437 181 341 181 240 c 0
 181 138 213 42 282 -70 c 0
 292 -86 294 -92 294 -104 c 0
 294 -131 272 -153 243 -153 c 0
 219 -153 206 -142 177 -95 c 0
 106 18 70 133 70 243 c 0
 70 350 113 478 186 587 c 0
 209 623 221 632 243 632 c 0
EndSplineSet
EndChar

StartChar: parenright
Encoding: 41 41 9
Width: 334
Flags: HMW
VStem: 153 111<188.5 290>
LayerCount: 2
Fore
SplineSet
91 632 m 0
 115 632 128 621 157 574 c 0
 228 461 264 346 264 236 c 0
 264 129 221 1 148 -109 c 0
 125 -144 113 -153 91 -153 c 0
 62 -153 40 -131 40 -104 c 0
 40 -92 42 -86 52 -70 c 0
 122 42 153 138 153 239 c 0
 153 341 121 437 52 549 c 0
 42 565 40 571 40 583 c 0
 40 610 62 632 91 632 c 0
EndSplineSet
EndChar

StartChar: asterisk
Encoding: 42 42 10
Width: 600
Flags: HMW
VStem: 250 100<467 556 467 568.5>
LayerCount: 2
Fore
SplineSet
219 372 m 1
 133 400 l 2
 96 411 83 425 83 452 c 0
 83 479 105 502 130 502 c 0
 140 502 143 501 164 495 c 2
 250 467 l 1
 250 556 l 2
 250 581 252 592 259 601 c 0
 269 614 284 622 300 622 c 0
 317 622 334 613 343 598 c 0
 348 589 350 580 350 556 c 2
 350 467 l 1
 436 495 l 2
 457 501 460 502 469 502 c 0
 494 502 517 478 517 452 c 0
 517 426 503 411 467 400 c 2
 381 372 l 1
 433 301 l 2
 448 280 452 271 452 258 c 0
 452 231 429 208 402 208 c 0
 381 208 373 214 352 242 c 2
 300 314 l 1
 248 242 l 2
 228 214 218 208 198 208 c 0
 171 208 148 231 148 258 c 0
 148 271 152 279 167 301 c 2
 219 372 l 1
EndSplineSet
Validated: 1
EndChar

StartChar: plus
Encoding: 43 43 11
Width: 600
Flags: HMW
HStem: 0 20 230 100<96 250 108 250 350 491>
VStem: 250 100<66 230 330 494>
LayerCount: 2
Fore
SplineSet
350 230 m 1
 350 66 l 2
 350 39 348 31 341 21 c 0
 331 8 316 0 300 0 c 0
 283 0 266 9 257 24 c 0
 252 33 250 43 250 66 c 2
 250 230 l 1
 108 230 l 2
 84 230 72 232 63 239 c 0
 50 249 42 264 42 280 c 0
 42 297 51 314 66 323 c 0
 75 329 83 330 108 330 c 2
 250 330 l 1
 250 494 l 2
 250 520 252 530 260 539 c 1
 269 553 284 560 300 560 c 0
 317 560 334 551 343 536 c 0
 349 527 350 520 350 494 c 2
 350 330 l 1
 491 330 l 2
 519 330 527 328 537 321 c 0
 550 311 558 296 558 280 c 0
 558 263 549 246 534 237 c 0
 526 232 514 230 491 230 c 2
 350 230 l 1
EndSplineSet
Validated: 1
EndChar

StartChar: comma
Encoding: 44 44 12
Width: 284
Flags: W
HStem: -158 292
VStem: 40 204
LayerCount: 2
Fore
SplineSet
112 134 m 1
 244 134 l 1
 103 -134 l 2
 95 -150 83 -158 71 -158 c 0
 54 -158 40 -145 40 -130 c 0
 40 -124 40 -122 43 -111 c 2
 112 134 l 1
EndSplineSet
EndChar

StartChar: hyphen
Encoding: 45 45 13
Width: 600
Flags: HMW
HStem: 229 100<95.5 492 108 492>
LayerCount: 2
Fore
SplineSet
492 229 m 2
 108 229 l 2
 83 229 72 231 63 238 c 0
 50 248 42 263 42 279 c 0
 42 296 51 312 66 322 c 0
 75 328 83 329 108 329 c 2
 492 329 l 2
 518 329 528 327 538 320 c 0
 551 310 558 295 558 279 c 0
 558 262 549 245 534 236 c 0
 526 231 514 229 492 229 c 2
EndSplineSet
Validated: 1
EndChar

StartChar: period
Encoding: 46 46 14
Width: 190
Flags: HMW
HStem: -15 20
LayerCount: 2
Fore
SplineSet
104 -15 m 2
 86 -15 l 2
 50 -15 20 15 20 51 c 0
 20 87 50 117 86 117 c 2
 104 117 l 2
 141 117 170 88 170 51 c 0
 170 14 141 -15 104 -15 c 2
EndSplineSet
Validated: 1
EndChar

StartChar: slash
Encoding: 47 47 15
Width: 600
Flags: W
LayerCount: 2
Fore
SplineSet
505 610 m 2
 185 -69 l 2
 170 -103 157 -113 133 -113 c 0
 107 -113 83 -90 83 -65 c 0
 83 -55 86 -45 95 -27 c 2
 416 651 l 2
 431 685 444 695 467 695 c 0
 494 695 517 672 517 647 c 0
 517 636 515 630 505 610 c 2
EndSplineSet
Validated: 1
EndChar

StartChar: zero
Encoding: 48 48 16
Width: 514
Flags: HMW
HStem: -15 100<228.5 285.5> 538 100<228.5 285.5 228.5 292.5>
VStem: 40 100<264 359 359 366> 374 100<257 264 264 359 218.5 366>
LayerCount: 2
Fore
SplineSet
474 359 m 2
 474 264 l 2
 474 173 446 92 396 40 c 0
 362 4 314 -15 257 -15 c 0
 200 -15 152 4 118 40 c 0
 68 92 40 173 40 264 c 2
 40 359 l 2
 40 450 68 531 118 583 c 0
 152 619 200 638 257 638 c 0
 314 638 362 619 396 583 c 0
 446 531 474 450 474 359 c 2
140 366 m 2
 140 257 l 2
 140 153 186 85 257 85 c 0
 328 85 374 153 374 257 c 2
 374 366 l 2
 374 470 328 538 257 538 c 0
 186 538 140 470 140 366 c 2
EndSplineSet
EndChar

StartChar: one
Encoding: 49 49 17
Width: 375
Flags: HMW
HStem: 0 100<92.5 205 104 205 305 406>
VStem: 205 100<100 509 509 509>
LayerCount: 2
Fore
SplineSet
205 0 m 17
 205 509 l 1
 118 486 l 2
 99 481 96 480 86 480 c 0
 60 480 40 503 40 532 c 0
 40 561 53 573 93 583 c 2
 305 638 l 1
 305 0 l 9
 205 0 l 17
EndSplineSet
EndChar

StartChar: two
Encoding: 50 50 18
Width: 574
Flags: HMW
HStem: 0 100<203 404 203 504> 538 100<264 316.5>
VStem: 399 100<431 473.5>
LayerCount: 2
Fore
SplineSet
504 100 m 9
 504 0 l 1
 50 0 l 1
 50 105 l 1
 218 244 237 260 282 301 c 0
 382 392 399 414 399 448 c 0
 399 499 349 538 284 538 c 0
 244 538 209 523 187 497 c 0
 177 485 176 483 165 451 c 0
 160 434 141 422 120 422 c 0
 93 422 70 444 70 470 c 0
 70 502 96 551 130 582 c 0
 170 618 227 638 286 638 c 0
 408 638 499 555 499 444 c 0
 499 379 475 341 376 251 c 0
 349 226 291 176 203 100 c 1
 504 100 l 9
EndSplineSet
EndChar

StartChar: three
Encoding: 51 51 19
Width: 600
Flags: W
HStem: -15 100<135.267 368.615> 287 96<216.543 355.65> 538 100<192.47 361.861>
VStem: 391 100<412.638 510.797> 413 100<125.794 236.022>
LayerCount: 2
Fore
SplineSet
260 383 m 2xe8
 300 383 l 2
 349 383 391 420 391 462 c 0
 391 509 348 538 279 538 c 0
 224 538 196 527 164 492 c 0
 155 483 142 477 128 477 c 0
 101 477 79 500 79 527 c 4
 79 585 178 638 285 638 c 4
 351 638 403 619 441 580 c 0
 473 549 491 505 491 464 c 0xf0
 491 409 465 372 400 333 c 1
 476 296 513 246 513 182 c 0
 513 124 485 68 439 32 c 0
 395 -1 342 -15 255 -15 c 4
 132 -15 50 19 50 70 c 4
 50 98 72 120 100 120 c 0
 112 120 116 118 132 108 c 0
 158 91 188 85 252 85 c 0
 321 85 358 95 385 119 c 0
 402 135 413 160 413 183 c 0
 413 220 384 255 337 274 c 0
 316 283 303 285 260 287 c 0
 227 289 208 306 208 333 c 0
 208 362 230 383 260 383 c 2xe8
EndSplineSet
EndChar

StartChar: four
Encoding: 52 52 20
Width: 533
Flags: HMW
HStem: 0 100<272.5 322 284 322 284 416> 138 100<172 322 172 322>
VStem: 322 100<100 138 100 138 238 480 480 480>
LayerCount: 2
Fore
SplineSet
322 0 m 17
 322 138 l 1
 50 138 l 1
 50 221 l 1
 291 622 l 1
 422 622 l 1
 422 238 l 1
 461 238 483 220 483 188 c 0
 483 156 462 139 422 138 c 1
 422 0 l 9
 322 0 l 17
322 238 m 1
 322 480 l 1
 172 238 l 1
 322 238 l 1
EndSplineSet
EndChar

StartChar: five
Encoding: 53 53 21
Width: 553
Flags: HMW
HStem: -15 100<228.5 309> 324 100<287.5 334.5> 522 100<203 203 203 405>
VStem: 103 100<407 522 407 622> 413 100<173 238>
LayerCount: 2
Fore
SplineSet
203 522 m 1
 203 407 l 1
 239 418 273 424 302 424 c 0
 423 424 513 330 513 202 c 0
 513 144 494 92 458 53 c 0
 414 5 356 -15 262 -15 c 0
 142 -15 50 28 50 84 c 0
 50 111 73 133 100 133 c 0
 114 133 121 130 136 118 c 0
 166 93 196 85 261 85 c 0
 365 85 413 122 413 201 c 0
 413 275 368 324 301 324 c 0
 268 324 224 312 181 290 c 0
 168 284 162 282 153 282 c 0
 124 282 103 306 103 338 c 2
 103 622 l 1
 405 622 l 2
 432 622 440 620 451 613 c 0
 463 603 471 588 471 572 c 0
 471 555 462 538 447 529 c 0
 440 524 426 522 405 522 c 2
 203 522 l 1
EndSplineSet
EndChar

StartChar: six
Encoding: 54 54 22
Width: 515
Flags: HMW
HStem: -15 100<236.5 299.5> 294 100<254.5 300> 535 103<312 368.5>
VStem: 370 100<160.5 219>
LayerCount: 2
Fore
SplineSet
143 324 m 1
 191 375 229 394 280 394 c 0
 385 394 470 302 470 189 c 0
 470 132 452 81 418 44 c 0
 382 4 333 -15 266 -15 c 0
 183 -15 122 19 84 87 c 0
 58 135 40 213 40 285 c 0
 40 374 66 450 117 514 c 0
 184 596 266 638 358 638 c 0
 428 638 475 612 475 573 c 0
 475 545 452 522 424 522 c 0
 415 522 405 524 389 530 c 0
 378 534 373 535 364 535 c 0
 258 535 166 447 143 324 c 1
153 209 m 1
 168 122 204 85 269 85 c 0
 332 85 370 125 370 190 c 0
 370 248 327 294 273 294 c 0
 230 294 180 258 153 209 c 1
EndSplineSet
EndChar

StartChar: seven
Encoding: 55 55 23
Width: 533
Flags: HMW
HStem: -1 20 522 100<150 378 150 150>
LayerCount: 2
Fore
SplineSet
50 522 m 9
 50 622 l 1
 483 622 l 1
 483 523 l 1
 324 48 l 2
 311 12 298 -1 272 -1 c 0
 245 -1 221 21 221 47 c 0
 221 56 223 64 228 81 c 2
 378 522 l 1
 50 522 l 9
EndSplineSet
EndChar

StartChar: eight
Encoding: 56 56 24
Width: 514
Flags: W
HStem: -15 100<178.651 335.906> 263 101<183.052 329.819> 538 100<183.844 329.956>
VStem: 40 100<121.499 225.27> 49 100<396.545 505.695> 365 100<396.675 504.007> 374 100<121.386 225.157>
LayerCount: 2
Fore
SplineSet
377 319 m 1xec
 441 279 474 227 474 165 c 0
 474 58 386 -15 256 -15 c 0
 128 -15 40 58 40 165 c 0xf2
 40 227 73 279 137 319 c 1
 77 359 49 402 49 455 c 0
 49 557 141 638 257 638 c 0
 372 638 465 557 465 457 c 0
 465 402 437 359 377 319 c 1xec
257 538 m 0
 193 538 149 502 149 451 c 0
 149 400 194 364 257 364 c 0
 320 364 365 400 365 450 c 0xec
 365 502 321 538 257 538 c 0
257 263 m 0
 193 263 140 223 140 173 c 0
 140 122 189 85 257 85 c 0
 325 85 374 122 374 172 c 0xf2
 374 223 323 263 257 263 c 0
EndSplineSet
EndChar

StartChar: nine
Encoding: 57 57 25
Width: 515
Flags: HMW
HStem: -15 103<146.5 203> 229 100<215 261> 538 100<215.5 278.5>
VStem: 45 100<404 462.5>
LayerCount: 2
Fore
SplineSet
372 299 m 1
 324 248 286 229 236 229 c 0
 130 229 45 321 45 434 c 0
 45 491 63 542 97 579 c 0
 133 619 182 638 249 638 c 0
 332 638 393 604 431 536 c 0
 457 489 475 409 475 338 c 0
 475 250 449 173 398 109 c 0
 331 27 249 -15 157 -15 c 0
 87 -15 40 11 40 50 c 0
 40 78 63 101 91 101 c 0
 100 101 110 99 126 93 c 0
 137 89 142 88 151 88 c 0
 257 88 349 176 372 299 c 1
362 414 m 1
 347 501 311 538 246 538 c 0
 183 538 145 498 145 433 c 0
 145 375 188 329 242 329 c 0
 285 329 335 365 362 414 c 1
EndSplineSet
EndChar

StartChar: colon
Encoding: 58 58 26
Width: 600
Flags: HMW
HStem: -15 20 417 20<291 309 309 327.5>
LayerCount: 2
Fore
SplineSet
309 -15 m 2
 291 -15 l 2
 255 -15 225 15 225 51 c 0
 225 87 255 117 291 117 c 2
 309 117 l 2
 346 117 375 88 375 51 c 0
 375 14 346 -15 309 -15 c 2
309 304 m 2
 291 304 l 2
 255 304 225 334 225 370 c 0
 225 407 255 437 291 437 c 2
 309 437 l 2
 346 437 375 408 375 370 c 0
 375 333 346 304 309 304 c 2
EndSplineSet
Validated: 1
EndChar

StartChar: semicolon
Encoding: 59 59 27
Width: 600
Flags: HMW
HStem: 417 20<253.5 299>
LayerCount: 2
Fore
SplineSet
219 134 m 1
 351 134 l 1
 210 -134 l 2
 202 -150 190 -158 178 -158 c 0
 161 -158 147 -145 147 -130 c 0
 147 -124 147 -122 150 -111 c 2
 219 134 l 1
276 437 m 0
 322 437 351 411 351 370 c 0
 351 330 321 304 276 304 c 0
 231 304 201 331 201 371 c 0
 201 410 231 437 276 437 c 0
EndSplineSet
Validated: 1
EndChar

StartChar: less
Encoding: 60 60 28
Width: 600
Flags: W
LayerCount: 2
Fore
SplineSet
251 279 m 1
 512 143 l 2
 535 131 544 119 544 100 c 0
 544 95 542 88 539 81 c 2
 538 79 l 2
 532 65 516 54 502 54 c 0
 494 54 483 57 472 63 c 2
 42 280 l 1
 472 492 l 2
 484 498 494 501 502 501 c 0
 516 501 532 490 538 476 c 2
 539 474 l 2
 542 468 544 461 544 455 c 0
 544 436 535 424 512 412 c 2
 251 279 l 1
EndSplineSet
Validated: 1
EndChar

StartChar: equal
Encoding: 61 61 29
Width: 600
Flags: HMW
HStem: 138 100<96 492 108 492> 322 100<96 492 108 492>
LayerCount: 2
Fore
SplineSet
108 422 m 2
 492 422 l 2
 519 422 527 420 537 413 c 0
 550 403 558 388 558 372 c 0
 558 355 549 338 534 329 c 0
 526 324 514 322 492 322 c 2
 108 322 l 2
 84 322 72 324 63 332 c 0
 50 341 42 356 42 372 c 0
 42 389 51 406 66 415 c 0
 75 421 83 422 108 422 c 2
108 238 m 2
 492 238 l 2
 519 238 527 236 537 229 c 0
 550 219 558 204 558 188 c 0
 558 171 549 154 534 145 c 0
 526 140 514 138 492 138 c 2
 108 138 l 2
 84 138 72 140 63 148 c 0
 50 157 42 172 42 188 c 0
 42 205 51 222 66 231 c 0
 75 237 83 238 108 238 c 2
EndSplineSet
Validated: 1
EndChar

StartChar: greater
Encoding: 62 62 30
Width: 600
Flags: W
LayerCount: 2
Fore
SplineSet
349 275 m 1
 88 412 l 2
 65 423 56 435 56 453 c 0
 56 459 58 466 61 473 c 2
 62 475 l 2
 67 488 84 500 98 500 c 0
 106 500 117 497 128 491 c 2
 558 274 l 1
 128 62 l 2
 116 56 105 53 98 53 c 0
 84 53 68 64 62 78 c 2
 61 80 l 2
 58 87 56 93 56 100 c 0
 56 118 65 130 88 142 c 2
 349 275 l 1
EndSplineSet
Validated: 1
EndChar

StartChar: question
Encoding: 63 63 31
Width: 523
Flags: HMW
HStem: -15 20 498 100<226 277>
VStem: 353 100<392.5 439>
LayerCount: 2
Fore
SplineSet
40 539 m 1
 136 585 180 598 244 598 c 0
 368 598 453 521 453 409 c 0
 453 328 410 281 289 228 c 1
 285 192 268 174 239 174 c 0
 222 174 205 183 196 198 c 0
 191 207 189 217 189 240 c 2
 189 296 l 1
 317 345 353 371 353 414 c 0
 353 464 309 498 245 498 c 0
 207 498 173 490 140 474 c 1
 40 539 l 1
247 -15 m 2
 230 -15 l 2
 193 -15 163 15 163 51 c 0
 163 87 193 117 230 117 c 2
 247 117 l 2
 284 117 313 88 313 51 c 0
 313 14 284 -15 247 -15 c 2
EndSplineSet
EndChar

StartChar: at
Encoding: 64 64 32
Width: 600
Flags: HMW
HStem: -152 78<283 327 283 349.5> -25 20 72 81<357 378.5 357 454 357 407> 541 79<260 333>
VStem: 76 79<154 161 161 317> 218 79<204.5 249.5 204.5 272.5> 407 79<72 429 75 429 155 316 316 316 397 429 148 462>
LayerCount: 2
Fore
SplineSet
407 397 m 1
 407 429 l 2
 407 495 364 541 302 541 c 0
 218 541 155 445 155 317 c 2
 155 161 l 2
 155 85 172 23 206 -24 c 0
 230 -59 261 -74 305 -74 c 0
 349 -74 389 -62 408 -42 c 0
 422 -28 427 -25 439 -25 c 0
 461 -25 479 -43 479 -66 c 0
 479 -113 397 -152 302 -152 c 0
 220 -152 165 -119 123 -45 c 0
 93 9 76 81 76 154 c 2
 76 323 l 2
 76 495 171 620 301 620 c 0
 409 620 486 540 486 429 c 2
 486 148 l 1
 502 141 509 130 509 113 c 0
 509 85 491 72 454 72 c 2
 407 72 l 1
 407 75 l 1
 392 73 383 72 374 72 c 0
 289 72 218 143 218 226 c 0
 218 319 295 389 407 397 c 1
407 155 m 1
 407 316 l 1
 341 310 297 274 297 225 c 0
 297 184 333 153 381 153 c 0
 388 153 393 153 407 155 c 1
EndSplineSet
Validated: 1
EndChar

StartChar: A
Encoding: 65 65 33
Width: 689
Flags: HMW
HStem: 0 100<78.5 90 90 91 200 223 461 484 598 600> 158 100<263 420 263 461 223 420> 430 20<342 342> 483 100<170 399 183 246>
LayerCount: 2
Fore
SplineSet
50 0 m 1
 287 583 l 1
 399 583 l 1
 639 0 l 1
 523 0 l 1
 461 158 l 1
 223 158 l 1
 161 0 l 1
 50 0 l 1
420 258 m 1
 342 450 l 1
 263 258 l 1
 420 258 l 1
EndSplineSet
Validated: 1
EndChar

StartChar: B
Encoding: 66 66 34
Width: 587
Flags: W
HStem: 0 100<170 430.562> 242 100<170 370.5> 483 100<170 381.827>
VStem: 70 100<100 242 342 483> 404 100<372.854 461.086> 447 100<116.808 202.011>
LayerCount: 2
Fore
SplineSet
350 0 m 1xf4
 70 0 l 1
 70 583 l 1
 308 583 l 2
 421 583 504 513 504 418 c 0xf8
 504 372 485 339 441 305 c 1
 513 269 547 223 547 160 c 0
 547 64 468 0 350 0 c 1xf4
170 342 m 1
 283 342 l 2
 355 342 404 373 404 419 c 0
 404 459 366 483 303 483 c 2
 170 483 l 1
 170 342 l 1
170 100 m 1
 345 100 l 2
 413 100 447 118 447 154 c 0xf4
 447 178 430 204 404 220 c 0
 379 235 347 242 305 242 c 2
 170 242 l 1
 170 100 l 1
EndSplineSet
Validated: 1
EndChar

StartChar: C
Encoding: 67 67 35
Width: 611
Flags: W
HStem: -14 100<229.866 444.939> 497 100<229.847 408.378>
VStem: 40 100<168.419 400.438> 457 99.2773<388.482 456.81>
LayerCount: 2
Fore
SplineSet
547 388 m 0
 538.357 374.06 522 367 506 367 c 0
 493 367 479 373 471 381 c 0
 463 389 461 396 457 420 c 0
 452 444 442 457 413 473 c 0
 386 488 350 497 316 497 c 0
 214 497 140 420 140 315 c 2
 140 251 l 2
 140 151 217 86 337 86 c 0
 382 86 422 94 447 109 c 0
 458 115 458 115 485 143 c 0
 496 154 508 159 521 159 c 0
 548 159 571 136 571 109 c 0
 571 86 552 60 518 36 c 0
 474 4 406 -14 334 -14 c 0
 164 -14 40 97 40 249 c 2
 40 315 l 2
 40 475 158 597 312 597 c 0
 364 597 400 589 454 563 c 4
 512.304 534.928 556.277 472.484 556.277 422.939 c 4
 556.277 410.165 553.354 398.249 547 388 c 0
EndSplineSet
Validated: 1
EndChar

StartChar: D
Encoding: 68 68 36
Width: 590
Flags: HMW
HStem: 0 100<67.9997 73.9997 54.9997 79.9997 174 284> 483 100<54.4997 292 174 174 174 284>
VStem: 73.9997 100<100 483> 450 100<261 305 221.5 307 221.5 330.5>
LayerCount: 2
Fore
SplineSet
284 0 m 2
 74 0 l 1
 74 582.979 l 1
 69.9707 582.979 l 0
 69.9707 582.982 292 583 292 583 c 2
 438 583 550 462 550 305 c 2
 550 258 l 2
 550 185 526 123 480 75 c 0
 431 23 370 0 284 0 c 2
174 100 m 1
 285 100 l 2
 345 100 378 112 409 144 c 0
 437 175 450 210 450 261 c 2
 450 307 l 2
 450 354 434 398 405 432 c 0
 375 467 337 483 284 483 c 2
 174 483 l 1
 174 100 l 1
EndSplineSet
Validated: 5
EndChar

StartChar: E
Encoding: 69 69 37
Width: 596
Flags: W
HStem: 0 100<170 526> 243 99<170 354> 483 100<170 504>
VStem: 70 100<100 243 342 483>
LayerCount: 2
Fore
SplineSet
504 583 m 1
 504 483 l 1
 170 483 l 1
 170 342 l 1
 354 342 l 1
 354 243 l 17
 170 243 l 1
 170 100 l 1
 526 100 l 1
 526 0 l 1
 70 0 l 1
 70 583 l 1
 504 583 l 1
EndSplineSet
Validated: 1
EndChar

StartChar: F
Encoding: 70 70 38
Width: 576
Flags: HMW
HStem: 0 100<43.5 70 55 70 170 270> 243 99<170 255 170 255> 483 100<42.5 526 55 70 170 170 170 426>
VStem: 70 100<100 243 100 342 342 483> 426 100<432 483 483 483>
LayerCount: 2
Fore
SplineSet
170 0 m 9
 70 0 l 17
 70 583 l 1
 526 583 l 1
 526 483 l 1
 170 483 l 1
 170 342 l 1
 354 342 l 1
 354 243 l 1
 170 243 l 1
 170 0 l 9
EndSplineSet
Validated: 1
EndChar

StartChar: G
Encoding: 71 71 39
Width: 598
Flags: HMW
HStem: -14 100<300.983 356.483 300.983 377.483> 180 100<344.983 532.483 357.483 457.483 357.483 557.483> 497 100<297.483 351.483 283.483 361.983>
VStem: 40.4834 100<246 253 253 317 224 355> 457.483 100<111 180 48 180>
LayerCount: 2
Fore
SplineSet
345.483 180.171 m 21
 345.483 279.852 l 13
 557.483 279.087 l 21
 557.483 48 l 5
 468.483 1 416.483 -14 338.483 -14 c 4
 240.483 -14 155.483 15 106.483 65 c 4
 65.4834 108 40.4834 176 40.4834 246 c 6
 40.4834 317 l 6
 40.4834 393 71.4834 467 124.483 520 c 4
 177.483 572 242.483 597 324.483 597 c 4
 378.483 597 431.324 584.695 469.483 565 c 4
 495.044 551.807 558 502.58 558 445.348 c 4
 558 433.171 555.15 420.632 548.483 408 c 4
 540.827 393.495 523.483 387 507.483 387 c 4
 494.483 387 480.483 393 472.483 402 c 4
 466.483 409 466.483 409 458.483 440 c 4
 448.483 475 398.483 497 325.483 497 c 4
 269.483 497 224.483 481 193.483 450 c 4
 160.483 417 140.483 367 140.483 317 c 6
 140.483 253 l 6
 140.483 195 154.483 156 185.483 130 c 4
 219.483 101 269.483 86 332.483 86 c 4
 380.483 86 419.483 94 457.483 111 c 5
 457.483 180 l 5
 345.483 180.171 l 21
EndSplineSet
Validated: 1
EndChar

StartChar: H
Encoding: 72 72 40
Width: 554
Flags: HMW
HStem: 0 20 241 100<170 384 170 384> 563 20<84 185 185 198.5 369 470 470 483.5>
VStem: 70 100<100 241 341 483> 384 100<100 241 241 241 341 483 100 483>
LayerCount: 2
Fore
SplineSet
484 0 m 5
 384 0 l 5
 384 241 l 5
 170 241 l 5
 170 0 l 5
 70 0 l 21
 70 584 l 5
 170 584 l 5
 170 341 l 5
 384 341 l 5
 384 584 l 5
 484 584 l 5
 484 0 l 5
EndSplineSet
Validated: 1
EndChar

StartChar: I
Encoding: 73 73 41
Width: 240
Flags: HMW
HStem: 0 100<-43 70 -31 70 170 271> 483 100<-43.5 271 -31 70 170 271 170 170>
VStem: 70 100<100 483 100 483>
LayerCount: 2
Fore
SplineSet
170 0 m 5
 70 0 l 5
 70 584 l 5
 170 584 l 5
 170 0 l 5
EndSplineSet
Validated: 1
EndChar

StartChar: J
Encoding: 74 74 42
Width: 546
Flags: HMW
HStem: -14 100<240 275 240 284.5> 483 100<244.5 533 257 376 476 533 476 476>
VStem: 40 100<117 213 117 213 117 226> 376 100<198 483>
LayerCount: 2
Fore
SplineSet
40 51 m 5
 140 117 l 5
 189 95 223 86 257 86 c 4
 293 86 329 100 352 122 c 4
 373 143 376 152 376 198 c 6
 376 583 l 13
 476 583 l 21
 476 187 l 6
 476 121 459 83 412 42 c 4
 370 6 314 -14 255 -14 c 4
 198 -14 131 6 40 51 c 5
EndSplineSet
Validated: 1
EndChar

StartChar: K
Encoding: 75 75 43
Width: 570
Flags: HMW
HStem: 0 100<43.5 70 55 70 170 205 480 512> 483 100<42.5 205 55 70 170 170 170 205 487 496.5>
VStem: 70 100<100 208 334 483>
LayerCount: 2
Fore
SplineSet
170 0 m 9
 70 0 l 1
 70 584 l 1
 170 584 l 1
 170 334 l 1
 381 583 l 5
 381 582.753 396.444 582.671 417.037 582.671 c 4
 458.222 582.671 520 583 520 583 c 5
 311 330 l 1
 372 298 473 180 507 0 c 1
 402 0 l 1
 355 143 291 240 230 259 c 1
 170 208 l 1
 170 0 l 9
EndSplineSet
EndChar

StartChar: L
Encoding: 76 76 44
Width: 555
Flags: HMW
HStem: 0 100<1.5 70 13 70 170 385> 483 100<0.5 227 13 70 170 227 170 170>
VStem: 70 100<100 483 100 483> 385 100<100 192 0 205.5>
LayerCount: 2
Fore
SplineSet
70 0 m 1
 70 583 l 1
 170 583 l 17
 170 100 l 1
 485 100 l 9
 485 0 l 25
 70 0 l 1
EndSplineSet
Validated: 1
EndChar

StartChar: M
Encoding: 77 77 45
Width: 660
Flags: W
HStem: 0 21G<70 170 490 590> 563 20G<70 202.293 456.909 590>
VStem: 70 100<0 389> 490 100<0 389>
LayerCount: 2
Fore
SplineSet
590 583 m 1
 590 0 l 1
 490 0 l 1
 490 389 l 1
 379 138 l 1
 288 138 l 1
 288 138 170 388 170 389 c 1
 170 0 l 1
 70 0 l 1
 70 583 l 1
 193 583 l 1
 331 286 l 1
 466 583 l 1
 590 583 l 1
EndSplineSet
Validated: 1
EndChar

StartChar: N
Encoding: 78 78 46
Width: 598
Flags: HMW
HStem: 0 100<64 70 50.5 76 170 205> 483 100<42.5 170 55 70 393 428 528 536.5>
VStem: 70 100<100 394 100 483 100 483> 428 100<191 483 0 483>
LayerCount: 2
Fore
SplineSet
528 583 m 17
 528 0 l 1
 429 0 l 1
 170 394 l 1
 170 0 l 1
 70 0 l 17
 70 583 l 1
 170 583 l 1
 428 191 l 1
 428 583 l 1
 528 583 l 17
EndSplineSet
Validated: 1
EndChar

StartChar: O
Encoding: 79 79 47
Width: 638
Flags: HMW
HStem: -14 100<270 367.5 270 395> 497 100<270 352.5 242 368.5>
VStem: 40 100<235.5 348 235.5 376> 498 100<234 335 205 346.5>
LayerCount: 2
Fore
SplineSet
319 597 m 0
 386 597 451 570 504 520 c 0
 567 460 598 383 598 287 c 0
 598 123 471 -14 319 -14 c 0
 165 -14 40 123 40 292 c 0
 40 460 165 597 319 597 c 0
319 497 m 0
 221 497 140 404 140 292 c 0
 140 179 221 86 319 86 c 0
 416 86 498 179 498 289 c 0
 498 404 418 497 319 497 c 0
EndSplineSet
Validated: 1
EndChar

StartChar: P
Encoding: 80 80 48
Width: 545
Flags: HMW
HStem: 0 100<43.5 70 55 70 170 269> 200 100<170 288 170 268> 483 100<42.5 288 55 70 170 288 170 170>
VStem: 70 100<100 200 300 483> 399 106<371 419.5>
LayerCount: 2
Fore
SplineSet
288 583 m 2
 415 583 505 505 505 394 c 0
 505 348 487 301 455 266 c 0
 411 217 361 200 268 200 c 2
 170 200 l 1
 170 0 l 1
 70 0 l 1
 70 583 l 1
 288 583 l 2
170 483 m 1
 170 300 l 1
 288 300 l 2
 357 300 399 335 399 391 c 0
 399 448 357 483 288 483 c 2
 170 483 l 1
EndSplineSet
Validated: 1
EndChar

StartChar: Q
Encoding: 81 81 49
Width: 638
Flags: W
HStem: -145 100<380.341 515.674> -117 92<287.369 422.305> -33 20G<539.5 559.5> -7 92<288.956 396.693> 497 100<242.211 395.83>
VStem: 40 100<194.594 385.691> 498 100<193.272 385.74>
LayerCount: 2
Fore
SplineSet
290 -6 m 1x5e
 286 -30 l 1
 310 -26 322 -25 337 -25 c 0x5e
 363 -25 389 -29 421 -38 c 0
 444 -44 451 -45 462 -45 c 0
 477 -45 486 -42 505 -30 c 0
 528 -15 534 -13 545 -13 c 0
 574 -13 596 -35 596 -63 c 0
 596 -84 586 -98 558 -114 c 0
 522 -136 494 -145 463 -145 c 0xbe
 438 -145 434 -144 386 -125 c 0
 375 -121 352 -117 338 -117 c 0
 317 -117 255 -127 212 -138 c 0
 200 -141 190 -143 184 -143 c 0
 158 -143 136 -119 136 -91 c 0
 136 -76 140 -68 156 -53 c 2
 218 7 l 1
 143 50 112 77 84 124 c 0
 56 173 40 231 40 292 c 0
 40 460 165 597 319 597 c 0
 472 597 598 460 598 294 c 0
 598 183 543 84 448 27 c 0
 410 4 364 -7 308 -7 c 0
 306 -7 298 -7 290 -6 c 1x5e
319 497 m 0
 221 497 140 404 140 291 c 0
 140 179 221 85 319 85 c 0
 416 85 498 178 498 288 c 0
 498 404 418 497 319 497 c 0
EndSplineSet
Validated: 1
EndChar

StartChar: R
Encoding: 82 82 50
Width: 606
Flags: HMW
HStem: 0 100<43.5 70 55 70 170 205 516 529> 222 100<170 246 170 246 246 266> 483 100<42.5 278 55 70 170 170 170 278 278 282>
VStem: 70 100<100 222 322 483> 392 106<383 429.5>
LayerCount: 2
Fore
SplineSet
566 0 m 5
 450 0 l 5
 400 97 308 207 266 222 c 5
 170 222 l 5
 170 0 l 13
 70 0 l 21
 70 583 l 13
 278 583 l 6
 408 583 498 510 498 405 c 4
 498 342 463 294 390 254 c 5
 474 176 519 100 566 0 c 5
170 322 m 5
 246 322 l 6
 330 322 392 358 392 408 c 4
 392 451 346 483 282 483 c 6
 170 483 l 5
 170 322 l 5
EndSplineSet
Validated: 1
EndChar

StartChar: S
Encoding: 83 83 51
Width: 556
Flags: HMW
HStem: -14 100<260 317 247 355.5> 497 100<245.5 302.5 215 308>
VStem: 60.0001 104<410.5 442.5 410.5 470.5> 412 104<140.5 172.5>
LayerCount: 2
Fore
SplineSet
49 179 m 0
 57.0273 192.622 74 199 90 199 c 0
 104 199 117 194 126 185 c 0
 133 178 133 178 141 151 c 0
 151 115 214 86 280 86 c 0
 354 86 412 119 412 162 c 0
 412 183 398 203 376 215 c 0
 355 226 339 230 271 242 c 0
 206 253 174 263 142 281 c 0
 91 310 60 363 60 420 c 0
 60 521 153 597 277 597 c 0
 328 597 357 589 407 564 c 0
 458.22 538.39 495.287 482.072 495.287 434.335 c 0
 495.287 420.922 492.361 408.188 486 397 c 0
 477.894 382.743 461 376 446 376 c 0
 432 376 418 382 410 390 c 0
 403 398 403 398 396 430 c 0
 387 470 339 497 277 497 c 0
 214 497 164 464 164 421 c 0
 164 400 179 377 201 366 c 0
 221 356 226 354 301 340 c 0
 388 324 426 310 457 285 c 0
 497 253 516 212 516 160 c 0
 516 56 424 -14 287 -14 c 0
 233 -14 192.088 -3.81543 131 25 c 0
 88.3008 45.1406 39.7607 96.4365 39.7607 144.898 c 0
 39.7607 156.589 42.5859 168.116 49 179 c 0
EndSplineSet
Validated: 1
EndChar

StartChar: T
Encoding: 84 84 52
Width: 616
Flags: HMW
HStem: 0 100<180.5 257 192 257 357 423> 483 100<150 257 150 150 357 466 357 357>
VStem: 50 100<390 483 376.5 583> 257 100<100 483 100 483> 466 100<390 483 483 483>
LayerCount: 2
Fore
SplineSet
566 584 m 9
 566 483 l 1
 357 483 l 1
 357 0 l 9
 257 0 l 1
 257 483 l 1
 50 483 l 1
 50 584 l 5
 566 584 l 9
EndSplineSet
Validated: 1
EndChar

StartChar: U
Encoding: 85 85 53
Width: 598
Flags: HMW
HStem: -14 100<272 326.5> 483 100<70 205 170 170 170 205 393 428 528 536.5>
VStem: 70 100<205 483> 428 100<196 205 205 483>
LayerCount: 2
Fore
SplineSet
528 583 m 1
 528 205 l 2
 528 134 501 78 444 35 c 0
 401 2 354 -14 299 -14 c 0
 245 -14 197 2 154 35 c 0
 98 78 70 134 70 205 c 2
 70 583 l 1
 170 583 l 1
 170 196 l 2
 170 135 228 86 299 86 c 0
 370 86 428 135 428 196 c 2
 428 583 l 1
 528 583 l 1
EndSplineSet
Validated: 1
EndChar

StartChar: V
Encoding: 86 86 54
Width: 691
Flags: HMW
HStem: 0 20 483 100<90 92 204 204 204 223 468 492 598 600 600 608.5>
LayerCount: 2
Fore
SplineSet
641 584 m 1
 393 0 l 1
 294 0 l 1
 50 583 l 1
 162 583 l 1
 348 144 l 1
 535 584 l 1
 641 584 l 1
EndSplineSet
Validated: 1
EndChar

StartChar: W
Encoding: 87 87 55
Width: 653
Flags: HMW
HStem: 0 20 483 100<63 214 166 166 166 214 440 493>
LayerCount: 2
Fore
SplineSet
603 583.001 m 5
 530 0 l 5
 420 0 l 5
 327 277 l 5
 236 0 l 5
 125 0 l 5
 50 583 l 5
 153 583 l 5
 202 211 l 5
 278 437 l 5
 382 437 l 5
 458 211 l 5
 506 583.001 l 5
 603 583.001 l 5
EndSplineSet
Validated: 1
EndChar

StartChar: X
Encoding: 88 88 56
Width: 611
Flags: HMW
HStem: 0 20 563 20<90 181 181 195 427 517 517 530.5>
LayerCount: 2
Fore
SplineSet
432 0 m 1
 306 220 l 1
 180 0 l 1
 50 0 l 17
 240 298 l 1
 55 583 l 1
 183 583 l 1
 305 375 l 1
 423 583 l 1
 551 583 l 1
 369 297 l 1
 561 0 l 1
 432 0 l 1
EndSplineSet
EndChar

StartChar: Y
Encoding: 89 89 57
Width: 668
Flags: HMW
HStem: 0 100<208 285 220 285 385 450> 563 20<123 212 212 225.5 456 548 548 561.5>
VStem: 285 100<100 245 100 245>
LayerCount: 2
Fore
SplineSet
285 0 m 21
 285 245 l 5
 50 583 l 5
 170 583 l 5
 335 348 l 5
 498 583 l 5
 618 583 l 5
 385 245 l 5
 385 0 l 5
 285 0 l 21
EndSplineSet
Validated: 1
EndChar

StartChar: Z
Encoding: 90 90 58
Width: 595
Flags: HMW
HStem: 0 100<198 424 70 70> 483 100<193 372 193 193>
VStem: 93 100<413 483 399.5 583> 424 100<100 172 0 184.5>
LayerCount: 2
Fore
SplineSet
525 0 m 1
 70 0 l 1
 70 100 l 1
 372 483 l 1
 93 483 l 1
 93 583 l 1
 501 583 l 1
 501 486 l 1
 198 100 l 1
 525 100 l 1
 525 0 l 1
EndSplineSet
Validated: 1
EndChar

StartChar: bracketleft
Encoding: 91 91 59
Width: 335
Flags: HMW
HStem: -148 100<170 229 170 229> 527 100<170 170 170 228>
VStem: 70 100<-48 527 -48 627>
LayerCount: 2
Fore
SplineSet
170 527 m 1
 170 -48 l 1
 229 -48 l 2
 256 -48 264 -50 274 -57 c 0
 287 -67 295 -82 295 -98 c 0
 295 -115 286 -131 271 -141 c 0
 263 -146 251 -148 229 -148 c 2
 70 -148 l 1
 70 627 l 1
 228 627 l 2
 255 627 263 625 274 618 c 0
 287 608 294 593 294 577 c 0
 294 560 285 543 270 534 c 0
 262 529 250 527 228 527 c 2
 170 527 l 1
EndSplineSet
EndChar

StartChar: backslash
Encoding: 92 92 60
Width: 600
Flags: W
LayerCount: 2
Fore
SplineSet
184 651 m 2
 505 -27 l 2
 514 -45 517 -55 517 -65 c 0
 517 -90 493 -113 467 -113 c 0
 443 -113 431 -103 415 -69 c 2
 95 610 l 2
 85 630 83 636 83 647 c 0
 83 672 106 695 133 695 c 0
 156 695 169 685 184 651 c 2
EndSplineSet
Validated: 1
EndChar

StartChar: bracketright
Encoding: 93 93 61
Width: 335
Flags: HMW
HStem: -148 100<93.5 165 107 165 107 265> 527 100<92.5 265 106 165>
VStem: 165 100<-48 527 527 527>
LayerCount: 2
Fore
SplineSet
165 -48 m 1
 165 527 l 1
 106 527 l 2
 79 527 71 529 61 536 c 0
 48 546 40 561 40 577 c 0
 40 594 49 610 64 620 c 0
 72 625 84 627 106 627 c 2
 265 627 l 1
 265 -148 l 1
 107 -148 l 2
 80 -148 72 -146 61 -139 c 0
 48 -129 41 -114 41 -98 c 0
 41 -81 50 -64 65 -55 c 0
 73 -50 85 -48 107 -48 c 2
 165 -48 l 1
EndSplineSet
EndChar

StartChar: asciicircum
Encoding: 94 94 62
Width: 600
Flags: W
HStem: 325 327
LayerCount: 2
Fore
SplineSet
299 494 m 1
 182 356 l 2
 160 330 153 325 133 325 c 0
 106 325 83 348 83 375 c 0
 83 390 87 398 105 419 c 2
 299 652 l 1
 495 419 l 2
 513 398 517 390 517 375 c 0
 517 348 494 325 467 325 c 0
 448 325 439 330 418 355 c 2
 299 494 l 1
EndSplineSet
Validated: 1
EndChar

StartChar: underscore
Encoding: 95 95 63
Width: 600
Flags: HMW
HStem: -125 50<-12 612 -12 612>
LayerCount: 2
Fore
SplineSet
612 -75 m 1
 612 -125 l 1
 -12 -125 l 1
 -12 -75 l 1
 612 -75 l 1
EndSplineSet
Validated: 1
EndChar

StartChar: quoteleft
Encoding: 8216 8216 64
Width: 600
Flags: HMW
HStem: 582 20<249 381 381 381>
LayerCount: 2
Fore
SplineSet
381 602 m 1
 450 395 l 2
 451 390 453 381 453 376 c 0
 453 361 438 348 422 348 c 0
 409 348 401 354 390 372 c 2
 249 602 l 1
 381 602 l 1
EndSplineSet
Validated: 1
EndChar

StartChar: a
Encoding: 97 97 65
Width: 557
Flags: W
HStem: -16 100<153.744 328.994> 0 21G<386 487> 196 92<187.436 384.606> 350 100<151.81 374.546>
VStem: 40 106<95.2491 161.15> 386 101<0 23 123.047 188.615 278 335.061>
LayerCount: 2
Fore
SplineSet
386 0 m 1x7c
 386 23 l 1
 338 -2 279 -16 220 -16 c 0xbc
 121 -16 40 45 40 119 c 0
 40 150 55 185 79 212 c 0
 124 262 193 288 282 288 c 0
 314 288 345 285 386 278 c 1
 386 301 l 2
 386 335 357 350 293 350 c 0
 260 350 223 345 177 333 c 0
 160 329 146 327 137 327 c 0
 109 327 88 349 88 378 c 0
 88 399 98 413 118 420 c 0
 166 437 240 450 290 450 c 0
 413 450 487 395 487 302 c 2
 487 0 l 1
 386 0 l 1x7c
387 135 m 1
 387 185 l 1
 347 192 310 196 276 196 c 0
 208 196 146 161 146 123 c 0
 146 101 179 84 222 84 c 0
 276 84 332 101 387 135 c 1
EndSplineSet
Validated: 1
EndChar

StartChar: b
Encoding: 98 98 66
Width: 607
Flags: HMW
HStem: -14 100<291.5 342.5 275 358> 351 100<294.5 343>
VStem: 70 100<180.5 236.5 401 524 524 524> 467 100<202 235.5>
LayerCount: 2
Fore
SplineSet
170 624 m 1
 170 401 l 1
 213 435 260 451 320 451 c 0
 395 451 451 430 497 386 c 0
 543 342 567 284 567 218 c 0
 567 153 543 96 497 51 c 0
 451 7 395 -14 321 -14 c 0
 262 -14 222 -1 170 35 c 1
 170 0 l 1
 70 0 l 1
 70 624 l 1
 170 624 l 1
319 351 m 0
 270 351 237 339 209 311 c 0
 184 286 170 253 170 220 c 0
 170 141 231 86 319 86 c 0
 366 86 400 99 428 126 c 0
 453 151 467 185 467 219 c 0
 467 252 452 286 428 311 c 0
 399 339 367 351 319 351 c 0
EndSplineSet
Validated: 1
EndChar

StartChar: c
Encoding: 99 99 67
Width: 591
Flags: HMW
HStem: -16 100<260.5 336 257.5 345.5> 350 100<270.5 318>
VStem: 40 100<176.5 226 166 278.5>
LayerCount: 2
Fore
SplineSet
517 262 m 0
 508.307 248.092 492 241 476 241 c 0
 463 241 448 247 440 255 c 1
 432 261 430 267 425 289 c 0
 421 307 415 316 402 325 c 0
 376 341 340 350 296 350 c 0
 245 350 208 336 180 307 c 0
 154 281 140 245 140 207 c 0
 140 125 199 84 316 84 c 0
 356 84 397 89 421 97 c 0
 440 103 445 107 471 128 c 0
 480 136 489 140 501 140 c 0
 528 140 551 117 551 89 c 0
 551 63 528 37 487 16 c 0
 446 -4 382 -16 309 -16 c 0
 212 -16 150 5 101 53 c 0
 61 93 40 146 40 207 c 0
 40 350 145 450 296 450 c 0
 353 450 395.819 440.618 440 420 c 0
 487.172 397.986 526.308 342.595 526.308 296.59 c 0
 526.308 284.079 523.414 272.263 517 262 c 0
EndSplineSet
Validated: 1
EndChar

StartChar: d
Encoding: 100 100 68
Width: 608
Flags: HMW
HStem: -14 100<265 313 265 316.5> 351 100<264 313>
VStem: 40 100<202 235.5 202 251.5> 438 100<0 624 35 624 201 235 401 525 525 525>
LayerCount: 2
Fore
SplineSet
438 624 m 1
 538 624 l 1
 538 0 l 1
 438 0 l 1
 438 35 l 1
 385 -1 346 -14 287 -14 c 0
 212 -14 156 7 110 51 c 0
 64 96 40 153 40 219 c 0
 40 284 64 342 110 386 c 0
 156 430 212 451 288 451 c 0
 348 451 395 435 438 401 c 1
 438 624 l 1
288 351 m 0
 240 351 207 339 179 311 c 0
 154 286 140 252 140 219 c 0
 140 185 154 152 179 126 c 0
 207 99 241 86 289 86 c 0
 337 86 371 99 399 126 c 0
 424 151 438 185 438 217 c 0
 438 253 424 286 399 311 c 0
 370 339 338 351 288 351 c 0
EndSplineSet
Validated: 1
EndChar

StartChar: e
Encoding: 101 101 69
Width: 597
Flags: HMW
HStem: -16 100<269 336 269 339.5> 172 88<152 446 152 557 149 446> 350 100<262.5 335.5>
LayerCount: 2
Fore
SplineSet
557 172 m 1
 149 172 l 1
 172 112 225 84 313 84 c 0
 359 84 384 88 476 112 c 0
 488 115 500 117 509 117 c 0
 536 117 557 95 557 67 c 0
 557 47 546 33 522 22 c 0
 477 2 375 -16 304 -16 c 0
 149 -16 40 80 40 216 c 0
 40 348 152 450 298 450 c 0
 447 450 557 349 557 211 c 2
 557 172 l 1
152 260 m 1
 446 260 l 1
 430 315 372 350 299 350 c 0
 226 350 167 314 152 260 c 1
EndSplineSet
Validated: 1
EndChar

StartChar: f
Encoding: 102 102 70
Width: 605
Flags: HMW
HStem: 0 100<113.5 183 125 183 283 422> 337 100<124 183 137 183 137 183 283 434> 523 100<338.5 382.5>
VStem: 183 100<100 337 100 337 437 474>
LayerCount: 2
Fore
SplineSet
283 0 m 9
 183 0 l 1
 183 337 l 1
 136 337 l 2
 112 337 100 339 91 347 c 0
 78 356 70 371 70 387 c 0
 70 404 79 421 94 430 c 0
 103 436 110 437 137 437 c 2
 183 437 l 1
 183 474 l 2
 183 566 257 623 376 623 c 0
 418 623 481 616 513 607 c 0
 540 600 555 583 555 560 c 0
 555 531 534 509 508 509 c 0
 502 509 492 510 480 512 c 0
 446 518 398 523 367 523 c 0
 310 523 283 507 283 474 c 2
 283 437 l 1
 434 437 l 2
 461 437 469 435 479 428 c 0
 492 418 500 403 500 387 c 0
 500 370 491 354 476 344 c 0
 468 339 456 337 434 337 c 2
 283 337 l 1
 283 0 l 9
EndSplineSet
Validated: 1
EndChar

StartChar: g
Encoding: 103 103 71
Width: 587
Flags: HMW
HStem: -205 100<201.5 323 214 323 323 326> -14 100<240 302> 351 100<240 303 209 317>
VStem: 40 100<182 255.5 182 284.5> 417 100<-20 35 35 35 181 254.5>
LayerCount: 2
Fore
SplineSet
517 437 m 17
 517 -20 l 2
 517 -126 435 -205 326 -205 c 2
 214 -205 l 2
 189 -205 178 -203 169 -195 c 0
 156 -186 148 -171 148 -155 c 0
 148 -138 157 -121 172 -112 c 0
 181 -106 188 -105 214 -105 c 2
 323 -105 l 2
 380 -105 417 -72 417 -20 c 2
 417 35 l 1
 371 1 328 -14 276 -14 c 0
 142 -14 40 86 40 218 c 0
 40 351 142 451 276 451 c 0
 330 451 378 434 417 401 c 1
 417 437 l 1
 517 437 l 17
278 351 m 0
 202 351 140 292 140 219 c 0
 140 145 202 86 278 86 c 0
 354 86 417 145 417 217 c 0
 417 292 356 351 278 351 c 0
EndSplineSet
Validated: 1
EndChar

StartChar: h
Encoding: 104 104 72
Width: 554
Flags: HMW
HStem: 0 20 350 100<281 311.5>
VStem: 70 100<100 283 389 524 524 524> 384 100<100 271 271 284 100 288>
LayerCount: 2
Fore
SplineSet
71 624 m 9
 170 624 l 1
 170 389 l 1
 210 430 255 450 307 450 c 0
 413 450 484 384 484 284 c 2
 484 0 l 1
 384 0 l 1
 384 271 l 2
 384 305 380 317 363 331 c 0
 346 345 327 350 296 350 c 0
 249 350 227 338 170 283 c 1
 170 0 l 1
 70 0 l 1
 71 624 l 9
EndSplineSet
Validated: 1
EndChar

StartChar: i
Encoding: 105 105 73
Width: 258
Flags: W
HStem: 0 21G<79 179> 417 20G<79 179> 518 105<70 188>
VStem: 70 118<518 623> 79 100<0 436>
LayerCount: 2
Fore
SplineSet
179 437 m 1xe8
 179 0 l 1
 79 0 l 1
 79 436 l 1
 179 437 l 1xe8
188 623 m 1xf0
 188 518 l 1
 70 518 l 1
 70 623 l 1
 188 623 l 1xf0
EndSplineSet
Validated: 1
EndChar

StartChar: j
Encoding: 106 106 74
Width: 382
Flags: W
HStem: -205 100<64.4212 174.619> 337 100<117.42 203> 518 105<193 312>
VStem: 93 210<347.427 428.682> 193 119<518 623> 203 100<-76.0632 337>
LayerCount: 2
Fore
SplineSet
203 337 m 1xe4
 159 337 l 2
 134 337 123 339 114 347 c 0
 101 356 93 372 93 387 c 0xf0
 93 404 102 421 117 430 c 0
 126 436 133 437 159 437 c 2
 303 437 l 1
 303 -20 l 2
 303 -125 221 -205 112 -205 c 2
 106 -205 l 2
 81 -205 70 -203 61 -195 c 0
 48 -186 40 -170 40 -155 c 0
 40 -138 50 -121 64 -112 c 0
 73 -106 81 -105 106 -105 c 2
 109 -105 l 2
 166 -105 203 -72 203 -20 c 2
 203 337 l 1xe4
312 623 m 1xe8
 312 518 l 1
 193 518 l 1
 193 623 l 1
 312 623 l 1xe8
EndSplineSet
EndChar

StartChar: k
Encoding: 107 107 75
Width: 600
Flags: W
HStem: 0 21G<70 170 366.416 540> 417 20G<332.933 506> 604 20G<70 170>
VStem: 70 100<0 164 287 624>
LayerCount: 2
Fore
SplineSet
540 0 m 1
 389 0 l 1
 188 178 l 1
 170 164 l 1
 170 0 l 1
 70 0 l 1
 70 624 l 9
 170 624 l 1
 170 287 l 1
 358 437 l 1
 506 437 l 1
 266 241 l 1
 540 0 l 1
EndSplineSet
Validated: 1
EndChar

StartChar: l
Encoding: 108 108 76
Width: 295
Flags: HMW
HStem: 0 100<-8.5 125 3 125 225 347> 524 100<34.5 225 47 125>
VStem: 125 100<100 524 524 524>
LayerCount: 2
Fore
SplineSet
125 0 m 1
 125 524 l 1
 117 524 l 6
 92 524 80 526 71 534 c 5
 57 543 50 558 50 574 c 4
 50 592 59 608 74 617 c 4
 83 623 92 624 117 624 c 6
 225 624 l 1
 225 0 l 1
 125 0 l 1
EndSplineSet
EndChar

StartChar: m
Encoding: 109 109 77
Width: 663
Flags: W
HStem: 0 21G<70 171 282 382 493 593> 350 100<194.476 279.547 406.029 490.288> 417 20G<70 171>
VStem: 70 101<0 327.45 413 437> 282 100<0 326.009> 493 100<0 346.162>
LayerCount: 2
Fore
SplineSet
70 437 m 9xbc
 171 437 l 1xbc
 171 413 l 1
 206 441 226 450 256 450 c 0
 295 450 328 434 358 401 c 1
 389 435 421 450 462 450 c 0
 537 450 593 394 593 319 c 2
 593 0 l 1
 493 0 l 1
 493 311 l 2
 493 340 484 350 458 350 c 0
 432 350 416 341 382 305 c 1
 382 0 l 1
 282 0 l 17
 282 311 l 2
 282 339 272 350 247 350 c 0xdc
 220 350 201 339 171 305 c 1
 171 0 l 1
 70 0 l 1
 70 437 l 9xbc
EndSplineSet
Validated: 1
EndChar

StartChar: n
Encoding: 110 110 78
Width: 554
Flags: W
HStem: 0 21G<70 169 384 484> 350 100<220.863 366.214> 417 20G<70 169>
VStem: 70 99<0 303.481 389 437> 384 100<0 332.375>
LayerCount: 2
Fore
SplineSet
70 437 m 9xb8
 169 437 l 1xb8
 169 389 l 1
 217 435 251 450 306 450 c 0
 351 450 392 437 425 413 c 0
 465 383 484 341 484 282 c 2
 484 0 l 1
 384 0 l 1
 384 278 l 2
 384 327 356 350 294 350 c 0xd8
 248 350 216 333 169 282 c 1
 169 0 l 1
 70 0 l 1
 70 437 l 9xb8
EndSplineSet
Validated: 1
EndChar

StartChar: o
Encoding: 111 111 79
Width: 596
Flags: HMW
HStem: -16 100<253.5 342.5 253.5 370> 350 100<254.5 343.5>
VStem: 40 100<179.5 255 179.5 283> 456 100<179.5 254>
LayerCount: 2
Fore
SplineSet
301 450 m 0
 442 450 556 346 556 217 c 0
 556 87 442 -16 298 -16 c 0
 154 -16 40 87 40 217 c 0
 40 349 153 450 301 450 c 0
300 350 m 0
 209 350 140 293 140 217 c 0
 140 142 209 84 298 84 c 0
 387 84 456 142 456 217 c 0
 456 291 387 350 300 350 c 0
EndSplineSet
Validated: 1
EndChar

StartChar: p
Encoding: 112 112 80
Width: 607
Flags: HMW
HStem: -205 100<41.5 70 54 70 170 228> 10 100<295.5 362 275 394.5> 350 100<298 339.5>
VStem: 70 100<-105 66 195.5 247> 467 100<195 246.5>
LayerCount: 2
Fore
SplineSet
70 437 m 9
 170 437 l 1
 170 392 l 1
 219 434 261 450 323 450 c 0
 463 450 567 353 567 224 c 0
 567 101 464 10 325 10 c 0
 266 10 222 26 170 66 c 1
 170 -205 l 9
 70 -205 l 17
 70 437 l 9
319 350 m 0
 277 350 244 341 218 321 c 0
 189 300 170 263 170 231 c 0
 170 160 231 110 319 110 c 0
 405 110 467 160 467 230 c 0
 467 263 448 300 419 321 c 0
 393 341 360 350 319 350 c 0
EndSplineSet
Validated: 1
EndChar

StartChar: q
Encoding: 113 113 81
Width: 608
Flags: HMW
HStem: -205 100<367.5 438 380 438 538 554> 10 100<268 310 268 311.5> 350 100<267.5 315.5 214 332.5>
VStem: 40 100<213.5 246.5 213.5 289> 438 100<-105 66 66 66 213 264.5 -105 437>
LayerCount: 2
Fore
SplineSet
538 437 m 17
 538 -205 l 9
 438 -205 l 17
 438 66 l 1
 386 26 341 10 282 10 c 0
 143 10 40 101 40 224 c 0
 40 354 144 450 284 450 c 0
 347 450 389 434 438 392 c 1
 438 437 l 1
 538 437 l 17
288 350 m 0
 247 350 214 340 188 321 c 0
 159 299 140 263 140 230 c 0
 140 197 159 161 188 139 c 0
 213 120 247 110 289 110 c 0
 331 110 365 120 390 139 c 0
 419 161 438 197 438 229 c 0
 438 300 377 350 288 350 c 0
EndSplineSet
Validated: 1
EndChar

StartChar: r
Encoding: 114 114 82
Width: 503
Flags: W
HStem: 0 21G<70 170> 349 100<276.502 378.53> 417 20G<70 170>
VStem: 70 100<0 264.307 372 437>
LayerCount: 2
Fore
SplineSet
70 437 m 9xb0
 170 437 l 1xb0
 170 372 l 1
 250 432 288 449 337 449 c 0
 372 449 404 437 435 411 c 0
 456 394 463 382 463 364 c 0
 463 336 440 313 413 313 c 0
 399 313 389 318 374 331 c 0
 359 344 349 349 335 349 c 0xd0
 303 349 265 325 170 247 c 1
 170 0 l 1
 70 0 l 1
 70 437 l 9xb0
EndSplineSet
Validated: 1
EndChar

StartChar: s
Encoding: 115 115 83
Width: 534
Flags: HMW
HStem: -16 100<242.5 299 240 335.5> 350 100<242.5 289>
VStem: 59.0005 110<310.5 324 310.5 353> 384 110<115.5 133.5>
LayerCount: 2
Fore
SplineSet
50 146 m 0
 60.4385 159.677 74 167 91 167 c 0
 117 167 133 153 142 123 c 1
 171 97 213 84 267 84 c 0
 331 84 384 104 384 127 c 0
 384 140 371 154 350 162 c 0
 333 169 312 173 258 179 c 0
 118 194 59 234 59 313 c 0
 59 393 145 450 265 450 c 0
 314 450 358.942 440.88 394 424 c 0
 436.434 403.569 472.692 369.554 472.692 332.143 c 0
 472.692 321.946 469.998 311.496 464 301 c 1
 455.161 288.121 438 281 423 281 c 0
 402 281 388 290 376 312 c 2
 371 321 l 1
 343 341 310 350 268 350 c 0
 217 350 169 333 169 315 c 0
 169 306 179 297 195 291 c 0
 209 286 215 285 279 276 c 0
 354 266 394 255 424 238 c 0
 468 214 494 171 494 125 c 0
 494 43 400 -16 271 -16 c 0
 214 -16 173.459 -8.97461 123 13 c 0
 75.125 33.8486 40.3682 79.1445 40.3682 116.197 c 0
 40.3682 127.128 43.3936 137.343 50 146 c 0
EndSplineSet
Validated: 1
EndChar

StartChar: t
Encoding: 116 116 84
Width: 606
Flags: HMW
HStem: -16 100<308 352> 337 100<93.5 141 106 141 241 422> 571 20<183 199.5>
VStem: 141 100<130.5 141 141 337 437 525>
LayerCount: 2
Fore
SplineSet
241 337 m 1
 241 141 l 2
 241 120 243 111 249 104 c 0
 261 91 289 84 327 84 c 0
 380 84 428 95 473 118 c 0
 490 127 497 129 508 129 c 0
 535 129 556 106 556 78 c 0
 556 54 544 41 506 24 c 0
 457 1 378 -16 326 -16 c 0
 212 -16 141 37 141 122 c 2
 141 337 l 1
 106 337 l 2
 81 337 70 339 60 347 c 0
 48 356 40 372 40 387 c 0
 40 404 49 421 64 430 c 0
 73 436 80 437 106 437 c 2
 141 437 l 1
 141 525 l 2
 141 551 143 561 151 571 c 0
 160 583 175 591 191 591 c 0
 208 591 225 582 234 567 c 0
 240 558 241 551 241 525 c 2
 241 437 l 1
 422 437 l 2
 449 437 457 435 468 428 c 0
 480 418 488 403 488 387 c 0
 488 370 479 353 464 344 c 0
 456 339 444 337 422 337 c 2
 241 337 l 1
EndSplineSet
Validated: 1
EndChar

StartChar: u
Encoding: 117 117 85
Width: 555
Flags: HMW
HStem: -13 100<228 275.5> 337 100<43 170 350 385>
VStem: 70 100<156 159 159 338 338 338> 385 100<0 437 48 437 155 337 337 337>
LayerCount: 2
Fore
SplineSet
485 0 m 9
 385 0 l 1
 385 48 l 1
 335 1 303 -13 248 -13 c 0
 203 -13 161 0 129 24 c 0
 89 54 70 97 70 156 c 2
 70 437 l 9
 170 437 l 1
 170 159 l 2
 170 110 198 87 258 87 c 0
 308 87 333 100 385 155 c 1
 385 437 l 9
 485 437 l 1
 485 0 l 9
EndSplineSet
Validated: 1
EndChar

StartChar: v
Encoding: 118 118 86
Width: 638
Flags: HMW
HStem: 0 20 417 20<86 218 218 231 419 554 554 567>
LayerCount: 2
Fore
SplineSet
50 437 m 9
 162 437 l 17
 322 122 l 1
 479 437 l 9
 588 437 l 17
 371 0 l 1
 267 0 l 1
 50 437 l 9
EndSplineSet
Validated: 1
EndChar

StartChar: w
Encoding: 119 119 87
Width: 644
Flags: HMW
HStem: 0 20 417 20<87 179 179 192 462 555 555 568>
LayerCount: 2
Fore
SplineSet
156 437 m 21
 220 185 l 5
 280 343 l 5
 368 343 l 5
 429 185 l 5
 495 437 l 13
 594 437.001 l 21
 485 0 l 5
 393 0 l 5
 322 181 l 5
 254 0 l 5
 160 0 l 5
 50 437.001 l 13
 156 437 l 21
EndSplineSet
Validated: 1
EndChar

StartChar: x
Encoding: 120 120 88
Width: 623
Flags: HMW
HStem: 0 20 417 20<114 206 206 219 408 499 499 512>
LayerCount: 2
Fore
SplineSet
573 0 m 9
 425 0 l 17
 307 161 l 1
 195 0 l 9
 50 0 l 17
 228 228 l 1
 62 437 l 9
 207 437 l 17
 307 293 l 1
 404 436.999 l 9
 553 437 l 17
 381 227 l 1
 573 0 l 9
EndSplineSet
EndChar

StartChar: y
Encoding: 121 121 89
Width: 661
Flags: HMW
HStem: -205 100<106.5 219 119 219 329 334> 417 20<119 209 209 222 453 545 545 558>
LayerCount: 2
Fore
SplineSet
504 437 m 9
 611 437 l 17
 277 -205 l 9
 168 -205 l 17
 274 3 l 1
 50 437 l 9
 165 437 l 17
 330 114 l 1
 504 437 l 9
EndSplineSet
Validated: 1
EndChar

StartChar: z
Encoding: 122 122 90
Width: 574
Flags: HMW
HStem: 0 100<229 404 229 504> 337 100<182 331 182 182>
LayerCount: 2
Fore
SplineSet
82 337 m 9
 82 437 l 1
 491 437 l 1
 491 356 l 1
 229 100 l 1
 504 100 l 9
 504 0 l 1
 70 0 l 1
 70 83 l 1
 331 337 l 1
 82 337 l 9
EndSplineSet
Validated: 1
EndChar

StartChar: braceleft
Encoding: 123 123 91
Width: 600
Flags: HMW
VStem: 248 100<-22 -15 -15 142 328 485>
LayerCount: 2
Fore
SplineSet
348 485 m 2
 348 328 l 2
 348 285 342 268 319 240 c 1
 343 211 348 194 348 142 c 2
 348 -15 l 2
 348 -42 356 -50 384 -52 c 0
 413 -54 433 -75 433 -103 c 0
 433 -133 411 -153 378 -153 c 0
 308 -153 248 -93 248 -22 c 2
 248 151 l 2
 248 179 242 186 216 189 c 0
 184 193 167 210 167 240 c 0
 167 269 184 287 216 290 c 0
 242 293 248 301 248 328 c 2
 248 492 l 2
 248 563 308 623 377 623 c 0
 411 623 433 603 433 573 c 0
 433 545 413 524 384 522 c 0
 356 521 348 512 348 485 c 2
EndSplineSet
Validated: 1
EndChar

StartChar: bar
Encoding: 124 124 92
Width: 600
Flags: HMW
VStem: 250 100<-87 556>
LayerCount: 2
Fore
SplineSet
350 556 m 2
 350 -87 l 2
 350 -112 348 -122 341 -132 c 0
 331 -145 316 -153 300 -153 c 0
 283 -153 267 -144 257 -129 c 0
 252 -121 250 -110 250 -87 c 2
 250 556 l 2
 250 582 252 592 259 602 c 0
 269 614 284 622 300 622 c 0
 317 622 334 613 343 598 c 0
 348 589 350 580 350 556 c 2
EndSplineSet
Validated: 1
EndChar

StartChar: braceright
Encoding: 125 125 93
Width: 600
Flags: HMW
VStem: 252 100<-15 142 328 485 485 492>
LayerCount: 2
Fore
SplineSet
252 -15 m 2
 252 142 l 2
 252 185 258 202 281 230 c 1
 257 259 252 276 252 328 c 2
 252 485 l 2
 252 512 244 520 216 522 c 0
 187 524 167 545 167 573 c 0
 167 603 189 623 222 623 c 0
 292 623 352 563 352 492 c 2
 352 319 l 2
 352 291 358 284 384 281 c 0
 416 277 433 260 433 230 c 0
 433 201 416 183 384 180 c 0
 358 177 352 169 352 142 c 2
 352 -22 l 2
 352 -93 292 -153 223 -153 c 0
 189 -153 167 -133 167 -103 c 0
 167 -75 187 -54 216 -52 c 0
 244 -51 252 -42 252 -15 c 2
EndSplineSet
Validated: 1
EndChar

StartChar: asciitilde
Encoding: 126 126 94
Width: 600
Flags: W
HStem: 179 105<351.895 418.729> 281 104<182.131 247.649>
LayerCount: 2
Fore
SplineSet
488 364 m 0x80
 515 364 538 341 538 314 c 0
 538 294 530 280 497 241 c 0
 460 197 430 179 391 179 c 0x80
 352 179 314 200 254 254 c 0
 233 272 220 281 212 281 c 0
 202 281 192 272 165 239 c 0
 139 207 131 201 113 201 c 0
 86 201 62 225 62 252 c 0
 62 271 72 290 101 322 c 0
 140 367 172 385 213 385 c 0x40
 255 385 282 370 350 307 c 0
 368 292 380 284 389 284 c 0
 400 284 413 297 438 330 c 0
 458 357 468 364 488 364 c 0x80
EndSplineSet
Validated: 1
EndChar

StartChar: exclamdown
Encoding: 161 161 95
Width: 600
Flags: HMW
HStem: -227 20
LayerCount: 2
Fore
SplineSet
222 -114 m 2
 251 183 l 2
 254 214 272 232 300 232 c 0
 328 232 347 213 350 183 c 2
 379 -114 l 2
 380 -127 381 -141 381 -147 c 0
 381 -193 347 -227 300 -227 c 0
 254 -227 220 -193 220 -147 c 0
 220 -140 221 -126 222 -114 c 2
292 426 m 2
 309 426 l 2
 346 426 375 397 375 360 c 0
 375 323 346 294 309 294 c 2
 292 294 l 2
 255 294 225 323 225 360 c 0
 225 397 255 426 292 426 c 2
EndSplineSet
Validated: 1
EndChar

StartChar: cent
Encoding: 162 162 96
Width: 600
Flags: HMW
HStem: -44 241<292.5 309> 427 234<293 309.5 293 342.5>
VStem: 83 100<278.5 343.5 278.5 360.5> 251 100<22 99 8.5 103 8.5 103 527 594>
LayerCount: 2
Fore
SplineSet
486 354 m 1
 476 341 461 333 445 333 c 0
 433 333 418 339 410 346 c 0
 403 354 403 354 395 384 c 0
 388 414 365 427 320 427 c 0
 241 427 183 377 183 310 c 0
 183 247 238 197 310 197 c 0
 347 197 381 208 415 233 c 0
 427 241 437 245 449 245 c 0
 475 245 499 221 499 194 c 0
 499 152 439 114 351 99 c 1
 351 22 l 2
 351 -5 349 -13 342 -23 c 0
 332 -36 317 -44 301 -44 c 0
 284 -44 268 -35 258 -20 c 0
 253 -12 251 -1 251 22 c 2
 251 103 l 1
 148 128 83 209 83 312 c 0
 83 409 152 493 251 517 c 1
 251 594 l 2
 251 621 253 630 261 640 c 0
 271 654 285 661 301 661 c 0
 318 661 335 652 344 637 c 0
 350 628 351 620 351 594 c 2
 351 527 l 1
 382 522 395.093 518.991 424 503 c 0
 460.551 482.781 495.287 432.927 495.287 389.184 c 0
 495.287 376.678 492.448 364.672 486 354 c 1
EndSplineSet
Validated: 1
EndChar

StartChar: sterling
Encoding: 163 163 97
Width: 600
Flags: W
HStem: 0 100<76.4248 144.167 247 454.749> 243 100<57.4212 143 269 356.577> 444 21G<398.5 421.5> 498 100<243.786 356.885>
VStem: 126 100<345.478 480.479> 169 101<127.414 243>
LayerCount: 2
Fore
SplineSet
314 243 m 2xf8
 269 243 l 1
 270 231 270 221 270 216 c 0
 270 172 264 142 247 100 c 1
 450 100 l 1
 454 130 471 146 499 146 c 0
 530 146 550 124 550 90 c 0
 550 32 512 0 442 0 c 2
 121 0 l 2
 98 0 85 3 76 10 c 0
 63 19 55 35 55 51 c 0
 55 78 70 93 105 100 c 0
 130 105 141 113 150 132 c 0
 163 157 169 188 169 224 c 0xf4
 169 227 169 235 168 243 c 1
 99 243 l 2
 74 243 63 245 54 252 c 0
 41 262 33 277 33 293 c 0
 33 310 42 327 57 336 c 0
 66 342 74 343 99 343 c 2
 143 343 l 1
 131 379 126 403 126 432 c 0
 126 529 198 598 299 598 c 0
 377 598 457 546 457 495 c 0
 457 467 435 444 408 444 c 0
 389 444 384 447 361 472 c 0
 345 490 325 498 298 498 c 0
 257 498 226 472 226 437 c 0
 226 416 226 414 246 343 c 1
 314 343 l 2
 341 343 350 341 360 334 c 0
 373 324 381 309 381 293 c 0
 381 276 372 260 357 250 c 0
 348 245 338 243 314 243 c 2xf8
EndSplineSet
Validated: 1
EndChar

StartChar: fraction
Encoding: 8260 8260 98
Width: 600
Flags: W
LayerCount: 2
Fore
SplineSet
543 398 m 2
 112 119 l 2
 94 107 81 102 70 102 c 0
 45 102 21 127 21 154 c 0
 21 175 29 185 58 204 c 2
 489 483 l 2
 510 497 518 500 531 500 c 0
 557 500 580 476 580 449 c 0
 580 428 572 417 543 398 c 2
EndSplineSet
Validated: 1
EndChar

StartChar: yen
Encoding: 165 165 99
Width: 600
Flags: HMW
HStem: 0 100<191.5 250 204 250 350 397> 135 56<143 250 153 250 350 447> 225 56<143 225 153 225 153 250 375 447>
VStem: 250 100<100 135 100 135 191 225 100 225>
LayerCount: 2
Fore
SplineSet
250 0 m 17
 250 135 l 1
 153 135 l 2
 133 135 122 145 122 163 c 0
 122 181 133 191 153 191 c 2
 250 191 l 1
 250 225 l 1
 153 225 l 2
 133 225 122 235 122 253 c 0
 122 271 132 281 153 281 c 2
 225 281 l 1
 19 580 l 9
 139 580 l 17
 301 348 l 1
 467 580 l 9
 584 580 l 17
 375 281 l 1
 447 281 l 2
 467 281 478 271 478 253 c 0
 478 235 467 225 447 225 c 2
 350 225 l 1
 350 191 l 1
 447 191 l 2
 467 191 478 181 478 163 c 0
 478 145 467 135 447 135 c 2
 350 135 l 1
 350 0 l 9
 250 0 l 17
EndSplineSet
Validated: 1
EndChar

StartChar: florin
Encoding: 402 402 100
Width: 600
Flags: HMW
HStem: -123 100<168 199 168 228.5> -9 20 304 100<184 254 197 254 354 411> 538 100<407 436>
VStem: 254 100<66 304 404 456>
LayerCount: 2
Fore
SplineSet
354 404 m 1
 411 404 l 2
 440 404 447 403 457 395 c 0
 470 385 478 370 478 354 c 0
 478 337 469 320 454 311 c 0
 446 306 434 304 411 304 c 2
 354 304 l 1
 354 66 l 2
 354 -41 278 -123 179 -123 c 0
 102 -123 57 -99 57 -59 c 0
 57 -32 80 -9 105 -9 c 0
 111 -9 114 -10 128 -15 c 0
 144 -20 160 -23 176 -23 c 0
 222 -23 254 13 254 66 c 2
 254 304 l 1
 197 304 l 2
 171 304 160 306 151 313 c 0
 138 323 130 338 130 354 c 0
 130 371 139 388 154 397 c 0
 163 403 170 404 197 404 c 2
 254 404 l 1
 254 459 l 2
 254 558 332 638 428 638 c 0
 503 638 548 615 548 577 c 0
 548 547 527 524 500 524 c 0
 493 524 488 525 476 529 c 0
 460 535 445 538 427 538 c 0
 387 538 354 501 354 456 c 2
 354 404 l 1
EndSplineSet
Validated: 1
EndChar

StartChar: section
Encoding: 167 167 101
Width: 600
Flags: W
HStem: -170 88<81 366.306> 493 90<231.308 519>
VStem: 36 96<252.049 319.699> 132 85<402.038 478.401> 381 86<-67.1038 9.71728> 468 96<93.3942 158.535>
LayerCount: 2
Fore
SplineSet
519 492 m 17
 287 493 l 2
 248 493 217 469 217 440 c 0
 217 415 252 383 324 342 c 2
 416 291 l 2
 533 226 564 191 564 129 c 0
 564 68 527 25 462 10 c 1
 466 -7 467 -16 467 -28 c 0
 467 -63 454 -94 429 -123 c 0
 399 -156 365 -170 312 -170 c 2
 81 -170 l 1
 81 -82 l 17
 314 -82 l 2
 350 -82 381 -57 381 -29 c 0
 381 -3 347 29 276 69 c 2
 170 130 l 2
 71 187 36 226 36 283 c 0
 36 342 72 384 137 402 c 1
 133 414 132 420 132 432 c 0
 132 469 147 507 174 535 c 0
 205 569 241 583 294 583 c 2
 519 583 l 1
 519 492 l 17
371 214 m 2
 272 271 l 2
 238 290 228 297 192 326 c 1
 153 326 132 314 132 292 c 0
 132 266 159 239 218 205 c 2
 321 147 l 2
 374 114 390 103 407 88 c 1
 413 88 l 1
 424 88 l 2
 449 89 468 102 468 121 c 0
 468 144 433 178 371 214 c 2
EndSplineSet
Validated: 1
EndChar

StartChar: currency
Encoding: 164 164 102
Width: 600
Flags: HMW
HStem: 97 100<282 317.5> 388 100<282 318 282 326.5>
VStem: 106 100<274.5 310> 394 100<274.5 309.5 274.5 319>
LayerCount: 2
Fore
SplineSet
131 388 m 1
 98 420 l 2
 83 435 73 455 73 469 c 0
 73 496 96 519 124 519 c 0
 141 519 148 515 171 493 c 2
 203 462 l 1
 240 482 264 488 300 488 c 0
 336 488 360 481 397 461 c 1
 428 491 l 2
 450 513 458 517 475 517 c 0
 503 517 526 494 526 466 c 0
 526 449 522 442 500 420 c 2
 469 388 l 1
 488 351 494 327 494 292 c 0
 494 257 488 233 468 196 c 1
 501 162 l 2
 522 141 527 132 527 116 c 0
 527 88 503 64 475 64 c 0
 458 64 451 68 429 90 c 2
 395 122 l 1
 359 103 335 97 300 97 c 0
 264 97 241 103 204 123 c 1
 171 91 l 2
 148 68 141 64 124 64 c 0
 96 64 73 87 73 115 c 0
 73 132 77 139 99 162 c 2
 131 196 l 1
 112 233 106 257 106 292 c 0
 106 328 112 352 131 388 c 1
300 388 m 0
 248 388 206 346 206 293 c 0
 206 241 249 197 300 197 c 0
 351 197 394 241 394 292 c 0
 394 346 353 388 300 388 c 0
EndSplineSet
Validated: 1
EndChar

StartChar: quotesingle
Encoding: 39 39 103
Width: 600
Flags: HMW
HStem: 582 20<236 364 364 364>
LayerCount: 2
Fore
SplineSet
236 602 m 1
 364 602 l 1
 333 348 l 2
 329 322 321 312 301 312 c 0
 282 312 273 322 270 347 c 2
 236 602 l 1
EndSplineSet
Validated: 1
EndChar

StartChar: quotedblleft
Encoding: 8220 8220 104
Width: 600
Flags: HMW
HStem: 582 20<98 230 230 230 298 430 430 430>
LayerCount: 2
Fore
SplineSet
430 602 m 1
 499 395 l 2
 500 390 502 381 502 376 c 0
 502 361 487 348 471 348 c 0
 458 348 450 354 439 372 c 2
 298 602 l 1
 430 602 l 1
230 602 m 1
 299 395 l 2
 300 390 302 381 302 376 c 0
 302 361 287 348 271 348 c 0
 258 348 250 354 239 372 c 2
 98 602 l 1
 230 602 l 1
EndSplineSet
Validated: 1
EndChar

StartChar: guillemotleft
Encoding: 171 171 105
Width: 600
Flags: HMW
HStem: 0 20<304.5 318 533.5 547>
LayerCount: 2
Fore
SplineSet
175 218 m 1
 326 77 l 2
 337 67 342 59 342 50 c 0
 342 34 327 20 309 20 c 0
 300 20 295 22 281 33 c 2
 33 218 l 1
 281 402 l 2
 295 413 300 415 310 415 c 0
 327 415 342 401 342 385 c 0
 342 376 338 368 326 358 c 2
 175 218 l 1
404 218 m 1
 555 77 l 2
 566 67 571 59 571 50 c 0
 571 34 556 20 538 20 c 0
 529 20 524 22 510 33 c 2
 262 218 l 1
 510 402 l 2
 524 413 529 415 539 415 c 0
 556 415 571 401 571 385 c 0
 571 376 567 368 555 358 c 2
 404 218 l 1
EndSplineSet
Validated: 1
EndChar

StartChar: guilsinglleft
Encoding: 8249 8249 106
Width: 600
Flags: HMW
HStem: 0 20<304.5 318>
LayerCount: 2
Fore
SplineSet
175 218 m 1
 326 77 l 2
 337 67 342 59 342 50 c 0
 342 34 327 20 309 20 c 0
 300 20 295 22 281 33 c 2
 33 218 l 1
 281 402 l 2
 295 413 300 415 310 415 c 0
 327 415 342 401 342 385 c 0
 342 376 338 368 326 358 c 2
 175 218 l 1
EndSplineSet
Validated: 1
EndChar

StartChar: guilsinglright
Encoding: 8250 8250 107
Width: 600
Flags: HMW
HStem: 0 20<286.5 300>
LayerCount: 2
Fore
SplineSet
430 217 m 1
 279 358 l 2
 268 368 263 376 263 385 c 0
 263 401 278 415 296 415 c 0
 305 415 310 413 324 402 c 2
 571 217 l 1
 324 33 l 2
 310 22 305 20 295 20 c 0
 278 20 263 34 263 50 c 0
 263 59 267 67 279 77 c 2
 430 217 l 1
EndSplineSet
Validated: 1
EndChar

StartChar: fi
Encoding: 64257 64257 108
Width: 600
Flags: W
HStem: 0 21G<95 195 417 517> 337 100<14.4205 95 195 269.623 355.421 417> 524 99<202.569 314.285 382 500>
VStem: 95 100<0 337 437 516.531> 331 186<347.426 428.682> 382 118<519 624> 417 100<0 337>
LayerCount: 2
Fore
SplineSet
195 0 m 9xf0
 95 0 l 17
 95 337 l 1
 57 337 l 2
 31 337 21 339 11 347 c 0
 -2 356 -10 371 -10 387 c 0
 -10 404 -1 421 14 430 c 0
 23 436 30 437 57 437 c 2
 95 437 l 1
 95 476 l 2
 95 558 155 623 231 623 c 0
 267 623 310 612 330 599 c 0
 344 590 352 575 352 559 c 0
 352 531 330 508 303 508 c 0
 294 508 290 509 273 515 c 0
 257 521 244 524 234 524 c 0
 213 524 195 502 195 476 c 2
 195 437 l 1
 228 437 l 2
 255 437 263 435 273 428 c 0
 286 418 294 403 294 387 c 0
 294 370 285 354 270 344 c 0
 262 339 251 337 228 337 c 2
 195 337 l 1
 195 0 l 9xf0
417 0 m 17xf2
 417 337 l 1xf2
 397 337 l 2
 372 337 362 339 352 347 c 0
 339 356 331 371 331 387 c 0xf8
 331 404 340 421 355 430 c 0
 364 436 371 437 397 437 c 2
 517 437 l 1
 517 0 l 9
 417 0 l 17xf2
500 624 m 1xf4
 500 519 l 1
 382 519 l 1
 382 624 l 1
 500 624 l 1xf4
EndSplineSet
Validated: 1
LCarets2: 1 0 
Ligature2: "'liga' Standard Ligatures in Latin lookup 0 subtable" f i
EndChar

StartChar: fl
Encoding: 64258 64258 109
Width: 595
Flags: W
HStem: 0 21G<154 254 425 525> 337 100<74.4205 154 254 328.623> 523 100<260.326 425>
VStem: 154 100<0 337 437 518.862> 425 100<0 523>
LayerCount: 2
Fore
SplineSet
294 523 m 0
 269 523 254 505 254 475 c 2
 254 437 l 1
 287 437 l 2
 314 437 322 435 332 428 c 0
 345 418 353 403 353 387 c 0
 353 370 344 354 329 344 c 0
 321 339 310 337 287 337 c 2
 254 337 l 1
 254 0 l 9
 154 0 l 17
 154 337 l 1
 117 337 l 2
 91 337 81 339 71 347 c 0
 58 356 50 371 50 387 c 0
 50 404 59 421 74 430 c 0
 83 436 90 437 117 437 c 2
 154 437 l 1
 154 475 l 2
 154 557 214 623 287 623 c 0
 395 623 l 2
 525 623 l 1
 525 0 l 9
 425 0 l 17
 425 523 l 1
 391 523 l 2
 294 523 l 0
EndSplineSet
LCarets2: 1 0 
Ligature2: "'liga' Standard Ligatures in Latin lookup 0 subtable" f l
EndChar

StartChar: endash
Encoding: 8211 8211 110
Width: 600
Flags: HMW
HStem: 229 100<95.5 492 108 492>
LayerCount: 2
Fore
SplineSet
492 229 m 2
 108 229 l 2
 83 229 72 231 63 238 c 0
 50 248 42 263 42 279 c 0
 42 296 51 312 66 322 c 0
 75 328 83 329 108 329 c 2
 492 329 l 2
 518 329 528 327 538 320 c 0
 551 310 558 295 558 279 c 0
 558 262 549 245 534 236 c 0
 526 231 514 229 492 229 c 2
EndSplineSet
Validated: 1
EndChar

StartChar: dagger
Encoding: 8224 8224 111
Width: 600
Flags: HMW
HStem: 337 100<147 250 160 250 350 439>
VStem: 250 100<-26 337 437 556>
LayerCount: 2
Fore
SplineSet
350 337 m 1
 350 -26 l 2
 350 -53 348 -61 341 -71 c 0
 331 -84 316 -92 300 -92 c 0
 283 -92 267 -83 257 -68 c 0
 252 -60 250 -49 250 -26 c 2
 250 337 l 1
 160 337 l 2
 134 337 124 339 114 346 c 0
 102 356 94 371 94 387 c 0
 94 404 103 421 118 430 c 0
 127 436 135 437 160 437 c 2
 250 437 l 1
 250 556 l 2
 250 582 252 592 260 601 c 0
 269 614 284 622 300 622 c 0
 317 622 334 613 343 598 c 0
 349 589 350 582 350 556 c 2
 350 437 l 1
 439 437 l 2
 467 437 475 435 485 428 c 0
 498 418 506 403 506 387 c 0
 506 370 497 354 482 344 c 0
 473 339 463 337 439 337 c 2
 350 337 l 1
EndSplineSet
Validated: 1
EndChar

StartChar: daggerdbl
Encoding: 8225 8225 112
Width: 600
Flags: HMW
HStem: 93 100<146.5 250 160 250 350 439> 337 100<147 250 160 250 350 439>
VStem: 250 100<-26 93 193 337 437 556>
LayerCount: 2
Fore
SplineSet
350 337 m 1
 350 193 l 1
 439 193 l 2
 465 193 475 191 485 184 c 0
 498 174 506 159 506 143 c 0
 506 126 497 109 482 100 c 0
 473 94 464 93 439 93 c 2
 350 93 l 1
 350 -26 l 2
 350 -54 348 -61 341 -71 c 0
 331 -84 316 -92 300 -92 c 0
 283 -92 267 -83 257 -68 c 0
 252 -60 250 -49 250 -26 c 2
 250 93 l 1
 160 93 l 2
 133 93 125 95 114 102 c 0
 102 112 94 127 94 143 c 0
 94 160 103 177 118 186 c 0
 126 191 137 193 160 193 c 2
 250 193 l 1
 250 337 l 1
 160 337 l 2
 134 337 124 339 114 346 c 0
 102 356 94 371 94 387 c 0
 94 404 103 421 118 430 c 0
 127 436 135 437 160 437 c 2
 250 437 l 1
 250 556 l 2
 250 582 252 592 260 601 c 0
 269 614 284 622 300 622 c 0
 317 622 334 613 343 598 c 0
 349 589 350 582 350 556 c 2
 350 437 l 1
 439 437 l 2
 467 437 475 435 485 428 c 0
 498 418 506 403 506 387 c 0
 506 370 497 354 482 344 c 0
 473 339 463 337 439 337 c 2
 350 337 l 1
EndSplineSet
Validated: 1
EndChar

StartChar: periodcentered
Encoding: 183 183 113
Width: 600
Flags: W
HStem: 214 132<242.303 358.047>
VStem: 225 150<232.025 327.975>
LayerCount: 2
Fore
SplineSet
309 214 m 2
 291 214 l 2
 255 214 225 244 225 280 c 0
 225 316 255 346 291 346 c 2
 309 346 l 2
 346 346 375 317 375 280 c 0
 375 243 346 214 309 214 c 2
EndSplineSet
Validated: 1
EndChar

StartChar: paragraph
Encoding: 182 182 114
Width: 600
Flags: HMW
HStem: -174 78<173.5 270 191 270 191 328 468 504> 505 78<348 392 348 348 468 468 468 502>
VStem: 49 113<361 405 338.5 407 338.5 455.5> 270 78<-96 185 185 185 266 500 500 500> 392 76<-96 505 -96 505>
LayerCount: 2
Fore
SplineSet
270 -174 m 17
 270 185 l 1
 141 198 49 272 49 361 c 2
 49 407 l 2
 49 504 163 583 305 583 c 2
 502 583 l 2
 538 583 556 570 556 544 c 0
 556 518 539 505 502 505 c 2
 468 505 l 1
 468 -174 l 9
 392 -174 l 17
 392 505 l 1
 348 505 l 1
 348 -174 l 9
 270 -174 l 17
270 266 m 1
 270 500 l 1
 203 486 162 450 162 405 c 2
 162 361 l 2
 162 316 203 280 270 266 c 1
EndSplineSet
Validated: 1
EndChar

StartChar: bullet
Encoding: 8226 8226 115
Width: 600
Flags: HMW
HStem: 433 20<258 341>
LayerCount: 2
Fore
SplineSet
299 453 m 0
 383 453 449 387 449 302 c 0
 449 221 381 154 299 154 c 0
 217 154 150 221 150 304 c 0
 150 386 217 453 299 453 c 0
EndSplineSet
Validated: 1
EndChar

StartChar: quotesinglbase
Encoding: 8218 8218 116
Width: 600
Flags: W
HStem: -158 292
VStem: 147 204
LayerCount: 2
Fore
SplineSet
219 134 m 1
 351 134 l 1
 210 -134 l 2
 202 -150 190 -158 178 -158 c 0
 161 -158 147 -145 147 -130 c 0
 147 -124 147 -122 150 -111 c 2
 219 134 l 1
EndSplineSet
Validated: 1
EndChar

StartChar: quotedblbase
Encoding: 8222 8222 117
Width: 600
Flags: W
HStem: -120 254
LayerCount: 2
Fore
SplineSet
159 134 m 1
 291 134 l 1
 150 -96 l 2
 139 -114 131 -120 118 -120 c 0
 102 -120 87 -107 87 -92 c 0
 87 -87 88 -79 90 -73 c 2
 159 134 l 1
359 134 m 1
 491 134 l 1
 350 -96 l 2
 339 -114 331 -120 318 -120 c 0
 302 -120 287 -107 287 -92 c 0
 287 -87 288 -79 290 -73 c 2
 359 134 l 1
EndSplineSet
Validated: 1
EndChar

StartChar: quotedblright
Encoding: 8221 8221 118
Width: 600
Flags: HMW
HStem: 582 20<159 291 291 291 359 491 491 491>
LayerCount: 2
Fore
SplineSet
159 602 m 1
 291 602 l 1
 150 372 l 2
 139 354 131 348 118 348 c 0
 102 348 87 361 87 376 c 0
 87 381 88 389 90 395 c 2
 159 602 l 1
359 602 m 1
 491 602 l 1
 350 372 l 2
 339 354 331 348 318 348 c 0
 302 348 287 361 287 376 c 0
 287 381 288 389 290 395 c 2
 359 602 l 1
EndSplineSet
Validated: 1
EndChar

StartChar: guillemotright
Encoding: 187 187 119
Width: 600
Flags: HMW
HStem: 0 20<56.5 70 286.5 300>
LayerCount: 2
Fore
SplineSet
430 217 m 1
 279 358 l 2
 268 368 263 376 263 385 c 0
 263 401 278 415 296 415 c 0
 305 415 310 413 324 402 c 2
 571 217 l 1
 324 33 l 2
 310 22 305 20 295 20 c 0
 278 20 263 34 263 50 c 0
 263 59 267 67 279 77 c 2
 430 217 l 1
200 217 m 1
 49 358 l 2
 38 368 33 376 33 385 c 0
 33 401 48 415 66 415 c 0
 75 415 80 413 94 402 c 2
 341 217 l 1
 94 33 l 2
 80 22 75 20 65 20 c 0
 48 20 33 34 33 50 c 0
 33 59 37 67 49 77 c 2
 200 217 l 1
EndSplineSet
Validated: 1
EndChar

StartChar: ellipsis
Encoding: 8230 8230 120
Width: 600
Flags: HMW
HStem: -15 20
LayerCount: 2
Fore
SplineSet
109 -15 m 2
 91 -15 l 2
 55 -15 25 15 25 51 c 0
 25 87 55 117 91 117 c 2
 109 117 l 2
 146 117 175 88 175 51 c 0
 175 14 146 -15 109 -15 c 2
309 -15 m 2
 291 -15 l 2
 255 -15 225 15 225 51 c 0
 225 87 255 117 291 117 c 2
 309 117 l 2
 346 117 375 88 375 51 c 0
 375 14 346 -15 309 -15 c 2
509 -15 m 2
 491 -15 l 2
 455 -15 425 15 425 51 c 0
 425 87 455 117 491 117 c 2
 509 117 l 2
 546 117 575 88 575 51 c 0
 575 14 546 -15 509 -15 c 2
EndSplineSet
Validated: 1
EndChar

StartChar: perthousand
Encoding: 8240 8240 121
Width: 600
Flags: W
HStem: 0 58<169.065 258.563 439.065 528.563> 174 58<169.065 257.832 439.065 527.832> 386 58<71.0649 160.563> 560 58<71.0649 159.832>
VStem: 0 58<457.065 546.935> 98 58<71.0649 160.935> 174 58<458.107 546.682> 272 58<72.1074 160.682> 368 58<71.0649 160.935> 542 58<72.1074 160.682>
LayerCount: 2
Fore
SplineSet
469 377 m 2
 104 259 l 2
 92 255 90 255 85 255 c 0
 70 255 56 271 56 288 c 0
 56 303 64 312 85 319 c 2
 450 436 l 2
 462 440 464 440 469 440 c 0
 484 440 498 425 498 408 c 0
 498 392 490 384 469 377 c 2
116 618 m 0
 181 618 232 566 232 501 c 0
 232 438 179 386 116 386 c 0
 52 386 0 438 0 502 c 0
 0 566 52 618 116 618 c 0
116 560 m 0
 84 560 58 534 58 502 c 0
 58 470 84 444 116 444 c 0
 147 444 174 470 174 501 c 0
 174 534 148 560 116 560 c 0
214 232 m 0
 279 232 330 180 330 115 c 0
 330 52 277 0 214 0 c 0
 150 0 98 52 98 116 c 0
 98 180 150 232 214 232 c 0
214 174 m 0
 182 174 156 148 156 116 c 0
 156 84 182 58 214 58 c 0
 245 58 272 84 272 115 c 0
 272 148 246 174 214 174 c 0
484 232 m 0
 549 232 600 180 600 115 c 0
 600 52 547 0 484 0 c 0
 420 0 368 52 368 116 c 0
 368 180 420 232 484 232 c 0
484 174 m 0
 452 174 426 148 426 116 c 0
 426 84 452 58 484 58 c 0
 515 58 542 84 542 115 c 0
 542 148 516 174 484 174 c 0
EndSplineSet
Validated: 1
EndChar

StartChar: questiondown
Encoding: 191 191 122
Width: 600
Flags: HMW
HStem: -227 100<259 310 259 324> -23 20
VStem: 83 100<-68 -21.5 -68 2.5>
LayerCount: 2
Fore
SplineSet
496 -168 m 1
 399 -215 356 -227 292 -227 c 0
 168 -227 83 -150 83 -38 c 0
 83 43 126 90 247 143 c 1
 251 179 268 197 297 197 c 0
 314 197 331 188 340 173 c 0
 345 164 347 154 347 131 c 2
 347 75 l 1
 219 26 183 0 183 -43 c 0
 183 -93 227 -127 291 -127 c 0
 329 -127 363 -119 396 -103 c 1
 496 -168 l 1
289 386 m 2
 306 386 l 2
 343 386 373 356 373 320 c 0
 373 284 343 254 306 254 c 2
 289 254 l 2
 252 254 223 283 223 320 c 0
 223 357 252 386 289 386 c 2
EndSplineSet
Validated: 1
EndChar

StartChar: grave
Encoding: 96 96 123
Width: 600
Flags: W
HStem: 496 200
VStem: 125 225
LayerCount: 2
Fore
SplineSet
194 680 m 2
 327 569 l 2
 343 556 350 545 350 532 c 0
 350 513 333 496 313 496 c 0
 303 496 296 500 281 512 c 2
 148 624 l 2
 131 637 125 647 125 660 c 0
 125 680 141 696 162 696 c 0
 173 696 178 693 194 680 c 2
EndSplineSet
Validated: 1
EndChar

StartChar: acute
Encoding: 180 180 124
Width: 600
Flags: W
HStem: 496 200
VStem: 250 225
LayerCount: 2
Fore
SplineSet
452 624 m 2
 319 512 l 2
 304 500 297 496 287 496 c 0
 267 496 250 513 250 532 c 0
 250 545 257 556 273 569 c 2
 406 680 l 2
 422 693 427 696 438 696 c 0
 459 696 475 680 475 659 c 0
 475 647 469 637 452 624 c 2
EndSplineSet
Validated: 1
EndChar

StartChar: circumflex
Encoding: 710 710 125
Width: 600
Flags: W
HStem: 497 199
LayerCount: 2
Fore
SplineSet
301 607 m 1
 188 510 l 2
 177 501 169 497 160 497 c 0
 141 497 125 514 125 532 c 0
 125 546 127 549 149 567 c 2
 301 696 l 1
 452 567 l 2
 455 565 459 562 461 560 c 0
 472 551 476 543 476 532 c 0
 476 514 460 497 442 497 c 0
 433 497 424 501 413 510 c 2
 301 607 l 1
EndSplineSet
Validated: 1
EndChar

StartChar: tilde
Encoding: 732 732 126
Width: 600
Flags: W
HStem: 523 69<322.226 404.677> 587 69<191.25 277.583>
LayerCount: 2
Fore
SplineSet
453 656 m 0x40
 470 656 485 642 485 628 c 0
 485 613 477 598 456 571 c 0
 429 537 405 523 376 523 c 0x80
 354 523 321 537 277 566 c 0
 250 584 241 587 227 587 c 0
 209 587 201 580 172 541 c 0
 164 530 156 526 146 526 c 0
 129 526 115 540 115 556 c 0
 115 570 125 590 142 611 c 0
 167 640 196 656 225 656 c 0x40
 248 656 265 649 315 618 c 0
 349 598 362 592 373 592 c 0x80
 388 592 392 596 414 626 c 0
 428 646 441 656 453 656 c 0x40
EndSplineSet
Validated: 1
EndChar

StartChar: macron
Encoding: 175 175 127
Width: 600
Flags: HMW
HStem: 546 80<165.5 422 178 422>
LayerCount: 2
Fore
SplineSet
178 626 m 2
 422 626 l 2
 445 626 457 623 464 615 c 0
 470 608 475 594 475 586 c 0
 475 561 455 546 422 546 c 2
 178 546 l 2
 153 546 145 548 136 558 c 0
 130 566 125 578 125 586 c 0
 125 611 144 626 178 626 c 2
EndSplineSet
Validated: 1
EndChar

StartChar: breve
Encoding: 728 728 128
Width: 600
Flags: HMW
HStem: 503 68<272.5 327.5 272.5 346>
LayerCount: 2
Fore
SplineSet
159 687 m 0
 179 687 186 678 193 647 c 0
 203 601 245 571 300 571 c 0
 355 571 397 601 407 647 c 0
 414 678 421 687 441 687 c 0
 461 687 475 672 475 649 c 0
 475 573 392 503 300 503 c 0
 208 503 125 573 125 649 c 0
 125 672 139 687 159 687 c 0
EndSplineSet
Validated: 1
EndChar

StartChar: dotaccent
Encoding: 729 729 129
Width: 600
Flags: W
HStem: 534 120<253.745 345.66>
VStem: 240 120<547.745 640.171>
LayerCount: 2
Fore
SplineSet
300 654 m 0
 334 654 360 627 360 593 c 0
 360 561 333 534 300 534 c 0
 267 534 240 561 240 594 c 0
 240 627 267 654 300 654 c 0
EndSplineSet
Validated: 1
EndChar

StartChar: dieresis
Encoding: 168 168 130
Width: 600
Flags: HMW
VStem: 136 120<577.5 610 577 610.5> 344 120<577.5 610 577 610.5>
LayerCount: 2
Fore
SplineSet
196 654 m 0
 230 654 256 627 256 593 c 0
 256 561 229 534 196 534 c 0
 163 534 136 561 136 594 c 0
 136 627 163 654 196 654 c 0
404 654 m 0
 438 654 464 627 464 593 c 0
 464 561 437 534 404 534 c 0
 371 534 344 561 344 594 c 0
 344 627 371 654 404 654 c 0
EndSplineSet
Validated: 1
EndChar

StartChar: ring
Encoding: 730 730 131
Width: 600
Flags: HMW
HStem: 486 54<281 318.5 281 333> 674 53<281 319>
VStem: 177 53<589 625 589 639.5> 370 53<588.5 624.5>
LayerCount: 2
Fore
SplineSet
300 727 m 0
 368 727 423 672 423 605 c 0
 423 541 366 486 300 486 c 0
 233 486 177 541 177 607 c 0
 177 672 233 727 300 727 c 0
300 674 m 0
 262 674 230 643 230 607 c 0
 230 571 262 540 300 540 c 0
 337 540 370 571 370 606 c 0
 370 643 338 674 300 674 c 0
EndSplineSet
Validated: 1
EndChar

StartChar: cedilla
Encoding: 184 184 132
Width: 600
Flags: HMW
HStem: -229 70<292.5 312.5 292.5 331> -100 100<281.5 301>
VStem: 262 70<-41 0 -41 0 -41 0> 337 70<-142 -123.5>
LayerCount: 2
Fore
SplineSet
262 0 m 1
 332 0 l 1
 332 -41 l 1
 383 -52 407 -81 407 -132 c 0
 407 -189 362 -229 300 -229 c 0
 273 -229 232 -218 208 -205 c 0
 189 -194 180 -182 180 -166 c 0
 180 -147 196 -131 215 -131 c 0
 223 -131 226 -132 244 -142 c 0
 262 -152 284 -159 301 -159 c 0
 324 -159 337 -150 337 -134 c 0
 337 -113 318 -100 284 -100 c 0
 279 -100 275 -100 262 -102 c 1
 262 0 l 1
EndSplineSet
Validated: 1
EndChar

StartChar: hungarumlaut
Encoding: 733 733 133
Width: 600
Flags: W
HStem: 496 198
LayerCount: 2
Fore
SplineSet
291 622 m 2
 189 512 l 2
 180 502 169 496 160 496 c 0
 142 496 125 514 125 533 c 0
 125 544 126 546 146 569 c 2
 248 679 l 2
 259 690 266 694 277 694 c 0
 295 694 311 677 311 658 c 0
 311 647 306 638 291 622 c 2
455 622 m 2
 353 512 l 2
 343 502 333 496 324 496 c 0
 306 496 289 514 289 533 c 0
 289 544 290 546 310 569 c 2
 412 679 l 2
 422 690 430 694 441 694 c 0
 459 694 475 677 475 658 c 0
 475 647 470 638 455 622 c 2
EndSplineSet
Validated: 1
EndChar

StartChar: ogonek
Encoding: 731 731 134
Width: 600
Flags: HMW
HStem: -208 76<343.5 357 343.5 357.5>
VStem: 250 77<-118.5 -96 -118.5 -94.5>
LayerCount: 2
Fore
SplineSet
329 0 m 1
 427 0 l 1
 354 -49 327 -80 327 -112 c 0
 327 -125 336 -132 351 -132 c 0
 363 -132 373 -128 402 -114 c 0
 412 -109 417 -108 424 -108 c 0
 446 -108 463 -125 463 -146 c 0
 463 -164 452 -178 428 -189 c 0
 401 -201 371 -208 344 -208 c 0
 286 -208 250 -174 250 -119 c 0
 250 -70 272 -36 329 0 c 1
EndSplineSet
Validated: 1
EndChar

StartChar: caron
Encoding: 711 711 135
Width: 600
Flags: HMW
HStem: 566 20<301 301>
LayerCount: 2
Fore
SplineSet
301 586 m 1
 413 682 l 2
 425 693 432 696 442 696 c 0
 460 696 476 679 476 660 c 0
 476 649 472 641 461 632 c 2
 452 625 l 1
 301 497 l 1
 149 625 l 2
 127 643 125 647 125 660 c 0
 125 679 141 696 160 696 c 0
 169 696 175 693 188 682 c 2
 301 586 l 1
EndSplineSet
Validated: 1
EndChar

StartChar: emdash
Encoding: 8212 8212 136
Width: 600
Flags: HMW
HStem: 229 100<24.5 563 37 563>
LayerCount: 2
Fore
SplineSet
563 229 m 2
 37 229 l 2
 12 229 1 231 -8 238 c 0
 -21 248 -29 264 -29 279 c 0
 -29 296 -20 313 -5 322 c 0
 4 328 12 329 37 329 c 2
 563 329 l 2
 589 329 599 327 608 320 c 0
 622 310 629 295 629 279 c 0
 629 262 620 245 605 236 c 0
 597 231 585 229 563 229 c 2
EndSplineSet
Validated: 1
EndChar

StartChar: AE
Encoding: 198 198 137
Width: 600
Flags: W
HStem: 0 100<367 614> 158 101<203 267> 243 99<367 486> 483 100<367 593>
VStem: 267 100<100 158 342 471>
LayerCount: 2
Fore
SplineSet
198 583 m 9xd8
 593 583 l 1
 593 483 l 17
 367 483 l 1
 367 342 l 1
 486 342 l 9
 486 243 l 17
 367 243 l 1xb8
 367 100 l 1
 614 100 l 9
 614 0 l 1
 267 0 l 17
 267 158 l 1
 174 158 l 1
 128 0 l 9
 23 0 l 17
 198 583 l 9xd8
267 259 m 1xd8
 267 471 l 1
 203 259 l 1
 267 259 l 1xd8
EndSplineSet
Validated: 1
EndChar

StartChar: ordfeminine
Encoding: 170 170 138
Width: 600
Flags: HMW
HStem: 182 77<154 431 176 431 431 432> 273 79<239.5 265.5> 417 70<267 297.5> 517 78<284.5 316.5>
VStem: 118 91<367.5 379.5> 354 78<383 410 410 410 482 490>
LayerCount: 2
Fore
SplineSet
354 284 m 1
 354 295 l 1
 314 279 285 273 246 273 c 0
 175 273 118 316 118 369 c 0
 118 390 129 415 146 434 c 0
 178 470 225 487 292 487 c 0
 312 487 325 486 354 482 c 1
 354 490 l 2
 354 509 337 517 296 517 c 0
 273 517 249 514 217 506 c 0
 206 503 195 501 189 501 c 0
 168 501 151 519 151 541 c 0
 151 557 160 569 175 575 c 0
 209 587 257 595 292 595 c 0
 381 595 432 557 432 490 c 2
 432 362 l 1
 438 362 l 2
 473 362 489 350 489 323 c 0
 489 298 472 284 439 284 c 2
 354 284 l 1
354 383 m 1
 354 410 l 1
 322 416 307 417 288 417 c 0
 246 417 209 397 209 374 c 0
 209 361 227 352 252 352 c 0
 284 352 328 365 354 383 c 1
432 182 m 2
 176 182 l 2
 132 182 124 189 124 227 c 0
 124 252 135 259 176 259 c 2
 431 259 l 2
 467 259 483 247 483 221 c 0
 483 195 466 182 432 182 c 2
EndSplineSet
Validated: 1
EndChar

StartChar: Lslash
Encoding: 321 321 139
Width: 555
Flags: HMW
HStem: 0 100<-9 70 13 70 170 385> 483 100<0.5 227 13 70 170 227 170 170>
VStem: 70 100<100 203 203 203 359 483> 385 100<100 191 0 204.5>
LayerCount: 2
Fore
SplineSet
170 359 m 1
 258 411 l 2
 276.901 422.169 287 426 299 426 c 0
 324 426 346 402 346 376 c 0
 346 353 338.873 341.407 307 325 c 2
 70 203 l 1
 16 171 l 2
 -0.232422 161.381 -15 156 -26 156 c 0
 -51 156 -74 180 -74 207 c 0
 -74 229 -66.9043 241.709 -34 258 c 2
 170 359 l 1
EndSplineSet
Refer: 44 76 S 1 0 0 1 0 0 2
Validated: 5
EndChar

StartChar: Oslash
Encoding: 216 216 140
Width: 600
Flags: HMW
HStem: -14 100<286.5 348.5 286.5 377> 497 100<250 314.5>
VStem: 20 100<270 348 270 376> 479 100<234.5 309>
LayerCount: 2
Fore
SplineSet
159 28 m 1
 105 -40 l 2
 85 -65 77 -70 58 -70 c 0
 31 -70 9 -49 9 -23 c 0
 9 -10 13 -2 30 19 c 2
 87 92 l 1
 42 151 20 214 20 292 c 0
 20 460 145 597 300 597 c 0
 352 597 401 581 449 549 c 1
 495 607 l 2
 514 632 523 638 542 638 c 0
 568 638 590 616 590 590 c 0
 590 577 586 569 570 548 c 2
 518 483 l 1
 559 429 579 364 579 291 c 0
 579 123 454 -14 300 -14 c 0
 251 -14 202 1 159 28 c 1
452 400 m 1
 221 107 l 1
 246 93 273 86 300 86 c 0
 397 86 479 179 479 290 c 0
 479 328 469 369 452 400 c 1
152 174 m 1
 387 471 l 1
 358 488 330 497 299 497 c 0
 201 497 120 404 120 292 c 0
 120 248 130 211 152 174 c 1
EndSplineSet
Validated: 1
EndChar

StartChar: OE
Encoding: 338 338 141
Width: 600
Flags: W
HStem: 0 100<173.096 266 366 612> 243 99<366 484> 483 100<172.724 266 366 591>
VStem: -20 100<200.754 383.499> 266 100<100 243 342 483>
LayerCount: 2
Fore
SplineSet
484 243 m 17
 366 243 l 1
 366 100 l 1
 612 100 l 9
 612 0 l 1
 259 0 l 2
 97 0 -20 122 -20 292 c 0
 -20 461 96 583 259 583 c 2
 593 583 l 1
 591 483 l 17
 366 483 l 1
 366 342 l 1
 484 342 l 9
 484 243 l 17
266 100 m 1
 266 483 l 1
 215 482 185 474 155 452 c 0
 110 419 80 354 80 291 c 0
 80 224 115 155 166 124 c 0
 194 107 220 100 266 100 c 1
EndSplineSet
Validated: 1
EndChar

StartChar: ordmasculine
Encoding: 186 186 142
Width: 600
Flags: HMW
HStem: 182 77<156.5 428 174 428> 273 78<277 325 277 347.5> 517 78<276.5 325.5>
VStem: 131 79<409 453.5 409 475> 392 79<409 453.5>
LayerCount: 2
Fore
SplineSet
301 595 m 0
 396 595 471 521 471 428 c 0
 471 343 394 273 301 273 c 0
 207 273 131 343 131 430 c 0
 131 520 208 595 301 595 c 0
301 517 m 0
 252 517 210 477 210 430 c 0
 210 388 253 351 301 351 c 0
 349 351 392 388 392 430 c 0
 392 477 350 517 301 517 c 0
428 182 m 2
 174 182 l 2
 139 182 122 195 122 221 c 0
 122 233 129 246 140 253 c 0
 148 258 153 259 174 259 c 2
 428 259 l 2
 464 259 480 247 480 221 c 0
 480 195 463 182 428 182 c 2
EndSplineSet
Validated: 1
EndChar

StartChar: ae
Encoding: 230 230 143
Width: 600
Flags: W
HStem: -16 100<103.203 222.681 390.582 519.719> -1 21G<297.5 313> 172 86<362 502> 197 89<107.3 253.857> 350 100<114.933 247.217 388.655 476.596>
VStem: -13 101<98.0472 172.866>
LayerCount: 2
Fore
SplineSet
611 172 m 1x2c
 360 172 l 1
 377 109 400 84 441 84 c 0
 463 84 482 89 509 101 c 0
 538 113 553 118 566 118 c 0
 592 118 612 96 612 66 c 0
 612 47 603 32 587 22 c 0
 552 0 489 -16 442 -16 c 0xac
 402 -16 379 -9 342 16 c 1
 333 5 321 -1 305 -1 c 0x4c
 290 -1 279 5 269 16 c 1
 232 -7 202 -16 159 -16 c 0
 55 -16 -13 48 -13 145 c 0
 -13 189 3 216 45 242 c 0
 85 268 148 286 195 286 c 0x9c
 210 286 229 284 255 281 c 1
 255 301 l 2
 255 329 235 350 207 350 c 0
 190 350 181 348 117 329 c 0
 108 326 100 325 94 325 c 0
 68 325 46 348 46 376 c 0
 46 401 60 417 87 426 c 0
 124 438 182 450 207 450 c 0
 253 450 288 433 323 394 c 1
 359 433 393 450 435 450 c 0
 482 450 528 426 563 381 c 0
 594 341 611 285 611 218 c 2
 611 172 l 1x2c
255 130 m 1
 255 189 l 1
 232 195 216 197 199 197 c 0x9c
 162 197 121 186 101 171 c 0
 93 164 88 154 88 142 c 0
 88 107 116 84 158 84 c 0
 189 84 215 96 255 130 c 1
362 258 m 1x2c
 502 258 l 1
 498 285 495 299 487 313 c 0
 476 335 454 350 432 350 c 0
 409 350 386 333 375 307 c 0
 369 294 366 281 362 258 c 1x2c
EndSplineSet
Validated: 1
EndChar

StartChar: dotlessi
Encoding: 305 305 144
Width: 600
Flags: HMW
HStem: 0 100<116.5 250 128 250 350 472> 337 100<159.5 350 172 250>
VStem: 250 100<100 337 337 337>
LayerCount: 2
Fore
SplineSet
250 0 m 1
 250 337 l 1
 172 337 l 2
 147 337 135 339 126 347 c 0
 113 356 105 371 105 387 c 0
 105 404 114 421 129 430 c 0
 138 436 146 437 172 437 c 2
 350 437 l 1xe8
 350 0 l 1
 250 0 l 1
EndSplineSet
Validated: 1
EndChar

StartChar: lslash
Encoding: 322 322 145
Width: 600
Flags: HMW
HStem: 0 100<116.5 250 128 250 350 472> 524 100<162 350 175 250>
VStem: 250 100<100 243 243 243 399 524 524 524>
LayerCount: 2
Fore
SplineSet
250 0 m 17
 250 243 l 1
 216 223 l 2
 199 213 186 209 176 209 c 0
 150 209 127 233 127 260 c 0
 127 282 136 294 167 312 c 2
 250 359 l 1
 250 524 l 1
 175 524 l 2
 149 524 138 526 129 534 c 0
 116 543 108 559 108 574 c 0
 108 591 117 608 132 617 c 0
 141 623 150 624 175 624 c 2
 350 624 l 1
 350 399 l 1
 385 419 l 2
 406 432 413 435 425 435 c 0
 451 435 474 411 474 383 c 0
 474 361 464 348 435 332 c 2
 350 283 l 1
 350 0 l 9
 250 0 l 17
EndSplineSet
Validated: 1
EndChar

StartChar: oslash
Encoding: 248 248 146
Width: 600
Flags: HMW
HStem: -16 100<289 344 289 372> 350 100<255.5 309.5>
VStem: 42 100<204.5 254.5 204.5 282> 458 100<179.5 229>
LayerCount: 2
Fore
SplineSet
548 402 m 2
 506 359 l 1
 540 316 558 267 558 217 c 0
 558 87 444 -16 300 -16 c 0
 255 -16 213 -6 172 14 c 1
 116 -44 l 2
 95 -65 87 -70 71 -70 c 0
 44 -70 23 -49 23 -22 c 0
 23 -7 28 2 48 22 c 2
 96 72 l 1
 62 114 42 167 42 217 c 0
 42 347 156 450 298 450 c 0
 342 450 398 437 432 419 c 1
 480 468 l 2
 501 489 509 494 526 494 c 0
 552 494 573 473 573 447 c 0
 573 430 569 422 548 402 c 2
436 286 m 1
 247 91 l 1
 265 86 279 84 299 84 c 0
 389 84 458 142 458 217 c 0
 458 241 450 264 436 286 c 1
167 145 m 1
 357 342 l 1
 336 347 319 350 300 350 c 0
 211 350 142 292 142 217 c 0
 142 192 150 168 167 145 c 1
EndSplineSet
Validated: 1
EndChar

StartChar: oe
Encoding: 339 339 147
Width: 600
Flags: HMW
HStem: -16 100<149.5 195 149.5 196 422.5 458> 171 86<363 504 363 612 360 504> 349 101<149.5 195.5 422.5 444.5>
VStem: -11 100<180 252.5 180 278.5>
LayerCount: 2
Fore
SplineSet
612 171 m 1
 360 171 l 1
 373 113 401 84 444 84 c 0
 472 84 485 88 540 112 c 0
 548 115 556 117 564 117 c 0
 591 117 613 94 613 65 c 0
 613 41 603 28 576 14 c 0
 543 -2 478 -16 438 -16 c 0
 381 -16 338 8 303 58 c 1
 268 10 221 -16 171 -16 c 0
 70 -16 -11 86 -11 212 c 0
 -11 345 69 450 170 450 c 0
 222 450 265 424 303 370 c 1
 338 423 383 450 436 450 c 0
 480 450 522 429 557 389 c 0
 593 349 612 288 612 216 c 2
 612 171 l 1
172 349 m 0
 127 349 89 289 89 216 c 0
 89 144 127 84 172 84 c 0
 218 84 256 143 256 215 c 0
 256 290 219 349 172 349 c 0
363 257 m 1
 504 257 l 1
 499 283 494 297 488 310 c 0
 476 334 455 349 434 349 c 0
 411 349 390 333 378 306 c 0
 373 294 369 282 363 257 c 1
EndSplineSet
Validated: 1
EndChar

StartChar: germandbls
Encoding: 223 223 148
Width: 600
Flags: W
HStem: -16 100<354.582 415.211> 0 21G<95 195> 303 99<231.299 330.338> 523 100<209.455 327.048>
VStem: 95 100<0 508.635> 255 97<87.8469 141.676> 346 100<417.743 503.786> 429 100<95.0067 235.981>
LayerCount: 2
Fore
SplineSet
95 0 m 17x7a
 95 478 l 2
 95 563 167 623 268 623 c 0
 369 623 446 551 446 456 c 0x7a
 446 419 438 397 411 365 c 1
 488 320 529 249 529 165 c 0
 529 57 467 -16 374 -16 c 0
 305 -16 255 31 255 97 c 0
 255 134 274 156 305 156 c 0
 318 156 332 151 340 142 c 0
 346 135 347 134 352 113 c 0
 356 94 366 84 382 84 c 0
 410 84 429 116 429 164 c 0xbd
 429 200 414 234 388 259 c 0
 361 285 330 297 278 303 c 0
 241 307 223 323 223 353 c 0
 223 381 242 399 276 402 c 0
 302 405 310 407 321 415 c 0
 337 425 346 442 346 459 c 0
 346 496 314 523 268 523 c 0
 221 523 195 502 195 461 c 2
 195 0 l 9
 95 0 l 17x7a
EndSplineSet
Validated: 1
EndChar

StartChar: Aogonek
Encoding: 260 260 156
Width: 600
Flags: HMW
HStem: -208 76<498.5 512 498.5 512.5> 0 100<33.5 45 45 46 155 178 416 439> 158 100<218 375 218 416 178 375> 430 20<297 297> 483 100<125 354 138 201>
VStem: 405 77<-118.5 -96 -118.5 -94>
LayerCount: 2
Fore
SplineSet
484 0 m 9
 478 0 l 17
 416 158 l 1
 178 158 l 1
 115 0 l 9
 6 0 l 17
 242 583 l 9
 354 583 l 1
 594 0.000976562 l 1
 594 0.000976562 581.771 -1.51787 570.796 -8 c 0
 520 -38 482 -80 482 -112 c 0
 482 -125 491 -132 506 -132 c 0
 518 -132 529 -128 557 -114 c 0
 567 -109 572 -108 579 -108 c 0
 601 -108 618 -125 618 -146 c 0
 618 -164 607 -178 583 -189 c 0
 556 -201 526 -208 499 -208 c 0
 441 -208 405 -174 405 -119 c 0
 405 -69 426 -38 484 0 c 9
375 258 m 1
 297 450 l 1
 218 258 l 1
 375 258 l 1
EndSplineSet
Validated: 1
EndChar

StartChar: Ccedilla
Encoding: 199 199 157
Width: 600
Flags: W
HStem: -229 70<240.075 341.609> -100 186<271.54 335.428> 497 100<223.899 401.888>
VStem: 33 100<168.419 400.438> 267 70<-48.0905 -12.431> 342 70<-157.297 -105.209> 450 99.277<388.482 456.81>
LayerCount: 2
Fore
SplineSet
309 497 m 0
 210.888 497 133 421 133 315 c 2
 133 251 l 2
 133 151 210 86 329 86 c 0
 375 86 415 94 440 109 c 0
 451 115 451 115 478 143 c 0
 489 154 501 159 514 159 c 0
 541 159 564 136 564 108 c 0
 564 82 535 48 491 23 c 0
 451 1 406 -10 337 -14 c 1
 337 -42 l 1
 388 -52 412 -81 412 -132 c 0
 412 -188 367 -229 307 -229 c 0
 272 -229 230 -217 203 -199 c 0
 192 -191 185 -179 185 -166 c 0
 185 -147 201 -131 220 -131 c 0
 228 -131 230 -132 249 -142 c 0
 267 -153 289 -159 306 -159 c 0
 329 -159 342 -150 342 -134 c 0
 342 -113 323 -100 292 -100 c 0
 288 -100 284 -100 267 -102 c 1
 267 -9 l 1
 208 3 174 16 137 43 c 0
 71 92 33 167 33 249 c 2
 33 315 l 2
 33 475 152.023 597 305 597 c 0
 362 597 393 589 447 563 c 0
 505.304 534.928 549.277 472.484 549.277 422.939 c 0
 549.277 410.165 546.354 398.249 540 388 c 0
 531.357 374.061 515 367 499 367 c 0
 486 367 472 373 464 381 c 0
 456 389 454 396 450 420 c 0
 445 444 435 457 406 473 c 0
 379 488 345 497 309 497 c 0
EndSplineSet
Validated: 1
EndChar

StartChar: Eogonek
Encoding: 280 280 167
Width: 600
Flags: W
HStem: -208 76<450.643 535.193> 0 100<194 452> 243 99<194 378> 483 100<194 528>
VStem: 94 100<100 243 342 483> 373 77<-131.727 -63.978>
LayerCount: 2
Fore
SplineSet
550 0 m 1
 477 -49 450 -80 450 -112 c 0
 450 -125 459 -132 474 -132 c 0
 487 -132 497 -129 526 -114 c 0
 536 -109 541 -108 548 -108 c 0
 570 -108 587 -125 587 -146 c 0
 587 -164 576 -178 552 -189 c 0
 525 -201 495 -208 467 -208 c 0
 409 -208 373 -174 373 -119 c 0
 373 -69 394 -38 452 0 c 1
 94 0 l 1
 94 583 l 1
 528 583 l 1
 528 483 l 1
 194 483 l 1
 194 342 l 1
 378 342 l 1
 378 243 l 17
 194 243 l 1
 194 100 l 1
 550 100 l 1
 550 0 l 1
EndSplineSet
Validated: 1
EndChar

StartChar: Iacute
Encoding: 205 205 170
Width: 600
Flags: HMW
HStem: 0 100<137 250 149 250 350 451> 483 100<136.5 451 149 250 350 451 350 350>
VStem: 250 100<100 483 100 483>
LayerCount: 2
Fore
SplineSet
350 0 m 1
 250 0 l 1
 250 584 l 1
 350 584 l 1
 350 0 l 1
EndSplineSet
Refer: 124 180 N 1 0 0 1 0 144 2
Validated: 1
EndChar

StartChar: Igrave
Encoding: 204 204 171
Width: 600
Flags: HMW
HStem: 0 100<137 250 149 250 350 451> 483 100<136.5 451 149 250 350 451 350 350>
VStem: 250 100<100 483 100 483>
LayerCount: 2
Fore
SplineSet
350 0 m 1
 250 0 l 1
 250 584 l 1
 350 584 l 1
 350 0 l 1
EndSplineSet
Refer: 123 96 N 1 0 0 1 26 144 2
Validated: 1
EndChar

StartChar: Icircumflex
Encoding: 206 206 172
Width: 600
Flags: HMW
HStem: 0 100<137 250 149 250 350 451> 483 100<136.5 451 149 250 350 451 350 350>
VStem: 250 100<100 483 100 483>
LayerCount: 2
Fore
SplineSet
350 0 m 1
 250 0 l 1
 250 584 l 1
 350 584 l 1
 350 0 l 1
EndSplineSet
Refer: 125 710 N 1 0 0 1 -1 143 2
Validated: 1
EndChar

StartChar: Idotaccent
Encoding: 304 304 173
Width: 600
Flags: HMW
HStem: 0 100<137 250 149 250 350 451> 483 100<136.5 451 149 250 350 451 350 350>
VStem: 250 100<100 483 100 483>
LayerCount: 2
Fore
SplineSet
300 798 m 0
 334 798 360 771 360 737 c 0
 360 705 333 678 300 678 c 0
 267 678 240 705 240 738 c 0
 240 771 267 798 300 798 c 0
350 0 m 1
 250 0 l 1
 250 584 l 1
 350 584 l 1
 350 0 l 1
EndSplineSet
Validated: 1
EndChar

StartChar: Nacute
Encoding: 323 323 176
Width: 598
Flags: HMW
HStem: 0 100<64 70 50.5 76 170 205> 483 100<42.5 170 55 70 393 428 528 536.5>
VStem: 70 100<100 394 100 483 100 483> 428 100<191 483 0 483>
LayerCount: 2
Fore
SplineSet
449 767 m 2
 316 656 l 2
 303 645 293 640 284 640 c 0
 264 640 247 657 247 676 c 0
 247 688 254 700 270 712 c 2
 403 824 l 2
 417 835 425 839 435 839 c 0
 456 839 472 823 472 803 c 0
 472 790 466 780 449 767 c 2
EndSplineSet
Refer: 46 78 N 1 0 0 1 0 0 2
Validated: 1
EndChar

StartChar: Sacute
Encoding: 346 346 187
Width: 556
Flags: HMW
HStem: -14 100<260 317 247 355.5> 497 100<245.5 302.5 215 308>
VStem: 60.0001 104<410.5 442.5 410.5 470.5> 412 104<140.5 172.5>
LayerCount: 2
Fore
SplineSet
430 767 m 2
 297 656 l 2
 284 645 274 640 265 640 c 0
 245 640 228 657 228 676 c 0
 228 688 235 700 251 712 c 2
 384 824 l 2
 398 835 406 839 416 839 c 0
 437 839 453 823 453 803 c 0
 453 790 447 780 430 767 c 2
EndSplineSet
Refer: 51 83 N 1 0 0 1 0 0 2
Validated: 1
EndChar

StartChar: Scedilla
Encoding: 350 350 189
Width: 600
Flags: HMW
HStem: -229 70<292.5 312.5 292.5 330.5> -100 186<281.5 300.5> 497 100<266.5 323.5 236.5 329.5>
VStem: 82 103<410.5 442.5 410.5 470.5> 262 70<-42 -13 -42 -11 -42 -11> 337 70<-142 -123.5> 434 104<140.5 172.5>
LayerCount: 2
Fore
SplineSet
71 179 m 0
 79.3679 193.106 96 199 112 199 c 0
 126 199 139 194 148 185 c 0
 155 178 155 178 162 151 c 0
 173 115 235 86 301 86 c 0
 376 86 434 119 434 162 c 0
 434 183 420 203 398 215 c 0
 376 226 361 230 293 242 c 0
 227 253 196 263 164 281 c 0
 113 310 82 363 82 420 c 0
 82 521 188.615 597 298 597 c 0
 360 597 378 589 428 564 c 0
 479.22 538.391 516.287 482.072 516.287 434.335 c 0
 516.287 420.922 513.361 408.187 507 397 c 0
 498.893 382.742 482 376 467 376 c 0
 453 376 439 382 431 390 c 0
 424 398 424 398 417 430 c 0
 408.293 468.696 354.665 497.097 303.194 497.097 c 0
 301.46 497.097 299.728 497.065 298 497 c 8
 245 495 185 464 185 421 c 0
 185 400 200 377 222 366 c 0
 242 356 248 354 322 340 c 0
 409 324 447 310 479 285 c 0
 519 253 538 212 538 160 c 0
 538 62 460 -4 332 -13 c 1
 332 -42 l 1
 383 -52 407 -81 407 -132 c 0
 407 -189 362 -229 299 -229 c 0
 273 -229 232 -218 208 -205 c 0
 189 -194 180 -182 180 -166 c 0
 180 -147 196 -131 215 -131 c 0
 223 -131 225 -132 244 -142 c 0
 262 -152 284 -159 301 -159 c 0
 324 -159 337 -150 337 -134 c 0
 337 -113 317 -100 284 -100 c 0
 279 -100 274 -100 262 -102 c 1
 262 -11 l 1
 230 -7 205 0 153 25 c 0
 115.293 43.1282 61.5948 94.5406 61.5948 144.834 c 0
 61.5948 156.422 64.4457 167.951 71 179 c 0
EndSplineSet
Validated: 1
EndChar

StartChar: Udieresis
Encoding: 220 220 191
Width: 598
Flags: HW
HStem: -14 100<272 326.5> 483 100<70 205 170 170 170 205 393 428 528 536.5> 678 120<148.745 240.66 356.745 448.66>
VStem: 70 100<205 483> 135 120<691.745 784.171> 343 120<691.745 784.171> 428 100<196 205 205 483>
LayerCount: 2
Fore
SplineSet
195 798 m 0xe8
 229 798 255 771 255 737 c 0
 255 705 228 678 195 678 c 0
 162 678 135 705 135 738 c 0
 135 771 162 798 195 798 c 0xe8
403 798 m 0
 437 798 463 771 463 737 c 0
 463 705 436 678 403 678 c 0
 370 678 343 705 343 738 c 0xe4
 343 771 370 798 403 798 c 0
EndSplineSet
Refer: 53 85 N 1 0 0 1 0 0 2
Validated: 1
EndChar

StartChar: Uring
Encoding: 366 366 195
Width: 598
Flags: HMW
HStem: -14 100<272 326.5> 483 100<70 205 170 170 170 205 393 428 528 536.5> 630 54<280 317.5 280 332> 818 53<280 318>
VStem: 9 53 70 100<205 483> 202 53 428 100<196 205 205 483>
LayerCount: 2
Fore
SplineSet
299 871 m 0
 367 871 422 816 422 749 c 0
 422 685 365 630 299 630 c 0
 232 630 176 685 176 751 c 0
 176 816 232 871 299 871 c 0
299 818 m 0
 261 818 229 787 229 751 c 0
 229 715 261 684 299 684 c 0
 336 684 369 715 369 750 c 0
 369 787 337 818 299 818 c 0
EndSplineSet
Refer: 53 85 N 1 0 0 1 0 0 2
Validated: 1
EndChar

StartChar: Uhungarumlaut
Encoding: 368 368 196
Width: 598
Flags: HMW
HStem: -14 100<272 326.5> 483 100<70 205 170 170 170 205 393 428 528 536.5>
VStem: 70 100<205 483> 428 100<196 205 205 483>
LayerCount: 2
Fore
SplineSet
330 765 m 2
 228 656 l 2
 218 645 208 639 199 639 c 0
 181 639 164 657 164 676 c 0
 164 688 165 690 185 712 c 2
 287 822 l 2
 299 834 305 838 316 838 c 0
 334 838 350 821 350 801 c 0
 350 791 344 780 330 765 c 2
494 765 m 2
 392 656 l 2
 382 645 372 639 363 639 c 0
 345 639 328 657 328 676 c 0
 328 688 329 689 349 712 c 2
 451 822 l 2
 463 834 469 838 480 838 c 0
 498 838 514 821 514 801 c 0
 514 791 509 781 494 765 c 2
EndSplineSet
Refer: 53 85 N 1 0 0 1 0 0 2
Validated: 1
EndChar

StartChar: Amacron
Encoding: 256 256 201
Width: 689
Flags: HMW
HStem: 0 100<78.5 90 90 91 200 223 461 484 598 600> 158 100<263 420 263 461 223 420> 430 20<342 342> 483 100<170 399 183 246> 689 80<210.5 467 223 467>
LayerCount: 2
Fore
SplineSet
223 769 m 2
 467 769 l 2
 490 769 502 766 509 758 c 0
 515 751 520 737 520 729 c 0
 520 704 500 689 467 689 c 2
 223 689 l 2
 198 689 190 691 181 701 c 0
 175 709 170 721 170 729 c 0
 170 754 189 769 223 769 c 2
EndSplineSet
Refer: 33 65 N 1 0 0 1 0 0 2
Validated: 1
EndChar

StartChar: Ydieresis
Encoding: 376 376 202
Width: 668
Flags: HW
HStem: 0 100<208 285 220 285 385 450> 563 20<123 212 212 225.5 456 548 548 561.5> 678 120<184.745 276.66 392.745 484.66>
VStem: 171 120<691.745 784.171> 285 100<100 245 100 245> 379 120<691.745 784.171>
LayerCount: 2
Fore
SplineSet
231 798 m 0xf0
 265 798 291 771 291 737 c 0
 291 705 264 678 231 678 c 0
 198 678 171 705 171 738 c 0
 171 771 198 798 231 798 c 0xf0
439 798 m 0
 473 798 499 771 499 737 c 0
 499 705 472 678 439 678 c 0
 406 678 379 705 379 738 c 0xe4
 379 771 406 798 439 798 c 0
EndSplineSet
Refer: 57 89 N 1 0 0 1 0 0 2
Validated: 1
EndChar

StartChar: Emacron
Encoding: 274 274 203
Width: 596
Flags: HW
HStem: 0 100<170 526> 243 99<170 354> 483 100<170 504> 689 80<112.421 439.668>
VStem: 70 100<100 243 342 483>
LayerCount: 2
Fore
SplineSet
154 769 m 2
 398 769 l 2
 421 769 433 766 440 758 c 0
 446 751 451 737 451 729 c 0
 451 704 431 689 398 689 c 2
 154 689 l 2
 129 689 121 691 112 701 c 0
 106 709 101 721 101 729 c 0
 101 754 120 769 154 769 c 2
EndSplineSet
Refer: 37 69 N 1 0 0 1 0 0 2
Validated: 1
EndChar

StartChar: Imacron
Encoding: 298 298 204
Width: 240
Flags: HMW
HStem: 0 100<-43 70 -31 70 170 271> 483 100<-43.5 271 -31 70 170 271 170 170> 689 80<-14.5 242 -2 242>
VStem: 70 100<100 483 100 483>
LayerCount: 2
Fore
SplineSet
-2 769 m 2
 242 769 l 2
 265 769 277 766 284 758 c 0
 290 751 295 737 295 729 c 0
 295 704 275 689 242 689 c 2
 -2 689 l 2
 -27 689 -35 691 -44 701 c 0
 -50 709 -55 721 -55 729 c 0
 -55 754 -36 769 -2 769 c 2
EndSplineSet
Refer: 41 73 N 1 0 0 1 0 0 2
Validated: 1
EndChar

StartChar: Iogonek
Encoding: 302 302 205
Width: 600
Flags: W
HStem: -208 76<251.643 335.197> 564 20G<250 350>
VStem: 174 77<-131.727 -65.7546> 250 100<-12.2515 584>
LayerCount: 2
Fore
SplineSet
350 0 m 1xd0
 294 -32 251 -81 251 -112 c 0
 251 -125 260 -132 275 -132 c 0
 287 -132 298 -128 326 -114 c 0
 336 -109 341 -108 348 -108 c 0
 370 -108 387 -125 387 -146 c 0
 387 -164 376 -178 352 -189 c 0
 325 -201 295 -208 268 -208 c 0
 210 -208 174 -174 174 -119 c 0xe0
 174 -69 191 -38 250 0 c 1
 250 584 l 9
 350 584 l 17
 350 0 l 1xd0
EndSplineSet
Validated: 1
EndChar

StartChar: Kcommaaccent
Encoding: 310 310 206
Width: 600
Flags: HMW
HStem: 0 100<67.5 94 79 94 194 229 504 536> 483 100<66.5 229 79 94 194 194 194 229 511 520.5>
VStem: 94 100<100 208 334 483>
LayerCount: 2
Fore
SplineSet
194 0 m 9
 94 0 l 1
 94 584 l 1
 194 584 l 1
 194 334 l 1
 485 583 l 1
 485 582.753 500.444 582.671 521.037 582.671 c 0
 562.222 582.671 624 583 624 583 c 1
 335 330 l 1
 396 298 497 180 531 0 c 1
 426 0 l 1
 379 143 315 240 254 259 c 1
 194 208 l 1
 194 0 l 9
EndSplineSet
Refer: 299 -1 N 1 0 0 1 0 0 2
Validated: 1
EndChar

StartChar: Omacron
Encoding: 332 332 209
Width: 638
Flags: HMW
HStem: -14 100<270 367.5 270 395> 497 100<270 352.5 242 368.5> 689 80<184.5 441 197 441>
VStem: 40 100<235.5 348 235.5 376> 498 100<234 335 205 346.5>
LayerCount: 2
Fore
SplineSet
197 769 m 2
 441 769 l 2
 464 769 476 766 483 758 c 0
 489 751 494 737 494 729 c 0
 494 704 474 689 441 689 c 2
 197 689 l 2
 172 689 164 691 155 701 c 0
 149 709 144 721 144 729 c 0
 144 754 163 769 197 769 c 2
EndSplineSet
Refer: 47 79 N 1 0 0 1 0 0 2
Validated: 1
EndChar

StartChar: Gcommaaccent
Encoding: 290 290 211
Width: 598
Flags: HMW
HStem: -14 100<300.983 356.483 300.983 377.483> 180 100<344.983 532.483 357.483 457.483 357.483 557.483> 497 100<297.483 351.483 283.483 361.983>
VStem: 40.4834 100<246 253 253 317 224 355> 457.483 100<111 180 48 180>
LayerCount: 2
Fore
SplineSet
345.483 -126 m 2
 263.483 -252 l 2
 250.483 -272 241.483 -278 227.483 -278 c 0
 207.483 -278 190.483 -262 190.483 -243 c 0
 190.483 -234 194.483 -223 202.483 -211 c 2
 284.483 -85 l 2
 297.483 -65 306.483 -59 322.483 -59 c 0
 342.483 -59 358.483 -76 358.483 -96 c 0
 358.483 -103 353.483 -114 345.483 -126 c 2
EndSplineSet
Refer: 39 71 N 1 0 0 1 0 0 2
Validated: 1
EndChar

StartChar: Uogonek
Encoding: 370 370 213
Width: 600
Flags: HMW
HStem: -208 76<371 385 371 388.5> -15 100<280 304> 483 100<71 206 171 171 171 206 394 429 529 537.5>
VStem: 71 100<205 483> 277 78<-119 -97.5> 429 100<196 205 205 483>
LayerCount: 2
Fore
SplineSet
429 583 m 9
 529 583 l 17
 529 205 l 2
 529 132 508 89 441 26 c 0
 384 -27 355 -74 355 -113 c 0
 355 -125 363 -132 379 -132 c 0
 391 -132 405 -127 430 -114 c 0
 439 -109 444 -108 452 -108 c 0
 473 -108 490 -125 490 -146 c 0
 490 -158 483 -171 473 -178 c 0
 450 -195 406 -208 371 -208 c 0
 313 -208 277 -174 277 -119 c 0
 277 -76 291 -51 338 -11 c 1
 321 -14 308 -15 300 -15 c 0
 260 -15 212 -2 179 18 c 0
 108 61 71 125 71 205 c 2
 71 583 l 9
 171 583 l 17
 171 196 l 2
 171 135 229 85 300 85 c 0
 371 85 429 135 429 196 c 2
 429 583 l 9
EndSplineSet
Validated: 1
EndChar

StartChar: aogonek
Encoding: 261 261 221
Width: 600
Flags: W
HStem: -208 76<386.643 470.197> -16 100<155.744 330.994> 196 92<189.436 386.606> 350 100<153.81 376.546>
VStem: 42 106<95.2491 161.15> 309 77<-131.727 -63.0849> 388 101<-12.2515 23 123.047 188.615 278 335.061>
LayerCount: 2
Fore
SplineSet
489 0 m 1
 463 -16 386 -59.9075 386 -112 c 0
 386 -125 395 -132 410 -132 c 0
 422 -132 433 -128 461 -114 c 0
 471 -109 476 -108 483 -108 c 0
 505 -108 522 -125 522 -146 c 0
 522 -164 511 -178 487 -189 c 0
 460 -201 430 -208 403 -208 c 0
 345 -208 309 -174 309 -119 c 0
 309 -69 330 -38 388 0 c 1
 388 23 l 1
 340 -2 281 -16 222 -16 c 0
 123 -16 42 45 42 119 c 0
 42 150 57 185 81 212 c 0
 126 262 195 288 284 288 c 0
 316 288 347 285 388 278 c 1
 388 301 l 2
 388 335 359 350 295 350 c 0
 262 350 225 345 179 333 c 0
 162 329 148 327 139 327 c 0
 111 327 90 349 90 378 c 0
 90 399 100 413 120 420 c 0
 168 437 242 450 292 450 c 0
 415 450 489 395 489 302 c 2
 489 0 l 1
389 135 m 1
 389 185 l 1
 349 192 312 196 278 196 c 0
 210 196 148 161 148 123 c 0
 148 101 181 84 224 84 c 0
 278 84 334 101 389 135 c 1
EndSplineSet
Validated: 1
EndChar

StartChar: ccaron
Encoding: 269 269 223
Width: 591
Flags: HMW
HStem: -16 100<260.5 336 257.5 345.5> 350 100<270.5 318> 566 20<307 307>
VStem: 40 100<176.5 226 166 278.5>
LayerCount: 2
Fore
SplineSet
307 586 m 1
 419 682 l 2
 431 693 438 696 448 696 c 0
 466 696 482 679 482 660 c 0
 482 649 478 641 467 632 c 2
 458 625 l 1
 307 497 l 1
 155 625 l 2
 133 643 131 647 131 660 c 0
 131 679 147 696 166 696 c 0
 175 696 181 693 194 682 c 2
 307 586 l 1
EndSplineSet
Refer: 67 99 N 1 0 0 1 0 0 2
Validated: 1
EndChar

StartChar: ccedilla
Encoding: 231 231 224
Width: 591
Flags: HMW
HStem: -229 70<288.5 308.5 288.5 328> 350 100<271 318.5>
VStem: 40 100<168.5 226 166 278> 258 70<-42 -16 -42 -14 -42 -14> 333 70<-142 -123>
LayerCount: 2
Fore
SplineSet
304 42 m 28
 328.47 41.3008 384 -14 328 -16 c 1
 328 -42 l 1
 379 -52 403 -81 403 -133 c 0
 403 -188 358 -229 298 -229 c 0
 264 -229 221 -217 194 -199 c 0
 183 -191 176 -179 176 -166 c 0
 176 -147 192 -131 211 -131 c 0
 219 -131 222 -132 240 -142 c 0
 258 -152 280 -159 297 -159 c 0
 320 -159 333 -150 333 -134 c 0
 333 -112 313 -100 277 -100 c 0
 272 -100 267 -101 258 -102 c 1
 258 -14 l 1
 203 -8 275.748 42.8076 304 42 c 28
EndSplineSet
Refer: 67 99 N 1 0 0 1 0 0 2
Validated: 37
EndChar

StartChar: dcaron
Encoding: 271 271 225
Width: 600
Flags: HMW
HStem: -14 100<258 306 258 309.5> 351 100<257 306>
VStem: 33 100<202 235.5 202 251.5> 431 100<0 423 35 423 201 235 401 423 495 525 525 525>
LayerCount: 2
Fore
SplineSet
531 0 m 9
 431 0 l 1
 431 35 l 1
 378 -1 339 -14 280 -14 c 0
 205 -14 149 7 103 51 c 0
 57 96 33 153 33 219 c 0
 33 284 57 342 103 386 c 0
 149 430 205 451 281 451 c 0
 341 451 388 435 431 401 c 1
 431 624 l 9
 531 624 l 1
 531 495 l 1
 607 611 l 2
 620 631 629 637 645 637 c 0
 665 637 681 621 681 600 c 0
 681 594 677 584 668 570 c 2
 586 445 l 2
 573 426 564 419 549 419 c 0
 544 419 539 420 531 423 c 1
 531 0 l 9
281 351 m 0
 233 351 200 339 172 311 c 0
 147 286 133 252 133 219 c 0
 133 185 147 152 172 126 c 0
 200 99 234 86 282 86 c 0
 330 86 364 99 392 126 c 0
 417 151 431 185 431 217 c 0
 431 253 417 286 392 311 c 0
 363 339 331 351 281 351 c 0
EndSplineSet
Validated: 1
EndChar

StartChar: ecaron
Encoding: 283 283 230
Width: 597
Flags: HMW
HStem: -16 100<269 336 269 339.5> 172 88<152 446 152 557 149 446> 350 100<262.5 335.5> 566 20<308 308>
LayerCount: 2
Fore
SplineSet
308 586 m 1
 420 682 l 2
 432 693 439 696 449 696 c 0
 467 696 483 679 483 660 c 0
 483 649 479 641 468 632 c 2
 459 625 l 1
 308 497 l 1
 156 625 l 2
 134 643 132 647 132 660 c 0
 132 679 148 696 167 696 c 0
 176 696 182 693 195 682 c 2
 308 586 l 1
EndSplineSet
Refer: 69 101 N 1 0 0 1 0 0 2
Validated: 1
EndChar

StartChar: eogonek
Encoding: 281 281 232
Width: 600
Flags: HMW
HStem: -208 76<376.5 390 376.5 390.5> -16 100<262 305> 172 88<145 439 145 550 142 439> 350 100<255.5 328.5>
VStem: 283 77<-118.5 -98>
LayerCount: 2
Fore
SplineSet
550 172 m 1
 142 172 l 1
 165 112 218 84 306 84 c 0
 352 84 377 88 469 112 c 0
 481 115 493 117 502 117 c 0
 529 117 550 95 550 67 c 0
 550 45 538 32 508 19 c 0
 418 -17 360 -68 360 -112 c 0
 360 -125 369 -132 384 -132 c 0
 396 -132 407 -128 435 -114 c 0
 445 -109 450 -108 457 -108 c 0
 479 -108 496 -125 496 -146 c 0
 496 -164 485 -178 461 -189 c 0
 434 -201 404 -208 377 -208 c 0
 319 -208 283 -174 283 -119 c 0
 283 -77 302 -43 341 -14 c 1
 321 -16 311 -16 299 -16 c 0
 142 -16 33 79 33 216 c 0
 33 348 145 450 291 450 c 0
 440 450 550 349 550 211 c 2
 550 172 l 1
145 260 m 1
 439 260 l 1
 423 315 365 350 292 350 c 0
 219 350 160 314 145 260 c 1
EndSplineSet
Validated: 1
EndChar

StartChar: nacute
Encoding: 324 324 240
Width: 554
Flags: HW
HStem: 0 21<70 169 384 484> 350 100<220.863 366.214> 417 20<70 169>
VStem: 70 99<0 303.481 389 437> 384 100<0 332.375>
LayerCount: 2
Fore
SplineSet
426 624 m 2x98
 293 512 l 2
 278 500 271 496 261 496 c 0
 241 496 224 513 224 532 c 0
 224 545 231 556 247 569 c 2
 380 680 l 2
 396 693 401 696 412 696 c 0
 433 696 449 680 449 659 c 0
 449 647 443 637 426 624 c 2x98
EndSplineSet
Refer: 78 110 N 1 0 0 1 0 0 2
Validated: 1
EndChar

StartChar: ncaron
Encoding: 328 328 241
Width: 554
Flags: HW
HStem: 0 21<70 169 384 484> 350 100<220.863 366.214> 417 20<70 169>
VStem: 70 99<0 303.481 389 437> 384 100<0 332.375>
LayerCount: 2
Fore
SplineSet
275 586 m 1x98
 387 682 l 2
 399 693 406 696 416 696 c 0
 434 696 450 679 450 660 c 0
 450 649 446 641 435 632 c 2
 426 625 l 1
 275 497 l 1
 123 625 l 2
 101 643 99 647 99 660 c 0
 99 679 115 696 134 696 c 0
 143 696 149 693 162 682 c 2
 275 586 l 1x98
EndSplineSet
Refer: 78 110 N 1 0 0 1 0 0 2
Validated: 1
EndChar

StartChar: tcaron
Encoding: 357 357 253
Width: 606
Flags: HMW
HStem: -16 100<308 352> 337 100<93.5 141 106 141 241 393> 571 20<183 199.5>
VStem: 141 100<130.5 141 141 337 437 525>
LayerCount: 2
Fore
SplineSet
454 434 m 0
 431 416 398.336 415.657 393 437 c 2
 385.395 437.374 389 447 389 453 c 0
 389 462 393 473 401 486 c 2
 483 611 l 2
 497 631 505 637 521 637 c 0
 541 637 557 621 557 600 c 0
 557 594 552 583 544 570 c 2
 462 445 l 2
 459.258 440.819 458.178 437.269 454 434 c 0
EndSplineSet
Refer: 84 116 N 1 0 0 1 0 0 2
Validated: 37
EndChar

StartChar: uring
Encoding: 367 367 258
Width: 600
Flags: HMW
HStem: -13 100<253 300.5> 337 100<68 195 375 410> 486 54<281 318.5 281 333> 674 53<281 319>
VStem: 13 53 95 100<156 159 159 338 338 338> 206 53 410 100<0 437 48 437 155 337 337 337>
LayerCount: 2
Fore
SplineSet
300 727 m 0
 368 727 423 672 423 605 c 0
 423 541 366 486 300 486 c 0
 233 486 177 541 177 607 c 0
 177 672 233 727 300 727 c 0
300 674 m 0
 262 674 230 643 230 607 c 0
 230 571 262 540 300 540 c 0
 337 540 370 571 370 606 c 0
 370 643 338 674 300 674 c 0
510 0 m 9
 410 0 l 1
 410 48 l 1
 360 1 328 -13 273 -13 c 0
 228 -13 186 0 154 24 c 0
 114 54 95 97 95 156 c 2
 95 437 l 9
 195 437 l 1
 195 159 l 2
 195 110 223 87 283 87 c 0
 333 87 358 100 410 155 c 1
 410 437 l 9
 510 437 l 1
 510 0 l 9
EndSplineSet
Validated: 1
EndChar

StartChar: uhungarumlaut
Encoding: 369 369 259
Width: 600
Flags: HMW
HStem: -13 100<253 300.5> 337 100<68 195 375 410>
VStem: 95 100<156 159 159 338 338 338> 410 100<0 437 48 437 155 337 337 337>
LayerCount: 2
Fore
SplineSet
510 0 m 9
 410 0 l 1
 410 48 l 1
 360 1 328 -13 273 -13 c 0
 228 -13 186 0 154 24 c 0
 114 54 95 97 95 156 c 2
 95 437 l 9
 195 437 l 1
 195 159 l 2
 195 110 223 87 283 87 c 0
 333 87 358 100 410 155 c 1
 410 437 l 9
 510 437 l 1
 510 0 l 9
EndSplineSet
Refer: 133 733 N 1 0 0 1 20 0 2
Validated: 1
EndChar

StartChar: emacron
Encoding: 275 275 266
Width: 597
Flags: HMW
HStem: -16 100<269 336 269 339.5> 172 88<152 446 152 557 149 446> 350 100<262.5 335.5> 546 80<172.5 429 185 429>
LayerCount: 2
Fore
SplineSet
185 626 m 2
 429 626 l 2
 452 626 464 623 471 615 c 0
 477 608 482 594 482 586 c 0
 482 561 462 546 429 546 c 2
 185 546 l 2
 160 546 152 548 143 558 c 0
 137 566 132 578 132 586 c 0
 132 611 151 626 185 626 c 2
EndSplineSet
Refer: 69 101 N 1 0 0 1 0 0 2
Validated: 1
EndChar

StartChar: omacron
Encoding: 333 333 271
Width: 596
Flags: HMW
HStem: -16 100<253.5 342.5 253.5 370> 350 100<254.5 343.5> 546 80<163.5 420 176 420>
VStem: 40 100<179.5 255 179.5 283> 456 100<179.5 254>
LayerCount: 2
Fore
SplineSet
176 626 m 2
 420 626 l 2
 443 626 455 623 462 615 c 0
 468 608 473 594 473 586 c 0
 473 561 453 546 420 546 c 2
 176 546 l 2
 151 546 143 548 134 558 c 0
 128 566 123 578 123 586 c 0
 123 611 142 626 176 626 c 2
EndSplineSet
Refer: 79 111 N 1 0 0 1 0 0 2
Validated: 1
EndChar

StartChar: uogonek
Encoding: 371 371 274
Width: 600
Flags: W
HStem: -208 76<434.643 518.197> -13 100<212.518 358.752> 417 20G<95 195 410 510>
VStem: 95 100<105.283 437> 357 77<-131.727 -65.2541> 410 100<134.208 437>
LayerCount: 2
Fore
SplineSet
95 437 m 9xf4
 195 437 l 1
 195 159 l 2
 195 110 223 87 283 87 c 0
 333 87 358 100 410 155 c 1
 410 437 l 9
 510 437 l 1
 510 100 l 1xf4
 549 100 571 82 571 50 c 0
 571 28 563 17 534 1 c 0
 480 -29 434 -81 434 -112 c 0
 434 -125 443 -132 458 -132 c 0
 470 -132 481 -128 509 -114 c 0
 519 -109 524 -108 531 -108 c 0
 553 -108 570 -125 570 -146 c 0
 570 -164 559 -178 535 -189 c 0
 508 -201 478 -208 451 -208 c 0
 393 -208 357 -174 357 -119 c 0xf8
 357 -69 378 -38 436 0 c 1
 410 0 l 1
 410 48 l 1
 360 1 328 -13 273 -13 c 0
 228 -13 186 0 154 24 c 0
 114 54 95 97 95 156 c 2
 95 437 l 9xf4
EndSplineSet
Validated: 1
EndChar

StartChar: scedilla
Encoding: 351 351 276
Width: 534
Flags: HMW
HStem: -229 70<259.5 279.5 259.5 298> -100 184<248.5 267.5> 350 100<242.5 289>
VStem: 59.0005 110<310.5 324 310.5 353> 229 70<-42 -15 -42 -14 -42 -14> 304 70<-142 -123.5> 384 110<115.5 133.5>
LayerCount: 2
Fore
SplineSet
273 42 m 28
 297.449 41.7744 413.38 -7.15527 299 -15.0479 c 1
 299 -42 l 1
 350 -52 374 -81 374 -132 c 0
 374 -189 329 -229 267 -229 c 0
 240 -229 199 -218 175 -205 c 0
 156 -194 147 -182 147 -166 c 0
 147 -147 163 -131 182 -131 c 0
 190 -131 192 -132 211 -142 c 0
 229 -152 251 -159 268 -159 c 0
 291 -159 304 -150 304 -134 c 0
 304 -113 284 -100 251 -100 c 0
 246 -100 241 -100 229 -102 c 1
 229 -14.4014 l 1
 192.012 -11.2764 245.104 42.2578 273 42 c 28
EndSplineSet
Refer: 83 115 N 1 0 0 1 0 0 2
Validated: 37
EndChar

StartChar: gcommaaccent
Encoding: 291 291 277
Width: 587
Flags: HMW
HStem: -205 100<201.5 323 214 323 323 326> -14 100<240 302> 351 100<240 303 209 317>
VStem: 40 100<182 255.5 182 284.5> 417 100<-20 35 35 35 181 254.5>
LayerCount: 2
Fore
SplineSet
385 654 m 2
 303 528 l 2
 290 508 281 502 267 502 c 0
 247 502 230 518 230 537 c 0
 230 546 234 557 242 569 c 2
 324 695 l 2
 337 715 346 721 362 721 c 0
 382 721 398 704 398 684 c 0
 398 677 393 666 385 654 c 2
EndSplineSet
Refer: 71 103 N 1 0 0 1 0 0 2
Validated: 1
EndChar

StartChar: iogonek
Encoding: 303 303 278
Width: 600
Flags: W
HStem: -208 76<248.643 332.197> 337 100<129.421 250> 518 105<218 336>
VStem: 105 245<347.426 428.682> 171 77<-131.727 -67.8072> 218 118<518 623> 250 100<-12.2515 337>
LayerCount: 2
Fore
SplineSet
350 1 m 1xe2
 323 -15 275 -54 263 -71 c 0
 254 -86 248 -101 248 -112 c 0
 248 -125 257 -132 272 -132 c 0
 284 -132 295 -128 323 -114 c 0
 333 -109 338 -108 345 -108 c 0
 367 -108 384 -125 384 -146 c 0
 384 -164 373 -178 349 -189 c 0
 322 -201 292 -208 265 -208 c 0
 207 -208 171 -174 171 -119 c 0
 171 -69 192 -38 250 0 c 1
 250 0 250 336 250 337 c 1xea
 172 337 l 2
 147 337 135 339 126 347 c 0
 113 356 105 371 105 387 c 0xf0
 105 404 114 421 129 430 c 0
 138 436 146 437 172 437 c 2
 350 437 l 1
 350 1 l 1xe2
336 623 m 1xe4
 336 518 l 1
 218 518 l 1
 218 623 l 1
 336 623 l 1xe4
EndSplineSet
Validated: 1
EndChar

StartChar: Eth
Encoding: 208 208 280
Width: 600
Flags: HMW
HStem: 0 100<67.5 74 55 79 174 284> 243 100<54.5 74 67 74 67 74 174 248> 483 100<54.5 292 174 174 174 284>
VStem: 74 100<100 243 100 243 343 483> 450 100<261 305 221.5 307 221.5 330.5>
LayerCount: 2
Fore
SplineSet
74 243 m 1
 66 243 l 2
 43 243 30 246 21 253 c 0
 8 262 0 277 0 293 c 0
 0 310 9 327 24 336 c 0
 33 342 40 343 67 343 c 2
 74 343 l 1
 74 483 l 1
 35 483 13 501 13 533 c 0
 13 550 22 567 37 576 c 0
 46 582 53 583 80 583 c 2
 292 583 l 2
 438 583 550 462 550 305 c 2
 550 258 l 2
 550 185 526 123 480 75 c 0
 431 23 371 0 284 0 c 2
 79 0 l 2
 56 0 43 3 34 10 c 0
 21 19 13 35 13 50 c 0
 13 82 36 100 74 100 c 1
 74 243 l 1
174 243 m 1
 174 100 l 1
 285 100 l 2
 345 100 378 112 409 144 c 0
 437 175 450 210 450 261 c 2
 450 307 l 2
 450 354 434 398 405 432 c 0
 375 467 337 483 284 483 c 2
 174 483 l 1
 174 343 l 1
 248 343 l 2
 275 343 283 341 293 334 c 0
 307 324 314 309 314 293 c 0
 314 260 292 243 248 243 c 2
 174 243 l 1
EndSplineSet
Validated: 1
EndChar

StartChar: Dcroat
Encoding: 272 272 281
Width: 590
Flags: HMW
HStem: 0 100<67.4997 73.9997 54.9997 78.9997 174 284> 243 100<54.4997 73.9997 66.9997 73.9997 66.9997 73.9997 174 248> 483 100<54.4997 292 174 174 174 284>
VStem: 73.9997 100<100 243 100 243 343 483> 450 100<261 305 221.5 307 221.5 330.5>
LayerCount: 2
Fore
SplineSet
68 243 m 1
 43.001 243 30 246 21 253 c 0
 8 262 0 277 0 293 c 0
 0 310 9 327 24 336 c 0
 33 342 40.002 343 67 343 c 2
 248 343 l 1
 275 343 283 341 293 334 c 0
 307 324 314 309 314 293 c 0
 314 260 291.997 243 248 243 c 2
 68 243 l 1
EndSplineSet
Refer: 36 68 N 1 0 0 1 0 0 2
Validated: 5
EndChar

StartChar: Thorn
Encoding: 222 222 282
Width: 600
Flags: HMW
HStem: 0 100<68.5 95 80 95 195 294> 140 100<195 326 195 293> 343 100<195 293 293 326 195 293> 483 100<66.5 294 80 95 195 195 195 294>
VStem: 95 100<100 140 240 343 443 483> 421 102<275.5 308.5 275.5 309.5>
LayerCount: 2
Fore
SplineSet
95 0 m 6
 95 583 l 2
 195 583 l 2
 195 443 l 1
 293 443 l 2
 395 443 447 427 488 382 c 0
 510 358 523 325 523 292 c 0
 523 259 510 225 488 201 c 0
 447 156 395 140 293 140 c 2
 195 140 l 1
 195 0 l 2
 95 0 l 6
195 240 m 1
 326 240 l 2
 392 240 421 255 421 291 c 0
 421 328 393 343 326 343 c 2
 195 343 l 1
 195 240 l 1
EndSplineSet
Validated: 1
EndChar

StartChar: dcroat
Encoding: 273 273 283
Width: 600
Flags: W
HStem: -16 100<192.51 372.862> 0 100<531 588.623> 350 100<205.052 361.627> 407 100<531 592.487> 525 99<373.421 431>
VStem: 33 100<138.212 281.896> 349 182<534.472 615.683> 431 100<137.314 281.767 404 407 507 525>
LayerCount: 2
Fore
SplineSet
531 507 m 1x1d
 547 507 l 2
 574 507 582 505 593 498 c 0
 606 488 613 473 613 457 c 0
 613 424 591 407 547 407 c 2
 531 407 l 1
 531 100 l 1
 547 100 l 2
 574 100 583 98 593 91 c 0
 605 81 613 66 613 50 c 0
 613 33 604 16 589 7 c 0
 581 2 570 0 547 0 c 2
 431 0 l 1x5d
 431 24 l 1
 385 -3 337 -16 283 -16 c 0
 135 -16 33 76 33 209 c 0
 33 345 141 450 281 450 c 0
 337 450 381 437 431 404 c 1
 431 525 l 1xad
 415 525 l 2
 389 525 379 527 370 534 c 0
 357 544 349 559 349 575 c 0xae
 349 591 358 608 373 617 c 0
 382 623 389 624 415 624 c 2
 531 624 l 1
 531 507 l 1x1d
282 350 m 0xad
 198 350 133 288 133 207 c 0
 133 132 191 84 282 84 c 0
 373 84 431 132 431 206 c 0
 431 288 367 350 282 350 c 0xad
EndSplineSet
Validated: 1
EndChar

StartChar: eth
Encoding: 240 240 284
Width: 600
Flags: W
HStem: -16 100<214.951 386.711> 350 93<217.33 382.507> 456 21G<160.5 173.5> 573 67<135.744 174>
VStem: 42 102<148.392 280.49> 456 102<147.422 281.233>
LayerCount: 2
Fore
SplineSet
417 583 m 2
 372 558 l 1
 501 468 558 368 558 233 c 0
 558 153 537 99 489 55 c 0
 439 10 370 -16 300 -16 c 0
 157 -16 42 85 42 211 c 0
 42 339 151 443 286 443 c 0
 336 443 367 433 430 396 c 1
 391 445 341 490 293 518 c 1
 201 468 l 2
 182 457 178 456 169 456 c 0
 152 456 139 472 139 493 c 0
 139 507 142 510 163 522 c 2
 213 551 l 1
 204 555 195 559 192 560 c 0
 182 564 176 567 174 568 c 2
 158 573 l 2
 141 579 132 590 132 604 c 0
 132 623 151 640 172 640 c 0
 195 640 225 631 271 609 c 2
 299 596 l 1
 376 637 l 2
 388 643 399 646 409 646 c 0
 426 646 440 632 440 613 c 0
 440 601 432 590 417 583 c 2
300 350 m 0
 213 350 144 289 144 212 c 0
 144 141 214 84 300 84 c 0
 385 84 456 141 456 210 c 0
 456 289 388 350 300 350 c 0
EndSplineSet
Validated: 1
EndChar

StartChar: thorn
Encoding: 254 254 285
Width: 600
Flags: W
HStem: 10 100<234.609 409.608> 350 100<232.76 409.703> 604 20G<74 174>
VStem: 74 100<-205 66 166.404 293.135 392 624> 471 100<167.517 293.109>
LayerCount: 2
Fore
SplineSet
74 -205 m 6
 74 624 l 2
 174 624 l 1
 174 392 l 1
 223 434 265 450 328 450 c 0
 467 450 571 354 571 224 c 0
 571 101 468 10 329 10 c 0
 270 10 226 26 174 66 c 1
 174 -205 l 2
 74 -205 l 6
323 350 m 0
 281 350 248 341 222 321 c 0
 193 300 174 263 174 231 c 0
 174 160 235 110 323 110 c 0
 409 110 471 160 471 230 c 0
 471 263 452 300 423 321 c 0
 397 341 364 350 323 350 c 0
EndSplineSet
Validated: 1
EndChar

StartChar: Euro
Encoding: 8364 8364 286
Width: 600
Flags: W
HStem: -14 100<244.069 423.026> 205 56<4.46289 59 174 367.537> 303 56<4.46289 59 173 395.535> 497 100<242.551 389.961>
VStem: 59 110<163.097 205 261 303 359 415.104> 434 88.979<388.428 460.623>
LayerCount: 2
Fore
SplineSet
516 388 m 0
 508.686 373.982 493 367 479 367 c 0
 453 367 440 382 434 420 c 0
 431 444 421 457 395 473 c 0
 371 488 338 497 309 497 c 0
 240 497 188 444 173 359 c 1
 368 359 l 2
 386 359 396 349 396 331 c 0
 396 313 386 303 368 303 c 2
 169 303 l 1
 169 261 l 1
 341 261 l 2
 359 261 368 251 368 233 c 0
 368 215 358 205 341 205 c 2
 174 205 l 1
 190 130 247 86 329 86 c 0
 367 86 404 95 426 109 c 0
 436 115 436 115 461 143 c 0
 471 154 481 159 492 159 c 0
 517 159 538 136 538 109 c 0
 538 86 521 60 490 36 c 0
 451 5 389 -14 325 -14 c 0
 187 -14 84 72 62 205 c 1
 31 205 l 2
 14 205 4 215 4 233 c 0
 4 251 13 261 31 261 c 2
 59 261 l 1
 59 303 l 1
 31 303 l 2
 14 303 4 313 4 331 c 0
 4 349 13 359 31 359 c 2
 62 359 l 1
 78 498 179 597 305 597 c 1
 306.566 597.005 l 0
 351.976 597.005 394.443 584.75 433 563 c 0
 486.423 532.864 522.979 468.091 522.979 419.893 c 0
 522.979 407.995 520.752 397.107 516 388 c 0
EndSplineSet
Validated: 1
EndChar

StartChar: onesuperior
Encoding: 185 185 287
Width: 600
Flags: HMW
HStem: 247 67<196 267 210 267 334 391>
VStem: 267 67<314 551 551 551>
LayerCount: 2
Fore
SplineSet
267 247 m 17
 267 551 l 1
 219 539 l 2
 208 536 205 535 199 535 c 0
 182 535 168 551 168 570 c 0
 168 589 177 597 202 604 c 2
 334 638 l 1
 334 247 l 9
 267 247 l 17
EndSplineSet
Validated: 1
EndChar

StartChar: twosuperior
Encoding: 178 178 288
Width: 600
Flags: HMW
HStem: 247 67<253 362 253 429> 570 67<281.5 311.5>
VStem: 358 67<506 534>
LayerCount: 2
Fore
SplineSet
429 314 m 9
 429 247 l 1
 149 247 l 1
 149 315 l 1
 335 469 358 492 358 520 c 0
 358 548 330 570 293 570 c 0
 270 570 250 562 237 546 c 0
 232 540 231 539 225 520 c 0
 221 508 208 500 195 500 c 0
 176 500 161 515 161 533 c 0
 161 553 177 583 198 602 c 0
 223 624 258 637 294 637 c 0
 369 637 425 586 425 517 c 0
 425 466 402 439 253 314 c 1
 429 314 l 9
EndSplineSet
Validated: 1
EndChar

StartChar: threesuperior
Encoding: 179 179 289
Width: 600
Flags: W
HStem: 238 67<184.474 362.712> 418 66<254.038 353.656> 570 67<237.621 355.599>
VStem: 362 67<492.613 560.357> 375 67<319.665 396.093>
LayerCount: 2
Fore
SplineSet
286 484 m 2xe8
 311 484 l 2
 338 484 362 505 362 528 c 0
 362 554 337 570 299 570 c 0
 266 570 251 564 232 543 c 0
 226 537 217 533 208 533 c 0
 190 533 175 549 175 567 c 0
 175 604 236 637 302 637 c 0
 375 637 429 591 429 529 c 0xf0
 429 498 411 469 381 450 c 2
 381 450 379 449 378 448 c 1
 419 427 442 393 442 355 c 0
 442 322 424 287 396 266 c 0
 370 247 335 238 285 238 c 0
 207 238 157 259 157 292 c 0
 157 311 172 326 190 326 c 0
 198 326 202 325 212 318 c 0
 227 308 245 305 283 305 c 0
 343 305 375 323 375 357 c 0
 375 378 357 399 331 411 c 0
 319 416 314 417 286 418 c 0
 265 420 252 432 252 451 c 0
 252 470 267 484 286 484 c 2xe8
EndSplineSet
Validated: 1
EndChar

StartChar: degree
Encoding: 176 176 290
Width: 600
Flags: HMW
HStem: 243 61<268.5 331 268.5 347.5> 535 61<268.5 331.5>
VStem: 125 61<388.5 451.5 388.5 468.5> 414 61<388 451.5>
LayerCount: 2
Fore
SplineSet
300 596 m 0
 397 596 475 517 475 420 c 0
 475 321 397 243 298 243 c 0
 204 243 125 323 125 420 c 0
 125 517 203 596 300 596 c 0
300 535 m 0
 237 535 186 483 186 420 c 0
 186 357 238 304 299 304 c 0
 363 304 414 356 414 420 c 0
 414 483 363 535 300 535 c 0
EndSplineSet
Validated: 1
EndChar

StartChar: minus
Encoding: 8722 8722 291
Width: 600
Flags: HMW
HStem: 230 100<96 492 108 492>
LayerCount: 2
Fore
SplineSet
108 330 m 2
 492 330 l 2
 519 330 527 328 537 321 c 0
 550 311 558 296 558 280 c 0
 558 263 549 246 534 237 c 0
 526 232 514 230 492 230 c 2
 108 230 l 2
 84 230 72 232 63 240 c 0
 50 249 42 264 42 280 c 0
 42 297 51 314 66 323 c 0
 75 329 83 330 108 330 c 2
EndSplineSet
Validated: 1
EndChar

StartChar: multiply
Encoding: 215 215 292
Width: 600
Flags: W
LayerCount: 2
Fore
SplineSet
300 209 m 1
 197 106 l 2
 176 86 166 80 150 80 c 0
 123 80 100 103 100 131 c 0
 100 147 105 156 126 177 c 2
 229 280 l 1
 126 383 l 2
 105 405 100 413 100 430 c 0
 100 457 123 480 150 480 c 0
 166 480 176 474 197 454 c 2
 300 351 l 1
 403 454 l 2
 425 475 433 480 450 480 c 0
 477 480 500 457 500 430 c 0
 500 414 494 404 474 383 c 2
 371 280 l 1
 474 177 l 2
 494 157 500 146 500 130 c 0
 500 103 477 80 450 80 c 0
 433 80 424 85 403 106 c 2
 300 209 l 1
EndSplineSet
Validated: 1
EndChar

StartChar: divide
Encoding: 247 247 293
Width: 600
Flags: HMW
HStem: 230 100<96 492 108 492>
LayerCount: 2
Fore
SplineSet
108 330 m 2
 492 330 l 2
 519 330 527 328 537 321 c 0
 550 311 558 296 558 280 c 0
 558 263 549 246 534 237 c 0
 526 232 514 230 492 230 c 2
 108 230 l 2
 84 230 72 232 63 240 c 0
 50 249 42 265 42 280 c 0
 42 297 52 314 66 323 c 0
 75 329 83 330 108 330 c 2
300 160 m 0
 346 160 375 134 375 93 c 0
 375 54 345 28 300 28 c 0
 255 28 225 55 225 94 c 0
 225 133 255 160 300 160 c 0
300 532 m 0
 346 532 375 506 375 465 c 0
 375 426 345 400 300 400 c 0
 255 400 225 427 225 466 c 0
 225 505 255 532 300 532 c 0
EndSplineSet
Validated: 1
EndChar

StartChar: trademark
Encoding: 8482 8482 294
Width: 600
Flags: HMW
HStem: 220 73<37.5 75 52 75 148 170 496 511> 434 20<443 443> 510 73<40 75 40 40 148 183 148 148>
VStem: -33 73<461 510 446 583> 75 73<293 510 293 510> 183 74<461 510 510 510> 302 73<293 431> 511 73<293 429 429 429>
LayerCount: 2
Fore
SplineSet
-33 510 m 1
 -33 583 l 1
 257 583 l 1
 257 510 l 17
 148 510 l 1
 148 220 l 9
 75 220 l 17
 75 510 l 1
 -33 510 l 1
584 583 m 17
 584 220 l 9
 511 220 l 17
 511 429 l 1
 455 303 l 1
 436 303 l 1
 375 431 l 1
 375 220 l 9
 302 220 l 17
 302 583 l 9
 390 583 l 1
 443 454 l 1
 495 583 l 1
 584 583 l 17
EndSplineSet
Validated: 1
Ligature2: "'dlig' Discretionary Ligatures lookup 0-1" T M
LCarets2: 1 0 
EndChar

StartChar: plusminus
Encoding: 177 177 295
Width: 600
Flags: HMW
HStem: 0 100<96 492 108 492> 330 100<96 250 108 250 350 491>
VStem: 250 100<230 330 430 558>
LayerCount: 2
Fore
SplineSet
350 330 m 1
 350 230 l 2
 350 203 348 195 341 185 c 0
 331 172 316 164 300 164 c 0
 283 164 266 174 257 188 c 0
 252 197 250 207 250 230 c 2
 250 330 l 1
 108 330 l 2
 84 330 72 332 63 340 c 0
 50 349 42 365 42 380 c 0
 42 397 52 414 66 423 c 0
 75 429 83 430 108 430 c 2
 250 430 l 1
 250 558 l 2
 250 584 252 594 260 603 c 0
 269 616 284 624 300 624 c 0
 317 624 334 615 343 600 c 0
 349 591 350 584 350 558 c 2
 350 430 l 1
 491 430 l 2
 519 430 527 428 537 421 c 0
 550 411 558 396 558 380 c 0
 558 363 549 346 534 337 c 0
 526 332 514 330 491 330 c 2
 350 330 l 1
108 100 m 2
 492 100 l 2
 519 100 527 98 537 91 c 0
 550 81 558 66 558 50 c 0
 558 33 549 16 534 7 c 0
 526 2 514 0 492 0 c 2
 108 0 l 2
 84 0 72 2 63 10 c 0
 50 19 42 35 42 50 c 0
 42 67 52 84 66 93 c 0
 75 99 83 100 108 100 c 2
EndSplineSet
Validated: 1
EndChar

StartChar: onehalf
Encoding: 189 189 296
Width: 600
Flags: HMW
HStem: 0 67<453 562 453 629> 247 67<-4 67 10 67 134 191> 323 67<481.5 511.5>
VStem: 67 67<314 551 551 551> 558 67<259 287>
LayerCount: 2
Fore
SplineSet
67 247 m 17
 67 551 l 1
 19 539 l 2
 8 536 5 535 -1 535 c 0
 -18 535 -32 551 -32 570 c 0
 -32 589 -23 597 2 604 c 2
 134 638 l 1
 134 247 l 9
 67 247 l 17
473 528 m 2
 213 77 l 2
 202 58 193 51 179 51 c 0
 161 51 145 67 145 84 c 0
 145 90 148 99 155 110 c 2
 415 561 l 2
 427 581 435 587 450 587 c 0
 467 587 484 571 484 555 c 0
 484 548 481 541 473 528 c 2
629 67 m 9
 629 0 l 1
 349 0 l 1
 349 68 l 1
 535 222 558 245 558 273 c 0
 558 301 530 323 493 323 c 0
 470 323 450 315 437 299 c 0
 432 293 431 292 425 273 c 0
 421 261 408 253 395 253 c 0
 376 253 361 268 361 286 c 0
 361 306 377 336 398 355 c 0
 423 377 458 390 494 390 c 0
 569 390 625 339 625 270 c 0
 625 219 602 192 453 67 c 1
 629 67 l 9
EndSplineSet
Validated: 1
EndChar

StartChar: onequarter
Encoding: 188 188 297
Width: 600
Flags: HMW
HStem: 0 67<492 525 506 525 506 585> 83 67<446 525 446 525> 247 67<-4 67 10 67 134 191>
VStem: 67 67<314 551 551 551> 525 67<67 83 67 83 150 279 279 279>
LayerCount: 2
Fore
SplineSet
67 247 m 17
 67 551 l 1
 19 539 l 2
 8 536 5 535 -1 535 c 0
 -18 535 -32 551 -32 570 c 0
 -32 589 -23 597 2 604 c 2
 134 638 l 1
 134 247 l 9
 67 247 l 17
473 528 m 2
 213 77 l 2
 202 58 193 51 179 51 c 0
 161 51 145 67 145 84 c 0
 145 90 148 99 155 110 c 2
 415 561 l 2
 427 581 435 587 450 587 c 0
 467 587 484 571 484 555 c 0
 484 548 481 541 473 528 c 2
592 0 m 1
 525 0 l 1
 525 83 l 1
 362 83 l 1
 362 138 l 1
 508 380 l 1
 592 380 l 1
 592 150 l 1
 615 149 629 137 629 117 c 0
 629 97 616 84 592 83 c 1
 592 0 l 1
525 150 m 1
 525 279 l 1
 446 150 l 1
 525 150 l 1
EndSplineSet
Validated: 1
EndChar

StartChar: threequarters
Encoding: 190 190 298
Width: 600
Flags: W
HStem: 0 21G<525 592> 83 67<446 525 592 627.043> 238 67<-15.5255 162.712> 418 66<54.0382 153.656> 567 20G<442.5 458.5> 570 67<37.6205 155.599>
VStem: 162 67<492.613 560.357> 175 67<319.665 396.093> 525 67<0 83 150 279>
LayerCount: 2
Fore
SplineSet
592 0 m 1xf080
 525 0 l 1
 525 83 l 1
 362 83 l 1
 362 138 l 1
 508 380 l 1
 592 380 l 1
 592 150 l 1
 615 149 629 137 629 117 c 0
 629 97 616 84 592 83 c 1
 592 0 l 1xf080
525 150 m 1
 525 279 l 1
 446 150 l 1
 525 150 l 1
86 484 m 2
 111 484 l 2
 138 484 162 505 162 528 c 0
 162 554 137 570 99 570 c 0xf680
 66 570 51 564 32 543 c 0
 26 537 17 533 8 533 c 0
 -10 533 -25 549 -25 567 c 0xfa80
 -25 604 36 637 102 637 c 0
 175 637 229 591 229 529 c 0xf680
 229 498 211 469 181 450 c 2
 181 450 179 449 178 448 c 1
 219 427 242 393 242 355 c 0
 242 322 224 287 196 266 c 0
 170 247 135 238 85 238 c 0
 7 238 -43 259 -43 292 c 0
 -43 311 -28 326 -10 326 c 0
 -2 326 2 325 12 318 c 0
 27 308 45 305 83 305 c 0
 143 305 175 323 175 357 c 0xf580
 175 378 157 399 131 411 c 0
 119 416 114 417 86 418 c 0
 65 420 52 432 52 451 c 0
 52 470 67 484 86 484 c 2
474 528 m 2
 213 77 l 2
 202 58 193 51 179 51 c 0
 161 51 145 66 145 84 c 0
 145 91 147 97 155 110 c 2
 416 561 l 2
 427 581 435 587 450 587 c 0xf880
 467 587 484 571 484 555 c 0
 484 549 480 539 474 528 c 2
EndSplineSet
Validated: 1
EndChar

StartChar: commaaccent
Encoding: 1114112 -1 299
Width: 600
Flags: W
HStem: -278 219
VStem: 183 168
LayerCount: 2
Fore
SplineSet
338 -126 m 2
 256 -252 l 2
 243 -272 234 -278 220 -278 c 0
 200 -278 183 -262 183 -243 c 0
 183 -234 187 -223 195 -211 c 2
 277 -85 l 2
 290 -65 299 -59 315 -59 c 0
 335 -59 351 -76 351 -96 c 0
 351 -103 346 -114 338 -126 c 2
EndSplineSet
Validated: 1
EndChar

StartChar: copyright
Encoding: 169 169 300
Width: 600
Flags: W
HStem: -15 73<204.69 395.478> 118 71<234.692 370.867> 395 71<235.544 353.18> 525 73<202.114 396.616>
VStem: -7 73<195.184 389.084> 135 71<215.637 365.305> 360 70.478<326.385 384.388> 533 73<193.959 389.084>
LayerCount: 2
Fore
SplineSet
396 324 m 1
 375 324 365 335 360 360 c 0
 357 379 327 395 293 395 c 0
 242 395 206 357 206 304 c 2
 206 270 l 2
 206 221 244 189 303 189 c 0
 342 189 355 194 378 218 c 0
 385 225 394 229 403 229 c 0
 422 229 439 212 439 193 c 0
 439 154 373 118 302 118 c 0
 206 118 135 182 135 269 c 2
 135 305 l 2
 135 397 202 466 291 466 c 0
 319 466 341.589 461.206 370 447 c 1
 410.069 429.828 430.478 392.013 430.478 362.815 c 0
 430.478 341.003 419.09 324 396 324 c 1
299 598 m 0
 469 598 606 461 606 292 c 0
 606 121 469 -15 296 -15 c 0
 131 -15 -7 124 -7 292 c 0
 -7 461 130 598 299 598 c 0
300 525 m 0
 170 525 66 421 66 292 c 0
 66 164 171 58 297 58 c 0
 429 58 533 161 533 292 c 0
 533 421 428 525 300 525 c 0
EndSplineSet
Validated: 1
EndChar

StartChar: registered
Encoding: 174 174 301
Width: 600
Flags: HMW
HStem: -15 73<234 363 234 382.5> 246 70<269 294 269 284> 387 71<197 292 269 269 269 292 292 294> 525 73<235.5 364>
VStem: -7 73<228 356 228 376> 197 72<197 246 316 387> 348 71<344 364.5> 533 73<226.5 356>
LayerCount: 2
Fore
SplineSet
436 126 m 9
 363 126 l 1
 351 175 312 233 284 246 c 1
 269 246 l 1
 269 126 l 9
 197 126 l 17
 197 458 l 9
 292 458 l 2
 367 458 419 415 419 354 c 0
 419 317 395 283 358 266 c 1
 382 244 417 206 436 126 c 9
269 316 m 1
 294 316 l 2
 325 316 348 333 348 355 c 0
 348 374 327 387 294 387 c 2
 269 387 l 1
 269 316 l 1
300 598 m 0
 468 598 606 461 606 292 c 0
 606 121 469 -15 296 -15 c 0
 131 -15 -7 124 -7 292 c 0
 -7 460 131 598 300 598 c 0
300 525 m 0
 171 525 66 420 66 292 c 0
 66 164 171 58 297 58 c 0
 429 58 533 161 533 292 c 0
 533 420 428 525 300 525 c 0
EndSplineSet
Validated: 1
EndChar

StartChar: lozenge
Encoding: 9674 9674 302
Width: 600
Flags: HMW
HStem: -19 20 573 20<299 299>
LayerCount: 2
Fore
SplineSet
299 593 m 1
 529 288 l 1
 299 -19 l 1
 72 289 l 1
 299 593 l 1
299 468 m 1
 177 288 l 1
 300 109 l 1
 423 288 l 1
 299 468 l 1
EndSplineSet
Validated: 1
EndChar

StartChar: Delta
Encoding: 916 916 303
Width: 600
Flags: HMW
HStem: 0 100<164 436 164 585> 563 20<263 338 338 338>
LayerCount: 2
Fore
SplineSet
15 0 m 1
 263 583 l 1
 338 583 l 1
 585 0 l 1
 15 0 l 1
164 100 m 1
 436 100 l 1
 300 421 l 1
 164 100 l 1
EndSplineSet
Validated: 1
EndChar

StartChar: notequal
Encoding: 8800 8800 304
Width: 600
Flags: HMW
HStem: 138 100<96 225 108 171 335 492 108 281> 322 100<96 325 108 271 434 492 108 380>
LayerCount: 2
Fore
SplineSet
434 422 m 1
 492 422 l 2
 519 422 527 420 537 413 c 0
 550 403 558 388 558 372 c 0
 558 355 549 338 534 329 c 0
 526 324 514 322 492 322 c 2
 380 322 l 1
 335 238 l 1
 492 238 l 2
 519 238 527 236 537 229 c 0
 550 219 558 204 558 188 c 0
 558 171 549 154 534 145 c 0
 526 140 514 138 492 138 c 2
 281 138 l 1
 235 52 l 2
 224 33 208 22 189 22 c 0
 164 22 141 43 141 66 c 0
 141 75 145 89 150 98 c 2
 171 138 l 1
 108 138 l 2
 84 138 72 140 63 148 c 0
 50 157 42 173 42 188 c 0
 42 205 52 222 66 231 c 0
 75 237 83 238 108 238 c 2
 225 238 l 1
 271 322 l 1
 108 322 l 2
 84 322 72 324 63 332 c 0
 50 341 42 357 42 372 c 0
 42 389 52 406 66 415 c 0
 75 421 83 422 108 422 c 2
 325 422 l 1
 363 493 l 2
 373 512 392 525 407 525 c 0
 433 525 456 502 456 476 c 0
 456 466 454 458 448 447 c 2
 434 422 l 1
EndSplineSet
Validated: 1
EndChar

StartChar: radical
Encoding: 8730 8730 305
Width: 600
Flags: HMW
HStem: 251 86<48 177 65 104> 611 86<446 589 446 446>
LayerCount: 2
Fore
SplineSet
177 337 m 1
 210 216 l 1
 377 697 l 1
 589 697 l 2
 623 697 642 681 642 654 c 0
 642 627 623 611 589 611 c 2
 446 611 l 1
 202 -60 l 1
 104 251 l 1
 65 251 l 2
 31 251 12 267 12 294 c 0
 12 321 31 337 65 337 c 2
 177 337 l 1
EndSplineSet
Validated: 1
EndChar

StartChar: lessequal
Encoding: 8804 8804 306
Width: 600
Flags: HMW
HStem: 0 86<77 487 94 487> 571 20<503.5 514>
LayerCount: 2
Fore
SplineSet
212 368 m 1
 515 230 l 2
 539 219 549 206 549 187 c 0
 549 181 547 175 545 168 c 1
 544 167 l 1
 538 153 521 141 507 141 c 0
 500 141 489 144 478 149 c 2
 3 369 l 1
 478 583 l 2
 490 588 500 591 507 591 c 0
 521 591 538 579 544 566 c 2
 545 564 l 2
 548 558 549 551 549 545 c 0
 549 526 539 513 515 502 c 2
 212 368 l 1
487 0 m 2
 94 0 l 2
 60 0 41 16 41 43 c 0
 41 70 60 86 94 86 c 2
 487 86 l 2
 520 86 539 70 539 43 c 0
 539 16 520 0 487 0 c 2
EndSplineSet
Validated: 1
EndChar

StartChar: greaterequal
Encoding: 8805 8805 307
Width: 600
Flags: HMW
HStem: 0 86<80 491 97 491> 571 20<70 80.5>
LayerCount: 2
Fore
SplineSet
582 369 m 1
 106 149 l 2
 95 144 84 141 77 141 c 0
 63 141 47 152 40 167 c 1
 39 168 l 1
 36 175 35 181 35 187 c 0
 35 206 45 219 69 230 c 2
 372 368 l 1
 69 502 l 2
 45 513 35 526 35 546 c 0
 35 552 36 558 39 564 c 2
 40 566 l 2
 47 580 63 591 77 591 c 0
 84 591 94 588 106 583 c 2
 582 369 l 1
97 86 m 2
 491 86 l 2
 524 86 543 70 543 43 c 0
 543 16 524 0 491 0 c 2
 97 0 l 2
 63 0 44 16 44 43 c 0
 44 70 63 86 97 86 c 2
EndSplineSet
Validated: 1
EndChar

StartChar: logicalnot
Encoding: 172 172 308
Width: 600
Flags: HMW
HStem: 345 100<96 465 108 365>
VStem: 365 100<181 345 345 345>
LayerCount: 2
Fore
SplineSet
465 445 m 1
 465 181 l 2
 465 154 463 146 456 136 c 0
 446 123 431 115 415 115 c 0
 398 115 381 124 372 139 c 0
 367 148 365 158 365 181 c 2
 365 345 l 1
 108 345 l 2
 84 345 72 347 63 355 c 0
 50 364 42 380 42 395 c 0
 42 412 51 429 66 438 c 0
 75 444 82 445 108 445 c 2
 465 445 l 1
EndSplineSet
Validated: 1
EndChar

StartChar: summation
Encoding: 8721 8721 309
Width: 600
Flags: HMW
HStem: -97 100<81 441 157 441 157 485> 571 100<165 433 165 165>
LayerCount: 2
Fore
SplineSet
433 571 m 1
 165 571 l 1
 308 332 l 2
 316 318 319 310 319 301 c 0
 319 292 317 286 309 272 c 2
 157 3 l 1
 441 3 l 1
 445 82 l 2
 446 115 462 133 489 133 c 2
 491 133 l 2
 519 133 534 115 535 81 c 2
 537 -44 l 2
 537.029 -45.0845 537.044 -46.151 537.044 -47.1995 c 0
 537.044 -81.9242 520.915 -97 485 -97 c 2
 98 -97 l 2
 64 -97 45 -81 45 -53 c 2
 45 -28 l 2
 45 -7 45 -7 55 11 c 2
 215 302 l 1
 56 562 l 2
 45 580 45 581 45 602 c 2
 45 627 l 2
 45 655 64 671 98 671 c 2
 482 671 l 2
 518 671 534 656 534 622 c 2
 534 617 l 1
 530 492 l 2
 529 459 514 441 487 441 c 2
 483 441 l 2
 456 441 441 457 439 490 c 2
 433 571 l 1
EndSplineSet
Validated: 1
EndChar

StartChar: partialdiff
Encoding: 8706 8706 310
Width: 600
Flags: HMW
HStem: -16 100<282.5 348.5 282.5 375> 303 100<282.5 319.5 246 347> 570 20<175 232>
VStem: 102 100<162.5 226 162.5 256.5> 424 100<159.5 224.5>
LayerCount: 2
Fore
SplineSet
132 541 m 1
 131 547 l 2
 129 558 138 574 149 582 c 0
 158 588 167 590 183 590 c 0
 281 590 363 554 425 484 c 0
 485 415 524 311 524 219 c 0
 524 75 441 -16 309 -16 c 0
 188 -16 102 72 102 195 c 0
 102 318 186 403 306 403 c 0
 333 403 356 399 375 390 c 1
 340 452 268 490 184 491 c 0
 167 491 161 492 152 498 c 0
 141 505 132 520 132 532 c 2
 132 541 l 1
315 303 m 0
 250 303 202 257 202 195 c 0
 202 130 249 84 316 84 c 0
 381 84 424 127 424 192 c 0
 424 257 379 303 315 303 c 0
EndSplineSet
Validated: 33
EndChar

StartChar: brokenbar
Encoding: 166 166 311
Width: 600
Flags: HMW
VStem: 250 100<-87 116 353 556>
LayerCount: 2
Fore
SplineSet
350 556 m 2
 350 353 l 2
 350 326 348 318 341 308 c 0
 331 295 316 287 300 287 c 0
 283 287 266 296 257 311 c 0
 252 319 250 330 250 353 c 2
 250 556 l 2
 250 581 252 592 259 601 c 0
 269 614 284 622 300 622 c 0
 327 622 345 605 349 577 c 0
 350 566 350 564 350 556 c 2
350 116 m 2
 350 -87 l 2
 350 -112 348 -122 341 -132 c 0
 331 -145 316 -153 300 -153 c 0
 283 -153 267 -144 257 -129 c 0
 252 -121 250 -110 250 -87 c 2
 250 116 l 2
 250 142 252 152 259 162 c 0
 269 174 284 182 300 182 c 0
 317 182 334 173 343 158 c 0
 348 149 350 140 350 116 c 2
EndSplineSet
Validated: 1
EndChar

StartChar: mu
Encoding: 956 956 312
Width: 600
Flags: W
HStem: -16 100<204.178 350.564> 0 21G<410 510> 417 20G<95 195 410 510>
VStem: 95 100<-128.623 -7 93.0204 437> 410 100<0 22 126.053 437>
LayerCount: 2
Fore
SplineSet
510 0 m 6x78
 410 0 l 1x78
 410 22 l 1
 356 -4 305 -16 253 -16 c 0
 232 -16 215 -13 195 -7 c 1
 195 -87 l 2
 195 -113 193 -122 186 -132 c 0
 176 -145 161 -153 145 -153 c 0
 128 -153 112 -144 102 -129 c 0
 97 -121 95 -110 95 -87 c 2
 95 437 l 2
 195 437 l 1
 195 144 l 2
 195 101 214 84 260 84 c 0xb8
 304 84 346 99 410 138 c 1
 410 437 l 2
 510 437 l 1
 510 0 l 6x78
EndSplineSet
Validated: 1
EndChar

StartChar: afii10018
Encoding: 1041 1041 314
Width: 600
Flags: W
HStem: 0 97<195 438.871> 234 98<195 442.174> 468 97<195 541>
VStem: 99 96<97 234 332 468> 460 101<119.178 213.476>
LayerCount: 2
Fore
SplineSet
541 468 m 6
 195 468 l 1
 195 332 l 1
 369 332 l 2
 505 332 561 257 561 170 c 0
 561 64 508 0 370 0 c 2
 99 0 l 2
 99 565 l 2
 541 565 l 1
 541 468 l 6
195 97 m 1
 361 97 l 2
 427 97 461 119 460 169 c 0
 460 215 425 234 360 234 c 2
 195 234 l 1
 195 97 l 1
EndSplineSet
Validated: 33
EndChar

StartChar: afii10020
Encoding: 1043 1043 316
Width: 600
Flags: HMW
HStem: 0 97<83 108 95 108 205 302> 468 97<82.5 550 95 108 205 205 205 453>
VStem: 108 97<97 468> 453 97<418 468 468 468>
LayerCount: 2
Fore
SplineSet
205 0 m 6
 108 0 l 2
 108 565 l 2
 550 565 l 1
 550 468 l 2
 205 468 l 1
 205 0 l 6
EndSplineSet
Validated: 1
EndChar

StartChar: afii10021
Encoding: 1044 1044 317
Width: 600
Flags: HMW
HStem: 0 97<102 104 104 120 480 484 102 102> 468 97<152 466 249 249 249 381 166 480>
VStem: 5 97<-73 0 -84 97> 152 97<164 468> 381 99<97 468> 484 97<-73 0 0 0>
LayerCount: 2
Fore
SplineSet
480 565 m 6
 480 97 l 1
 581 97 l 1
 581 -73 l 2
 581 -99 578 -107 572 -116 c 0
 562 -129 549 -136 532 -136 c 0
 515 -136 500 -128 490 -113 c 0
 485 -105 484 -95 484 -73 c 2
 484 0 l 1
 102 0 l 1
 102 -73 l 2
 102 -95 100 -105 95 -113 c 0
 86 -128 70 -136 53 -136 c 0
 38 -136 23 -129 15 -116 c 1
 7 -107 5 -99 5 -73 c 2
 5 97 l 1
 104 97 l 2
 136 97 152 136 152 164 c 2
 152 565 l 2
 480 565 l 6
231 98 m 1
 381 97 l 1
 381 468 l 1
 249 468 l 1
 249 155 l 2
 249 133 243 107 231 98 c 1
EndSplineSet
Validated: 1
EndChar

StartChar: afii10024
Encoding: 1046 1046 320
Width: 600
Flags: HMW
HStem: 0 97<31 50 40 50 40 126 232 242 530 539> 468 97<15 94 339 349.5 549 552>
VStem: 242 97<97 252 97 252 326 468>
LayerCount: 2
Fore
SplineSet
530 0 m 1
 453 0 l 1
 453 143 418 252 339 252 c 1
 339 0 l 1
 242 0 l 1
 242 252 l 1
 162 252 128 143 126 0 c 1
 49 0 l 1
 50 97 l 2
 51 208 84 290 143 319 c 1
 -43 565 l 1
 56 565 l 1
 242 326 l 1
 242 565 l 1
 339 565 l 1
 339 326 l 1
 525 565 l 1
 624 565 l 1
 437 319 l 1
 496 290 528 208 530 97 c 2
 530 0 l 1
EndSplineSet
Validated: 1
EndChar

StartChar: afii10025
Encoding: 1047 1047 321
Width: 600
Flags: W
HStem: -15 99<198.29 385.17> 232 98<182.424 356.703> 482 96<209.014 366.595>
VStem: 60 98<118.228 184.797> 81 94<384.475 450.732> 400 101<365.021 451.842> 420 101<116.949 199.174>
LayerCount: 2
Fore
SplineSet
148 24 m 28xe2
 102.235 51.5742 84.9111 81.7324 60 129 c 28
 51.9726 144.231 62 164 70 172 c 1
 78 186 93 193 108 193 c 0
 122 193 136 188 143 178 c 1
 150 172 150 172 158 146 c 0
 169 112 228 84 293 84 c 0
 364 84 420 115 420 156 c 0xf2
 420 177 407 197 386 208 c 0
 365 219 349 232 283 232 c 2
 226 232 l 2
 203 232 191 236 182 241 c 0
 170 250 162 267 162 281 c 0
 162 298 171 314 186 322 c 1
 195 329 202 330 226 330 c 2
 267 330 l 2
 339 330 345 345 364 356 c 0
 386 365 400 388 400 408 c 0
 400 450 352 482 291 482 c 0
 231 482 185 456 175 417 c 0
 169 386 169 386 162 378 c 0
 154 370 140 364 127 364 c 0
 113 364 98 371 88 384 c 0
 81 394 73.4566 412.921 81 429 c 28
 104.762 479.649 118.373 513.626 164 546 c 28
 205.657 575.557 241 578 291 578 c 0
 411 578 501 505 501 407 c 0xec
 501 352 479 307 446 290 c 1
 453 285 458 281 464 276 c 0
 503 244 521 205 521 155 c 0
 521 54 433 -15 299 -15 c 0
 247 -15 200.097 -7.38876 148 24 c 28xe2
EndSplineSet
Validated: 33
EndChar

StartChar: afii10026
Encoding: 1048 1048 322
Width: 600
Flags: HMW
HStem: 0 97<72.5 90 84 90 187 202 380 394 491 497> 468 97<90 202 187 187 187 202 380 394>
VStem: 90 97<97 136 248 468> 394 97<97 316 316 316 427 468 97 468>
LayerCount: 2
Fore
SplineSet
90 0 m 6
 90 565 l 2
 187 565 l 2
 187 248 l 1
 394 427 l 1
 394 565 l 2
 491 565 l 2
 491 0 l 1
 394 0 l 2
 394 316 l 1
 187 136 l 1
 187 0 l 2
 90 0 l 6
EndSplineSet
Validated: 1
EndChar

StartChar: afii10029
Encoding: 1051 1051 325
Width: 600
Flags: HMW
HStem: 0 97<144 167 144 189 388 402 499 505> 468 97<200 485 296 296 296 402 213 499>
VStem: 12 97<126 133 133 146 122 146.5> 200 96<136 468> 402 97<97 468 97 468>
LayerCount: 2
Fore
SplineSet
402 0 m 6
 402 468 l 1
 296 468 l 1
 296 126 l 2
 296 31 228 0 150 0 c 0
 76 0 12 50 12 126 c 2
 12 133 l 2
 12 160 15 169 20 177 c 0
 31 191 46 198 61 198 c 0
 77 198 92 189 102 174 c 0
 107 167 109 156 109 136 c 0
 109 108 132 97 156 97 c 0
 178 97 200 112.913 200 136 c 2
 200 565 l 2
 499 565 l 2
 499 0 l 2
 402 0 l 6
EndSplineSet
Validated: 1
EndChar

StartChar: afii10030
Encoding: 1052 1052 326
Width: 660
Flags: HMW
HStem: 0 97<63 68 49 75 166 199 442 476>
VStem: 68 98<97 378 97 468 97 468> 476 96<97 378 378 378>
LayerCount: 2
Fore
SplineSet
322 277 m 1,28,-1
EndSplineSet
Refer: 45 77 N 1 0 0 1 0 0 2
Validated: 1
EndChar

StartChar: afii10033
Encoding: 1055 1055 329
Width: 600
Flags: HMW
HStem: 0 97<72.5 90 84 90 187 202 380 394 491 497> 468 97<90 477 187 394 187 187 104 491>
VStem: 90 97<97 468 97 468> 394 97<97 468 97 468>
LayerCount: 2
Fore
SplineSet
90 0 m 6
 90 565 l 2
 491 565 l 2
 491 0 l 2
 394 0 l 2
 394 468 l 1
 187 468 l 1
 187 0 l 2
 90 0 l 6
EndSplineSet
Validated: 1
EndChar

StartChar: afii10037
Encoding: 1059 1059 333
Width: 600
Flags: HMW
HStem: 0 97<166.5 170 153 178 153 285>
LayerCount: 2
Fore
SplineSet
558 565 m 1
 239 0 l 1
 113 0 l 1
 236 209 l 1
 23 565 l 1
 148 565 l 1
 291 302 l 1
 433 565 l 1
 558 565 l 1
EndSplineSet
Validated: 1
EndChar

StartChar: afii10038
Encoding: 1060 1060 334
Width: 600
Flags: HMW
HStem: 0 97<132.5 242 144 242 339 437> 117 97<212 242 212 242 339 368.5> 350 98<212.5 242 339 368.5> 468 97<132 437 144 242 339 339 339 437>
VStem: 4 97<249.5 319 249.5 369.5> 242 97<97 117 97 117 214 350 448 468> 480 97<249.5 319>
LayerCount: 2
Fore
SplineSet
339 350 m 1
 339 214 l 1
 398 214 480 213 480 286 c 0
 480 352 398 350 339 350 c 1
242 0 m 6
 242 117 l 1
 153 117 4 117 4 291 c 0
 4 448 153 448 242 448 c 1
 242 565 l 2
 339 565 l 2
 339 448 l 1
 428 448 577 448 577 291 c 0
 577 117 428 117 339 117 c 1
 339 0 l 2
 242 0 l 6
242 350 m 1
 183 350 101 352 101 286 c 0
 101 213 182 214 242 214 c 1
 242 350 l 1
EndSplineSet
Validated: 33
EndChar

StartChar: afii10040
Encoding: 1062 1062 336
Width: 600
Flags: HMW
HStem: 0 97<76 89 172 380 477 479> 468 97<58 187 70 76 172 172 172 187 365 380 477 477 477 482>
VStem: 76 96<97 468 97 468> 380 97<97 468 97 468> 479 95<-73 0 0 0>
LayerCount: 2
Fore
SplineSet
76 0 m 6
 76 565 l 2
 172 565 l 2
 172 97 l 1
 380 97 l 1
 380 565 l 2
 477 565 l 2
 477 97 l 1
 574 97 l 1
 574 -73 l 2
 574 -99 574 -107 567 -116 c 0
 557 -129 542 -136 527 -136 c 0
 511 -136 495 -128 485 -113 c 0
 480 -105 479 -95 479 -73 c 2
 479 0 l 1
 76 0 l 6
EndSplineSet
Validated: 1
EndChar

StartChar: afii10041
Encoding: 1063 1063 337
Width: 600
Flags: HMW
HStem: 0 97<351 378 363 378 474 480> 164 96<260.5 297> 468 97<87 200 185 185 185 200 363 378>
VStem: 87 98<298 468 298 468 298 468> 378 96<97 202 202 202 298 468 97 468>
LayerCount: 2
Fore
SplineSet
378 0 m 6
 378 202 l 1
 352 180 319 164 275 164 c 0
 185 164 87 177.847 87 295 c 2
 87 565 l 2
 185 565 l 2
 185 298 l 1
 195 273 240 260 281 260 c 0
 322 260 357 273 378 298 c 1
 378 565 l 2
 474 565 l 2
 474 0 l 2
 378 0 l 6
EndSplineSet
Validated: 1
EndChar

StartChar: afii10042
Encoding: 1064 1064 338
Width: 600
Flags: HMW
HStem: 0 97<22 43 119 242 339 463> 468 97<15.5 107 35 126>
VStem: 22 97<97 468 97 468> 242 97<97 468 97 468> 463 97<97 468 97 468>
LayerCount: 2
Fore
SplineSet
22 565 m 6
 119 565 l 6
 119 97 l 5
 242 97 l 5
 242 565 l 6
 339 565 l 6
 339 97 l 5
 463 97 l 5
 463 565 l 6
 560 565 l 6
 560 0 l 6
 22 0 l 6
 22 565 l 6
EndSplineSet
Validated: 1
EndChar

StartChar: afii10043
Encoding: 1065 1065 339
Width: 600
Flags: W
HStem: 0 97<143 243 340 442>
VStem: 46 97<97 565> 243 97<97 565> 442 97<97 565> 482 96<-115.579 0>
LayerCount: 2
Fore
SplineSet
46 0 m 6xe8
 46 565 l 2
 143 565 l 2
 143 97 l 1
 243 97 l 1
 243 565 l 2
 340 565 l 2
 340 97 l 1
 442 97 l 1
 442 565 l 2
 539 565 l 2
 539 97 l 1xf0
 578 97 l 1
 578 -73 l 2
 578 -99 577 -107 570 -116 c 0
 560 -129 546 -136 530 -136 c 0
 513 -136 499 -128 488 -113 c 1
 484 -105 482 -95 482 -73 c 2
 482 0 l 1
 46 0 l 6xe8
EndSplineSet
Validated: 1
EndChar

StartChar: afii10044
Encoding: 1066 1066 340
Width: 600
Flags: HMW
HStem: 0 97<160 189 172 189 286 379> 274 97<286 379 286 381> 468 97<105 189 105 105 286 316 286 286>
VStem: 8 97<378 468 365 565> 189 97<97 274 371 468> 477 101<158.5 213>
LayerCount: 2
Fore
SplineSet
189 0 m 6
 189 468 l 1
 8 468 l 2
 8 565 l 1
 286 565 l 2
 286 371 l 1
 381 371 l 2
 505 371 578 301 578 183 c 0
 578 76 501 0 379 0 c 2
 189 0 l 6
286 97 m 1
 379 97 l 2
 445 97 477 131 477 186 c 0
 477 240 445 274 379 274 c 2
 286 274 l 1
 286 97 l 1
EndSplineSet
Validated: 1
EndChar

StartChar: afii10045
Encoding: 1067 1067 341
Width: 600
Flags: HMW
HStem: 0 97<56 65 65 67 164 193 422 428> 274 97<164 172 172 193 164 172> 468 97<65 67 164 164 164 169 525 532.5>
VStem: 67 97<97 274 371 468> 301 103<158.5 205.5 129.5 213> 428 97<97 468 97 468>
LayerCount: 2
Fore
SplineSet
525 565 m 6
 525 0 l 2
 428 0 l 2
 428 565 l 2
 525 565 l 6
67 0 m 2
 67 565 l 2
 164 565 l 2
 164 371 l 1
 172 371 l 2
 264 371 313 356 356 307 c 0
 387 273 404 228 404 183 c 0
 404 76 316 0 193 0 c 2
 67 0 l 2
164 97 m 1
 193 97 l 2
 260 97 301 131 301 186 c 0
 301 240 260 274 193 274 c 2
 164 274 l 1
 164 97 l 1
EndSplineSet
Validated: 1
EndChar

StartChar: afii10046
Encoding: 1068 1068 342
Width: 600
Flags: HMW
HStem: 0 97<64 90 77 90 188 302> 274 97<188 302 188 306> 468 97<65 250 77 90 188 188 188 250>
VStem: 90 98<97 274 371 468> 411 101<158.5 213>
LayerCount: 2
Fore
SplineSet
90 0 m 6
 90 565 l 2
 188 565 l 2
 188 371 l 1
 306 371 l 2
 440 371 512 312 512 183 c 0
 512 76 425 0 302 0 c 2
 90 0 l 6
188 97 m 1
 302 97 l 2
 369 97 411 131 411 186 c 0
 411 240 369 274 302 274 c 2
 188 274 l 1
 188 97 l 1
EndSplineSet
Validated: 1
EndChar

StartChar: afii10047
Encoding: 1069 1069 343
Width: 600
Flags: HMW
HStem: -15 99<239 315.5 239 346> 234 96<230.5 450 242 450 242 451> 482 96<264.5 326>
LayerCount: 2
Fore
SplineSet
48 419 m 12
 48 474.945 86 494 131 536 c 4
 147 546 l 2
 196.924 577.202 234 578 285 578 c 0
 434 578 549 460 549 306 c 2
 549 241 l 2
 549 94 428 -15 264 -15 c 0
 194 -15 128 4 86 35 c 0
 51 57 33 84 33 105 c 0
 33 132 56 154 81 154 c 0
 95 154 107 149 116 139 c 0
 143 112 143 112 153 105 c 0
 178 90 218 84 260 84 c 0
 371 84 446 143 451 234 c 1
 242 234 l 2
 219 234 205 236 198 242 c 0
 186 252 178 267 178 282 c 0
 178 298 186 315 202 324 c 0
 209 329 218 330 242 330 c 2
 450 330 l 1
 437 418 371 482 281 482 c 0
 248 482 213 473 186 458 c 0
 159 443 149 430 143 407 c 0
 140 384 138 378 129 369 c 0
 122 361 108 356 97 356 c 0
 81 356 66 363 56 376 c 0
 50 384 48 395 48 419 c 12
EndSplineSet
Validated: 1
EndChar

StartChar: afii10048
Encoding: 1070 1070 344
Width: 600
Flags: W
HStem: -15 99<318.654 444.068> 0 21G<50 147> 234 96<147 188> 482 96<320.746 439.057>
VStem: 50 97<0 234 330 565> 189 92<126.595 234 330 436.926> 482 98<127.825 434.12>
LayerCount: 2
Fore
SplineSet
50 0 m 6x7e
 50 565 l 2
 147 565 l 2
 147 330 l 1
 188 330 l 1
 187 466 250 577 381 578 c 0
 533 580 580 427 580 277 c 0
 580 132 529 -15 381 -15 c 0xbe
 248 -15 189 110 189 234 c 1
 147 234 l 1
 147 0 l 2
 50 0 l 6x7e
381 482 m 0
 287 482 281 391 281 283 c 0
 281 172 287 84 381 84 c 0
 477 84 482 172 482 280 c 0
 482 391 477 482 381 482 c 0
EndSplineSet
Validated: 33
EndChar

StartChar: afii10049
Encoding: 1071 1071 345
Width: 600
Flags: HMW
HStem: 0 97<57 81 67 81 67 143 361 395 492 507> 215 97<332 395 332 395 312 395> 468 97<265 507 299 395 492 507 492 492>
VStem: 87 104<371 416 371 443> 395 97<97 215 215 215 312 468 97 468>
LayerCount: 2
Fore
SplineSet
-3 0 m 1
 44 100 89 176 173 254 c 1
 100 294 65 342 65 405 c 0
 65 510 155 583 285 583 c 2
 493 583 l 1
 493 0 l 1
 393 0 l 1
 393 222 l 1
 297 222 l 1
 255 207 163 97 113 0 c 1
 -3 0 l 1
393 322 m 1
 393 483 l 1
 281 483 l 2
 217 483 171 451 171 408 c 0
 171 358 233 322 317 322 c 2
 393 322 l 1
EndSplineSet
Validated: 1
EndChar

StartChar: afii10066
Encoding: 1073 1073 347
Width: 600
Flags: W
HStem: -15 99<207.386 374.949> 340 97<206.24 374.528> 484 66<261.179 492>
VStem: 50 97<143.006 345.643> 434 98<141.232 280.539>
LayerCount: 2
Fore
SplineSet
492 550 m 6
 492 484 l 1
 291 484 178 499 147 388 c 1
 188 420 234 437 293 437 c 0
 364 437 418 417 463 374 c 0
 508 332 532 275 532 211 c 0
 532 148 508 93 463 50 c 0
 418 7 364 -15 293 -15 c 0
 153 -15 50 68 50 226 c 0
 50 522 146 551 395 550 c 1
 492 550 l 6
291 340 m 0
 244 340 211 329 185 301 c 0
 161 277 147 244 147 213 c 0
 147 136 205 84 291 84 c 0
 337 84 370 97 397 122 c 0
 420 146 434 178 434 211 c 0
 434 244 420 277 397 301 c 0
 368 329 337 340 291 340 c 0
EndSplineSet
Validated: 33
EndChar

StartChar: afii10067
Encoding: 1074 1074 348
Width: 600
Flags: HMW
HStem: 0 97<124.5 141 121.5 147 239 290> 174 97<239 285.5> 326 97<121.5 310 239 293>
VStem: 141 98<97 174 271 326> 394 96<286 313.5>
LayerCount: 2
Fore
SplineSet
239 326 m 1
 239 271 l 1
 347 270 394 267 394 298 c 0
 394 329 347 326 239 326 c 1
239 97 m 1
 341 97 403 94 401 132 c 0
 403 167 332 174 239 174 c 1
 239 97 l 1
141 0 m 6
 141 423 l 2
 310 423 l 2
 350 423 490 420 490 312 c 0
 490 260 470 232 437 219 c 1
 482 205 500 180 500 113 c 0
 500 0 356.043 0 310 0 c 2
 141 0 l 6
EndSplineSet
Validated: 33
EndChar

StartChar: afii10068
Encoding: 1075 1075 349
Width: 600
Flags: HMW
HStem: 0 97<138 154 135 160 135 246> 326 97<135 487 250 389 250 250>
VStem: 154 96<97 326 97 326> 389 98<299 326 326 326>
LayerCount: 2
Fore
SplineSet
154 0 m 6
 154 423 l 2
 487 423 l 1
 487 326 l 2
 250 326 l 1
 250 0 l 2
 154 0 l 6
EndSplineSet
Validated: 1
EndChar

StartChar: afii10069
Encoding: 1076 1076 350
Width: 600
Flags: W
HStem: -89 186<43.3808 122.224 488.26 534.528> 0 97<131 153.412 242 391> 326 97<254 391>
VStem: 34 97<-65.5781 0> 158 96<98.4548 326> 391 97<97 326> 446 97<-65.5781 0>
LayerCount: 2
Fore
SplineSet
242 97 m 1x7c
 391 97 l 1
 391 326 l 1
 254 326 l 1
 254 139 l 2
 254 123 252 102 242 97 c 1x7c
488 423 m 6
 488 97 l 1x7c
 543 97 l 1x7a
 543 -24 l 2
 543 -50 541 -60 535 -70 c 1
 525 -81 511 -89 494 -89 c 0xba
 479 -89 461 -81 453 -66 c 0
 448 -57 446 -48 446 -24 c 2
 446 0 l 1
 131 0 l 1x7a
 131 -24 l 2
 131 -48 129 -57 123 -66 c 0
 115 -81 98 -89 82 -89 c 0xba
 67 -89 51 -81 43 -70 c 0
 37 -60 34 -50 34 -24 c 2
 34 97 l 1
 131 97 l 2
 146 98 158 122 158 139 c 2
 158 423 l 2
 488 423 l 6
EndSplineSet
Validated: 1
EndChar

StartChar: afii10072
Encoding: 1078 1078 353
Width: 600
Flags: HMW
HStem: 0 97<33 46 33 115> 326 97<28 115 340 340>
VStem: 240 100<97 156 97 156 277 326>
LayerCount: 2
Fore
SplineSet
502 0 m 1
 340 156 l 1
 340 0 l 1
 240 0 l 1
 240 156 l 1
 76 0 l 1
 -68 0 l 1
 164 220 l 1
 -90 423 l 1
 57 423 l 1
 240 277 l 1
 240 423 l 1
 340 423 l 1
 340 277 l 1
 524 423 l 1
 670 423 l 1
 415 220 l 1
 655 0 l 1
 502 0 l 1
EndSplineSet
Validated: 1
EndChar

StartChar: afii10073
Encoding: 1079 1079 354
Width: 600
Flags: W
HStem: -16 97<193.204 387.229> 172 98<189.951 375.556> 339 97<197.357 376.175>
VStem: 404 107<99.0553 151.08>
LayerCount: 2
Fore
SplineSet
151 11 m 0
 110 40 74 62 72 98 c 0
 70.3904 126.973 73 132 81 141 c 1
 90 155 104 162 120 162 c 0
 146 162 161 148 170 119 c 1
 198 94 239 81 291 81 c 0
 353 81 404 101 404 123 c 0
 404 136 391 149 371 156 c 1
 356 164 332 172 282 172 c 2
 241 172 l 2
 203 172 182 191 182 221 c 0
 182 253 203 270 247 270 c 2
 277 270 l 2
 341 270 345 277 358 282 c 0
 374 288 384 296 384 306 c 0
 384 322 337 339 288 339 c 0
 247 339 215 330 188 312 c 1
 183 302 l 2
 171 281 158 273 138 273 c 0
 123 273 107 280 98 291 c 0
 90 301 85.5539 311.092 88 338 c 0
 90 360 125.918 397.602 165 412 c 16
 203 426 243 436 291 436 c 0
 407 436 490 381 490 303 c 0
 490 273 477 244 456 228 c 1
 456 218 l 1
 488 198 511 159 511 121 c 0
 511 40 419 -16 294 -16 c 0
 240 -16 185.877 -13.6693 151 11 c 0
EndSplineSet
Validated: 33
EndChar

StartChar: afii10074
Encoding: 1080 1080 355
Width: 600
Flags: HMW
HStem: 0 97<73 89 70 95 70 181 378 394> 326 97<70 95 95 205 491 508>
VStem: 89 97<97 109 208 326> 394 97<97 218 218 218 315 326 97 326>
LayerCount: 2
Fore
SplineSet
491 0 m 6
 394 0 l 2
 394 218 l 1
 186 109 l 1
 186 0 l 2
 89 0 l 2
 89 423 l 2
 186 423 l 2
 186 208 l 1
 394 315 l 1
 394 423 l 2
 491 423 l 2
 491 0 l 6
EndSplineSet
Validated: 1
EndChar

StartChar: afii10076
Encoding: 1082 1082 357
Width: 600
Flags: HMW
HStem: 0 97<93 129 115 129 115 226 434 466> 326 97<102 226 115 129 434 434 434 461>
VStem: 129 97<97 159 277 326 326 326>
LayerCount: 2
Fore
SplineSet
539 0 m 1
 393 0 l 1
 226 159 l 1
 226 0 l 1
 129 0 l 1
 129 423 l 1
 226 423 l 1
 226 277 l 1
 411 423 l 1
 555 423 l 1
 302 220 l 1
 539 0 l 1
EndSplineSet
Validated: 1
EndChar

StartChar: afii10077
Encoding: 1083 1083 358
Width: 600
Flags: HMW
HStem: 0 97<109.5 271 392 408> 326 97<156.5 501 271 271 271 408 505 521.5 181 524>
VStem: 16 97<92 110 110 136 92 154> 175 96<110 326> 408 97<97 326 97 326>
LayerCount: 2
Fore
SplineSet
505 0 m 6
 408 0 l 2
 408 326 l 1
 271 326 l 1
 271 97 l 2
 271 29 220 0 141 0 c 0
 78 0 16 29 16 84 c 2
 16 136 l 2
 16 172 34 195 66 195 c 0
 98 195 113 180 113 136 c 2
 113 110 l 2
 113 74 175 78 175 110 c 2
 175 423 l 2
 505 423 l 2
 505 0 l 6
EndSplineSet
Validated: 33
EndChar

StartChar: afii10078
Encoding: 1084 1084 359
Width: 600
Flags: HMW
HStem: 0 97<47.5 66 47.5 70 47.5 161 403 422> 326 97<44 236 162 180 162 162 404 404 404 422 519 533.5>
VStem: 66 96<97 326 97 326> 422 97<97 326 97 326>
LayerCount: 2
Fore
SplineSet
519 423 m 6
 519 0 l 2
 422 0 l 2
 422 326 l 1
 404 326 l 1
 329 97 l 1
 257 97 l 1
 180 326 l 1
 162 326 l 1
 162 0 l 2
 66 0 l 2
 66 423 l 2
 236 423 l 1
 293 236 l 1
 349 423 l 1
 519 423 l 6
EndSplineSet
Validated: 1
EndChar

StartChar: afii10079
Encoding: 1085 1085 360
Width: 600
Flags: HMW
HStem: 0 97<93 109 90 115 90 202 359 375> 156 99<205 375 205 375> 326 97<90 115 115 224 473 489.5>
VStem: 109 96<97 156 255 326> 375 98<97 156 156 156 255 326 97 326>
LayerCount: 2
Fore
SplineSet
109 0 m 6
 109 423 l 2
 205 423 l 2
 205 255 l 1
 375 255 l 1
 375 423 l 2
 473 423 l 2
 473 0 l 2
 375 0 l 2
 375 156 l 1
 205 156 l 1
 205 0 l 2
 109 0 l 6
EndSplineSet
Validated: 1
EndChar

StartChar: afii10081
Encoding: 1087 1087 362
Width: 600
Flags: HMW
HStem: 0 97<88 105 85.5 110 85.5 197 364 380> 326 97<85.5 473 202 380 202 202 477 494 110 496>
VStem: 105 97<97 326 97 326> 380 97<97 326 97 326>
LayerCount: 2
Fore
SplineSet
477 423 m 6
 477 0 l 2
 380 0 l 2
 380 326 l 1
 202 326 l 1
 202 0 l 2
 105 0 l 2
 105 423 l 2
 477 423 l 6
EndSplineSet
Validated: 1
EndChar

StartChar: afii10084
Encoding: 1090 1090 365
Width: 600
Flags: HMW
HStem: 1 97<226.5 242 223.5 248 223.5 334> 326 99<156 242 156 156 339 339 339 425>
VStem: 60 96<301 326 289 425> 242 97<98 326 98 326> 425 96<301 326 326 326>
LayerCount: 2
Fore
SplineSet
339 1 m 2
 242 1 l 2
 242 326 l 1
 60 326 l 2
 60 425 l 1
 521 425 l 1
 521 326 l 2
 339 326 l 1
 339 1 l 2
EndSplineSet
Validated: 1
EndChar

StartChar: afii10086
Encoding: 1092 1092 367
Width: 600
Flags: HMW
HStem: -198 96<214 242 226 242 339 395> 9 98<209 228 228 242 339 353 209 339> 339 97<174 242 231 242 231 242 339 350 350 371> 532 96<214 339 226 242>
VStem: 15 95 242 97<-102 9 -102 9 107 339 436 532 532 532> 472 97
LayerCount: 2
Fore
SplineSet
371 339 m 2
 339 339 l 1
 339 107 l 1
 371 107 l 2
 456 107 470 155 472 224 c 0
 470 275 443 339 371 339 c 2
242 628 m 6
 339 628 l 1
 339 436 l 1
 350 436 l 2
 487 436 569 342 569 218 c 0
 569 98 487 9 353 9 c 2
 339 9 l 1
 339 -198 l 2
 242 -198 l 2
 242 9 l 1
 228 9 l 2
 94 9 15 98 15 218 c 0
 15 342 95 436 231 436 c 2
 242 436 l 1
 242 628 l 6
209 339 m 2
 139 339 112 275 110 224 c 0
 112 155 126 107 209 107 c 2
 242 107 l 1
 242 339 l 1
 209 339 l 2
EndSplineSet
Validated: 1
EndChar

StartChar: afii10088
Encoding: 1094 1094 369
Width: 600
Flags: W
HStem: -89 186<461.867 541.574> 0 97<186 363>
VStem: 89 97<97 423> 363 97<97 423> 453 98<-65.5781 0>
LayerCount: 2
Fore
SplineSet
89 0 m 2x68
 89 423 l 2
 186 423 l 2
 186 97 l 1
 363 97 l 1
 363 423 l 2
 460 423 l 2
 460 97 l 1x70
 551 97 l 1x68
 551 -24 l 2
 551 -50 549 -60 542 -70 c 0
 533 -81 518 -89 503 -89 c 0xa8
 487 -89 470 -81 461 -66 c 0
 456 -57 453 -48 453 -24 c 2
 453 0 l 1
 89 0 l 2x68
EndSplineSet
Validated: 1
EndChar

StartChar: afii10089
Encoding: 1095 1095 370
Width: 600
Flags: HMW
HStem: 0 97<362 378 359 384 359 470> 107 95<271.5 310 271.5 311> 326 97<88.5 113 113 222 474 491>
VStem: 107 96<244 326 227.5 326> 378 96<97 136 136 136 244 326 97 326>
LayerCount: 2
Fore
SplineSet
474 0 m 6
 378 0 l 2
 378 136 l 1
 358 119 329 107 293 107 c 0
 195 107 107 131 107 244 c 2
 107 423 l 2
 203 423 l 2
 203 244 l 2
 203 211 252 202 291 202 c 0
 329 202 378 224 378 244 c 2
 378 423 l 2
 474 423 l 2
 474 0 l 6
EndSplineSet
Validated: 1
EndChar

StartChar: afii10090
Encoding: 1096 1096 371
Width: 600
Flags: HMW
HStem: 0 97<17 53 125 242 340 457> 326 97<28 98 54 138.5 340 343.5>
VStem: 28 97<97 326 97 326> 242 98<97 326 97 326> 457 97<97 326 97 326>
LayerCount: 2
Fore
SplineSet
28 423 m 6
 125 423 l 2
 125 97 l 1
 242 97 l 1
 242 423 l 2
 340 423 l 2
 340 97 l 1
 457 97 l 1
 457 423 l 2
 554 423 l 2
 554 0 l 2
 28 0 l 2
 28 423 l 6
EndSplineSet
Validated: 1
EndChar

StartChar: afii10091
Encoding: 1097 1097 372
Width: 600
Flags: W
HStem: 0 97<136 242 340 448>
VStem: 38 98<97 423> 242 98<97 423> 448 96<97 423> 482 92<-65.5781 0>
LayerCount: 2
Fore
SplineSet
38 0 m 6xe8
 38 423 l 2
 136 423 l 2
 136 97 l 1
 242 97 l 1
 242 423 l 2
 340 423 l 2
 340 97 l 1
 448 97 l 1
 448 423 l 2
 544 423 l 2
 544 97 l 1xf0
 574 97 l 1
 574 -24 l 2
 574 -50 573 -60 566 -70 c 0
 556 -81 546 -89 532 -89 c 0
 515 -89 499 -81 489 -66 c 0
 484 -57 482 -48 482 -24 c 2
 482 0 l 1
 38 0 l 6xe8
EndSplineSet
Validated: 1
EndChar

StartChar: afii10092
Encoding: 1098 1098 373
Width: 600
Flags: HMW
HStem: 0 97<186 202 183 208 299 351> 174 97<299 347> 326 97<117 202 117 117 299 316.5 20 318>
VStem: 20 97<301 326 289 423> 202 97<97 174 271 326> 463 98
LayerCount: 2
Fore
SplineSet
202 0 m 6
 202 326 l 1
 20 326 l 2
 20 423 l 1
 299 423 l 2
 299 271 l 1
 378 271 l 2
 519 270 560 213 561 139 c 0
 562 9 417 0 371 0 c 2
 202 0 l 6
299 97 m 1
 403 97 463 93 463 132 c 0
 463 177 395 174 299 174 c 1
 299 97 l 1
EndSplineSet
Validated: 33
EndChar

StartChar: afii10093
Encoding: 1099 1099 374
Width: 600
Flags: HMW
HStem: 0 97<34.5 51 31.5 57 148 199 436.5 443> 174 97<148 195.5> 326 96<423.5 457 457 558>
VStem: 51 97<97 174 271 326> 283 98 443 96<97 326 97 326>
LayerCount: 2
Fore
SplineSet
51 0 m 6
 51 423 l 2
 148 423 l 2
 148 271 l 1
 200 271 l 2
 337 271 380 234 381 139 c 0
 380 8 264 0 220 0 c 2
 51 0 l 6
148 97 m 1
 250 97 285 94 283 132 c 0
 283 174 243 174 148 174 c 1
 148 97 l 1
443 0 m 2
 443 423 l 2
 539 423 l 2
 539 0 l 2
 443 0 l 2
EndSplineSet
Validated: 33
EndChar

StartChar: afii10094
Encoding: 1100 1100 375
Width: 600
Flags: HMW
HStem: 0 97<124.5 141 121.5 147 239 290> 174 97<239 285.5> 326 97<121.5 232 239 254.5 147 257>
VStem: 141 98<97 174 271 326> 401 99
LayerCount: 2
Fore
SplineSet
141 423 m 6
 239 423 l 2
 239 271 l 1
 450 271 499 250 500 139 c 0
 499 8 356 0 310 0 c 2
 141 0 l 2
 141 423 l 6
239 97 m 1
 341 97 403 94 401 132 c 0
 401 174 332 174 239 174 c 1
 239 97 l 1
EndSplineSet
Validated: 33
EndChar

StartChar: afii10095
Encoding: 1101 1101 376
Width: 600
Flags: HMW
HStem: -16 97<251.5 314.5 251.5 324> 152 97<226 434 250 433> 339 97<269.5 315>
LayerCount: 2
Fore
SplineSet
150 405 m 24
 197.877 434.628 234 436 291 436 c 0
 436 436 539 339 539 202 c 0
 539 141 518 90 479 51 c 0
 433 5 371 -16 277 -16 c 0
 208 -16 146 -4 105 16 c 0
 66 35 43 61 43 86 c 0
 43 113 66 136 90 136 c 0
 102 136 113 132 120 123 c 1
 146 104 152 100 169 94 c 0
 192 86 232 81 271 81 c 0
 358 81 412 105 433 152 c 1
 244 152 l 2
 208 152 186 170 186 202 c 0
 186 232 208 250 250 249 c 2
 434 249 l 1
 427 267 417 283 403 298 c 0
 376 326 339 339 291 339 c 0
 248 339 213 330 188 315 c 0
 174 306 169 298 164 280 c 0
 161 259 159 253 152 247 c 0
 143 240 128 234 116 234 c 0
 101 234 86 241 76 254 c 0
 70 263 68 273 68 298 c 8
 68 350.575 105.293 377.334 150 405 c 24
EndSplineSet
Validated: 33
EndChar

StartChar: afii10096
Encoding: 1102 1102 377
Width: 600
Flags: W
HStem: -16 97<319.146 453.117> 0 21G<50 141> 152 98<141 194> 339 97<319.099 454.375>
VStem: 50 91<0 152 250 422> 198 89<115.783 152 250 306.103> 482 98<109.892 309.89>
LayerCount: 2
Fore
SplineSet
141 0 m 2x7e
 50 0 l 2x7e
 50 422 l 2
 141 422 l 2
 141 250 l 1
 194 250 l 1
 194 356 263 436 391 436 c 0
 525 436 580 335 580 210 c 0
 580 84 525 -16 387 -16 c 0xbe
 268 -16 198 51 198 152 c 1
 141 152 l 1
 141 0 l 2x7e
388 339 m 0
 301 339 287 283 287 210 c 0
 287 138 301 81 387 81 c 0xbe
 474 81 482 138 482 210 c 0
 482 282 474 339 388 339 c 0
EndSplineSet
Validated: 1
EndChar

StartChar: afii10097
Encoding: 1103 1103 378
Width: 600
Flags: HMW
HStem: 0 97<104 147 115 147 115 228 358 376> 152 97<349 376 349 349> 326 97<376 376 473 487.5 304 490.5>
VStem: 115 96<267.5 310 267.5 350> 376 97<97 152 152 152 249 326 97 326>
LayerCount: 2
Fore
SplineSet
376.311 0 m 1
 376 152 l 1
 349 152 l 1
 187.808 0 l 1
 376.311 0 l 1
187.807 0 m 1
 45 0 l 1
 215 162 l 1
 138 175 115 209 115 285 c 0
 115 415 256.989 423 304 423 c 2
 473 423 l 1
 473 0 l 1
 376.311 0 l 1
 187.807 0 l 1
376 326 m 1
 264 329 211 329 211 291 c 0
 211 244 252 249 376 249 c 1
 376 326 l 1
EndSplineSet
Validated: 37
EndChar

StartChar: uni0400
Encoding: 1024 1024 379
Width: 596
Flags: HW
HStem: 0 100<170 526> 243 99<170 354> 483 100<170 504> 640 21G<301.5 316>
VStem: 70 100<100 243 342 483>
LayerCount: 2
Fore
SplineSet
187 824 m 2
 320 712 l 2
 336 699 343 688 343 676 c 0
 343 657 326 640 306 640 c 0
 297 640 287 645 274 656 c 2
 141 767 l 2
 124 781 118 790 118 803 c 0
 118 823 134 839 155 839 c 0
 165 839 173 835 187 824 c 2
EndSplineSet
Refer: 37 69 N 1 0 0 1 0 0 2
Validated: 1
EndChar

StartChar: afii10051
Encoding: 1026 1026 380
Width: 600
Flags: HMW
HStem: 0 97<115 161 138 161 259 282> 233 96<353 389.5> 354 211<34 63.5 358.5 386>
VStem: 0 98<418 468 393 565> 161 98<97 172 291 468> 323 98<418 468 468 468> 481 98<13 172 172 195>
LayerCount: 2
Fore
SplineSet
549 117.8 m 1
 549 -4 l 2
 549 -68 543 -145 359 -145 c 1
 359 -49 l 1
 416 -49 451 -26 451 13 c 2
 451 117.333 l 1
 451 172 l 2
 451 216 397 233 356 233 c 0
 315 233 249 216 249 172 c 2
 249 0 l 2
 151 0 l 2
 151 468 l 1
 0 468 l 2
 0 565 l 1
 401 565 l 1
 401 468 l 2
 249 468 l 1
 249 291 l 1
 275 313 318 329 362 329 c 0
 452 329 549 314 549 198 c 2
 549 117.8 l 1
EndSplineSet
Validated: 1
EndChar

StartChar: afii10053
Encoding: 1028 1028 382
Width: 600
Flags: HMW
HStem: -15 99<265.5 343 265.5 353> 234 96<129 339 132 339 132 339> 482 96<254.5 315.5>
LayerCount: 2
Fore
SplineSet
434 546 m 28
 486.151 511.012 503.362 474.367 533 419 c 28
 541.05 403.961 532 384 525 376 c 0
 515 363 500 356 484 356 c 0
 473 356 460 361 451 369 c 0
 443 378 442 384 437 407 c 0
 433 430 422 443 395 458 c 0
 368 473 332 482 299 482 c 0
 210 482 143 418 132 330 c 1
 339 330 l 2
 364 330 371 329 380 324 c 0
 395 315 403 298 403 282 c 0
 403 267 395 252 384 242 c 0
 376 236 363 234 339 234 c 2
 129 234 l 1
 136 143 209 84 322 84 c 0
 364 84 403 90 428 105 c 0
 437 112 437 112 466 139 c 1
 474 149 487 154 500 154 c 0
 525 154 549 132 549 105 c 0
 549 84 529 57 496 35 c 0
 453 4 388 -15 318 -15 c 0
 153 -15 33 94 33 241 c 2
 33 306 l 2
 33 460 147 578 296 578 c 0
 347 578 388.12 576.78 434 546 c 28
EndSplineSet
Validated: 33
EndChar

StartChar: afii10058
Encoding: 1033 1033 387
Width: 600
Flags: HMW
HStem: 0 97<90 113 90 135 321 335 432 445> 248 97<432 445 432 476> 468 97<146 418 242 335 242 242 159 432>
VStem: -42 97<122 136.5> 146 96<136 468> 335 97<97 248 345 468> 551 103<145.5 192.5 116.5 200>
LayerCount: 2
Fore
SplineSet
146 565 m 6
 432 565 l 2
 432 345 l 1
 520 345 563 340 605 289 c 0
 636 255 654 215 654 170 c 0
 654 63 567 0 445 0 c 2
 335 0 l 2
 335 468 l 1
 242 468 l 1
 242 126 l 2
 242 31 174 0 96 0 c 0
 22 0 -42 50 -42 126 c 0
 -42 147 -38 171 -34 177 c 0
 -23 191 -8 198 7 198 c 0
 23 198 38 189 48 174 c 0
 53 167 55 156 55 136 c 0
 55 108 78 97 102 97 c 0
 124 97 146 115 146 136 c 2
 146 565 l 6
432 97 m 1
 445 97 l 2
 510 97 551 118 551 173 c 0
 551 227 510 248 445 248 c 2
 432 248 l 1
 432 97 l 1
EndSplineSet
Validated: 1
EndChar

StartChar: afii10059
Encoding: 1034 1034 388
Width: 600
Flags: HMW
HStem: 0 97<-54.5 -37 -43 -37 60 74 252 267 364 421> 245 96<60 267 60 267> 468 97<-37 74 60 60 60 74 252 267>
VStem: -37 97<97 245 97 341 341 468> 267 97<97 245 245 245 345 468> 527 103<145.5 192.5 116.5 200>
LayerCount: 2
Fore
SplineSet
60 0 m 6
 -37 0 l 2
 -37 565 l 2
 60 565 l 2
 60 341 l 1
 267 341 l 1
 267 565 l 2
 364 565 l 2
 364 345 l 1
 402 345 l 2
 491 345 540 338 581 289 c 0
 612 255 630 215 630 170 c 0
 630 63 543 0 421 0 c 2
 267 0 l 2
 267 245 l 1
 60 245 l 1
 60 0 l 6
364 97 m 1
 421 97 l 2
 486 97 527 118 527 173 c 0
 527 227 486 248 421 248 c 2
 364 248 l 1
 364 97 l 1
EndSplineSet
Validated: 1
EndChar

StartChar: afii10060
Encoding: 1035 1035 389
Width: 600
Flags: HMW
HStem: 0 97<105 151 128 151 249 272 435 451> 233 96<340 376.5> 374 191<34 63.5 338.5 366>
VStem: 0 98<438 468 413 565> 151 98<97 172 291 468> 303 98<438 468 468 468> 451 98<97 172 172 194>
LayerCount: 2
Fore
SplineSet
151 0 m 6
 151 468 l 5
 0 468 l 6
 0 565 l 5
 401 565 l 5
 401 468 l 6
 249 468 l 5
 249 291 l 5
 275 313 318 329 362 329 c 4
 452 329 549 314 549 198 c 6
 549 0 l 6
 451 0 l 6
 451 172 l 6
 451 216 397 233 356 233 c 4
 315 233 249 216 249 172 c 6
 249 0 l 6
 151 0 l 6
EndSplineSet
Validated: 1
EndChar

StartChar: uni040D
Encoding: 1037 1037 391
Width: 600
Flags: HMW
HStem: 0 97<72.5 90 84 90 187 202 380 394 491 497> 468 97<90 202 187 187 187 202 380 394> 604 21G<360 374>
VStem: 90 97<97 136 248 468> 394 97<97 316 316 316 427 468 97 468>
LayerCount: 2
Fore
SplineSet
249 782 m 2
 378 675 l 2
 394 662 400 651 400 639 c 0
 400 620 384 604 364 604 c 0
 356 604 348 608 332 620 c 2
 205 728 l 2
 188 741 182 750 182 761 c 0
 182 782 198 797 218 797 c 0
 228 797 234 794 249 782 c 2
EndSplineSet
Refer: 322 1048 N 1 0 0 1 0 0 2
Validated: 1
EndChar

StartChar: afii10145
Encoding: 1039 1039 393
Width: 600
Flags: HMW
HStem: 0 97<90 104 187 244 340 340 340 394> 468 97<70.5 202 84 90 187 187 187 202 380 394 491 491 491 497>
VStem: 90 97<97 468 97 468> 244 96<-86 0> 394 97<97 468 97 468>
LayerCount: 2
Fore
SplineSet
90 0 m 2
 90 565 l 2
 187 565 l 2
 187 97 l 1
 394 97 l 1
 394 565 l 2
 491 565 l 2
 491 0 l 2
 340 0 l 1
 340 -73 l 2
 340 -99 340 -107 333 -116 c 0
 323 -129 308 -136 293 -136 c 0
 277 -136 260 -128 250 -113 c 0
 245 -105 244 -95 244 -73 c 2
 244 0 l 1
 90 0 l 2
EndSplineSet
Validated: 1
EndChar

StartChar: afii10099
Encoding: 1106 1106 395
Width: 600
Flags: HMW
HStem: 0 97<75 92 86 92 189 195> 267 97<296.5 339> 396 85<44 92 64 92 189 271> 508 96<64 189 77 92>
VStem: 92 97<97 202 306 396 481 508 508 508> 396 96<56 191 191 203>
LayerCount: 2
Fore
SplineSet
92 0 m 2
 92 396 l 1
 64 396 l 2
 24 396 13 419 13 438 c 0
 13 462 32 481 64 481 c 2
 92 481 l 1
 92 604 l 2
 189 604 l 1
 189 481 l 1
 271 481 l 2
 312 481 322 462 322 438 c 0
 322 416 303 396 271 396 c 2
 189 396 l 1
 189 306 l 1
 228 345 271 364 322 364 c 0
 425 364 492 299 492 203 c 2
 492 44 l 2
 492 -52 422 -116 312 -117 c 1
 312 -20 l 1
 366 -20 396 -7 396 56 c 2
 396 191 l 2
 396 254 366 267 312 267 c 0
 265 267 244 257 189 202 c 1
 189 0 l 2
 92 0 l 2
EndSplineSet
Validated: 1
EndChar

StartChar: afii10101
Encoding: 1108 1108 397
Width: 600
Flags: HMW
HStem: -16 97<267 329.5 267 339> 152 97<149 149 149 332 147 337> 339 97<266.5 311.5>
LayerCount: 2
Fore
SplineSet
433 408 m 0
 464 386 513 351.046 513 298 c 16
 513 273 512 263 505 254 c 0
 496 241 480 234 466 234 c 0
 453 234 437 240 430 247 c 1
 422 253 420 259 417 280 c 0
 412 298 407 306 394 315 c 0
 368 330 332 339 291 339 c 0
 242 339 205 326 178 298 c 0
 164 283 154 267 147 249 c 1
 332 249 l 2
 374 250 395 232 395 202 c 0
 395 170 374 152 337 152 c 2
 149 152 l 1
 169 105 224 81 310 81 c 0
 349 81 389 86 412 94 c 0
 430 100 436 104 461 123 c 1
 469 132 479 136 490 136 c 0
 515 136 539 113 539 86 c 0
 539 61 515 35 477 16 c 0
 436 -4 374 -16 304 -16 c 0
 209 -16 149 5 102 51 c 0
 64 90 43 141 43 202 c 0
 43 339 146 436 291 436 c 0
 347 436 397.622 433.107 433 408 c 0
EndSplineSet
Validated: 33
EndChar

StartChar: afii10105
Encoding: 1112 1112 401
Width: 600
Flags: W
HStem: -198 96<136.467 348.816> 326 97<140.374 376> 503 101<349 446>
VStem: 349 97<503 604> 376 97<-73.3955 326>
LayerCount: 2
Fore
SplineSet
446 585 m 2xf0
 446 522 l 2
 446 508 441 503 427 503 c 2
 369 503 l 2
 356 503 349 511 349 522 c 2
 349 585 l 2
 349 598 357 604 369 604 c 2
 427 604 l 2
 441 604 446 600 446 585 c 2xf0
376 326 m 1xe8
 180 326 l 2
 156 326 146 329 136 336 c 0
 123 345 116 361 116 375 c 0
 116 391 125 408 140 417 c 0
 148 422 155 423 180 423 c 2
 473 423 l 1
 473 -19 l 2
 473 -121 394 -198 288 -198 c 2
 177 -198 l 2
 153 -198 143 -197 133 -189 c 0
 121 -180 113 -164 113 -150 c 0
 113 -133 123 -117 136 -108 c 0
 146 -102 153 -102 177 -102 c 2
 285 -102 l 2
 340 -102 376 -70 376 -19 c 2
 376 326 l 1xe8
EndSplineSet
Validated: 1
EndChar

StartChar: afii10106
Encoding: 1113 1113 402
Width: 600
Flags: HMW
HStem: 0 97<109.5 271 362 378 476 527.5> 174 97<476 524> 326 97<156.5 471 271 378 271 271 476 491.5 181 494.5>
VStem: 16 97<92 110 110 136 92 154> 175 96<110 326> 378 98<97 174 271 326> 592 99<132 153>
LayerCount: 2
Fore
SplineSet
378 0 m 6
 378 326 l 1
 271 326 l 1
 271 97 l 2
 271 29 220 0 141 0 c 0
 78 0 16 29 16 84 c 2
 16 136 l 2
 16 172 34 195 66 195 c 0
 98 195 113 180 113 136 c 2
 113 110 l 2
 113 74 175 78 175 110 c 2
 175 423 l 2
 476 423 l 2
 476 271 l 1
 634 271 691 243 691 139 c 0
 691 8 593 0 547 0 c 2
 378 0 l 6
476 97 m 1
 579 97 593 94 592 132 c 0
 592 174 572 174 476 174 c 1
 476 97 l 1
EndSplineSet
Validated: 33
EndChar

StartChar: afii10107
Encoding: 1114 1114 403
Width: 600
Flags: HMW
HStem: 0 97<0 16 -3 22 -3 109 276 292 389 440.5> 174 97<389 437> 326 97<-3 109 114 130.5 22 132.5 389 404.5>
VStem: 16 98<97 174 273 326> 292 97<97 174 97 174 273 326> 505 99<132 153>
LayerCount: 2
Fore
SplineSet
16 423 m 6
 114 423 l 2
 114 273 l 1
 292 273 l 1
 292 423 l 2
 389 423 l 2
 389 271 l 1
 547 271 604 243 604 139 c 0
 604 8 506 0 460 0 c 2
 292 0 l 2
 292 174 l 1
 114 174 l 1
 114 0 l 2
 16 0 l 2
 16 423 l 6
389 97 m 1
 492 97 506 94 505 132 c 0
 505 174 485 174 389 174 c 1
 389 97 l 1
EndSplineSet
Validated: 33
EndChar

StartChar: afii10108
Encoding: 1115 1115 404
Width: 600
Flags: HMW
HStem: 0 97<75 92 86 92 189 195 391 396 492 499> 267 97<283.5 319> 396 85<44 92 64 92 189 271> 508 96<64 189 77 92>
VStem: 92 97<97 191 306 396 481 508 508 508> 396 96<97 191 191 203 97 222.5>
LayerCount: 2
Fore
SplineSet
492 0 m 6
 396 0 l 2
 396 191 l 2
 396 254 346 267 292 267 c 0
 245 267 189 250 189 191 c 2
 189 0 l 2
 92 0 l 2
 92 396 l 1
 64 396 l 2
 24 396 13 419 13 438 c 0
 13 462 32 481 64 481 c 2
 92 481 l 1
 92 604 l 2
 189 604 l 1
 189 481 l 1
 271 481 l 2
 312 481 322 462 322 438 c 0
 322 416 303 396 271 396 c 2
 189 396 l 1
 189 306 l 1
 210 342 258 364 309 364 c 0
 428 364 492 299 492 203 c 2
 492 0 l 6
EndSplineSet
Validated: 1
EndChar

StartChar: afii10109
Encoding: 1116 1116 405
Width: 600
Flags: HMW
HStem: 0 97<93 129 115 129 115 226 434 466> 326 97<102 226 115 129 434 434 434 461>
VStem: 129 97<97 159 277 326 326 326>
LayerCount: 2
Fore
SplineSet
378 587 m 2
 249 477 l 2
 234 466 228 462 218 462 c 0
 198 462 182 479 182 497 c 0
 182 508 189 519 205 533 c 2
 332 640 l 2
 349 653 353 656 364 656 c 0
 384 656 400 640 400 620 c 0
 400 608 394 598 378 587 c 2
EndSplineSet
Refer: 357 1082 N 1 0 0 1 0 0 2
Validated: 1
EndChar

StartChar: uni045D
Encoding: 1117 1117 406
Width: 600
Flags: HMW
HStem: 0 97<73 89 70 95 70 181 378 394> 326 97<70 95 95 205 491 508>
VStem: 89 97<97 109 208 326> 394 97<97 218 218 218 315 326 97 326>
LayerCount: 2
Fore
SplineSet
248 640 m 2
 378 533 l 2
 392 519 398 508 398 497 c 0
 398 479 381 462 363 462 c 0
 353 462 347 466 332 477 c 2
 203 587 l 2
 187 598 181 608 181 621 c 0
 181 640 197 656 218 656 c 0
 228 656 232 653 248 640 c 2
EndSplineSet
Refer: 355 1080 N 1 0 0 1 0 0 2
Validated: 1
EndChar

StartChar: afii10193
Encoding: 1119 1119 408
Width: 600
Flags: HMW
HStem: 0 97<73 90 70.5 95 70.5 242> 326 97<70.5 181 187 203 95 206 492 508.5>
VStem: 90 97<98 326 98 326 98 326> 242 98<-24 0 -37 0> 395 97<98 326 98 326>
LayerCount: 2
Fore
SplineSet
90 0 m 6
 90 423 l 2
 187 423 l 2
 187 98 l 1
 395 98 l 1
 395 423 l 2
 492 423 l 2
 492 0 l 2
 340 0 l 1
 340 -24 l 2
 340 -50 338 -60 331 -70 c 0
 322 -81 307 -89 292 -89 c 0
 276 -89 259 -81 250 -66 c 0
 245 -57 242 -48 242 -24 c 2
 242 0 l 1
 90 0 l 6
EndSplineSet
Validated: 1
EndChar

StartChar: uni048C
Encoding: 1164 1164 409
Width: 600
Flags: HMW
HStem: 0 97<64 90 77 90 188 302> 274 97<188 283 283 302 188 283> 468 97<65 283 77 90 188 188 188 283>
VStem: 90 98<97 274 371 468> 411 101<158.5 205.5 129.5 213>
LayerCount: 2
Fore
SplineSet
90 0 m 6
 90 565 l 2
 188 565 l 2
 188 371 l 1
 283 371 l 2
 373 371 420 356 464 307 c 0
 495 273 512 228 512 183 c 0
 512 76 425 0 302 0 c 2
 90 0 l 6
188 97 m 1
 302 97 l 2
 369 97 411 131 411 186 c 0
 411 240 369 274 302 274 c 2
 188 274 l 1
 188 97 l 1
EndSplineSet
Validated: 1
EndChar

StartChar: uni048D
Encoding: 1165 1165 410
Width: 600
Flags: HMW
HStem: 0 97<124.5 141 121.5 147 239 290> 174 97<239 285.5> 326 97<121.5 232 239 254.5 147 257>
VStem: 141 98<97 174 271 326> 401 99
LayerCount: 2
Fore
SplineSet
141 0 m 6
 141 423 l 2
 239 423 l 2
 239 271 l 1
 450 271 499 250 500 139 c 0
 499 8 356 0 310 0 c 2
 141 0 l 6
239 97 m 1
 341 97 403 94 401 132 c 0
 401 174 332 174 239 174 c 1
 239 97 l 1
EndSplineSet
Validated: 33
EndChar

StartChar: uni048E
Encoding: 1166 1166 411
Width: 545
Flags: HMW
HStem: 0 97<41.5 66 53 66 164 259> 194 97<164 259 164 278> 468 97<40 278 53 66 164 278 164 164>
VStem: 66 98<97 194 291 468> 387 101<370 406.5>
LayerCount: 2
Fore
SplineSet
346 358 m 1
 474 254 l 2
 489.366 241.515 494 229 494 218 c 0
 494 200 477 183 459 183 c 0
 449 183 442.178 185.96 428 198 c 2
 302 305 l 1
 283 319 277 329 277 342 c 0
 277 361 293 377 314 377 c 0
 324 377 328 374 346 358 c 1
EndSplineSet
Refer: 48 80 N 1 0 0 1 0 0 2
Validated: 5
EndChar

StartChar: uni048F
Encoding: 1167 1167 412
Width: 607
Flags: HW
HStem: -205 100<41.5 70 54 70 170 228> 10 100<295.5 362 275 394.5> 350 100<298 339.5>
VStem: 70 100<-105 66 195.5 247> 467 100<195 246.5>
LayerCount: 2
Fore
SplineSet
368 195 m 5
 533 31 l 6
 549.047 15.0508 556 4 554 -6 c 4
 553 -16 548 -28 543 -34 c 5
 525 -50 501 -47 478 -24 c 6
 314 140 l 5
 295 160 290 167 291 180 c 4
 292 189 297 202 303 205 c 5
 319 224 342 221 368 195 c 5
EndSplineSet
Refer: 80 112 N 1 0 0 1 0 0 2
Validated: 37
EndChar

StartChar: afii10050
Encoding: 1168 1168 413
Width: 600
Flags: HMW
HStem: 0 97<83 108 95 108 205 302> 468 97<82.5 453 95 108 205 453 95 550 205 205>
VStem: 108 97<97 468 97 468> 453 97<565 613 468 624.5>
LayerCount: 2
Fore
SplineSet
453 565 m 1
 453 613 l 2
 453 636 456 646 461 655 c 0
 470 670 487 678 502 678 c 0
 518 678 533 670 542 657 c 0
 549 648 550 640 550 613 c 2
 550 468 l 1
 453 565 l 1
EndSplineSet
Refer: 316 1043 N 1 0 0 1 0 0 2
Validated: 5
EndChar

StartChar: afii10098
Encoding: 1169 1169 414
Width: 600
Flags: HMW
HStem: 0 97<138 154 135 160 135 246> 326 97<135 389 250 389 160 487 250 250>
VStem: 154 96<97 326 97 326> 389 98<423 450 326 461>
LayerCount: 2
Fore
SplineSet
387 420 m 5
 389 450 l 2
 390.464 471.951 391 480 396 489 c 0
 404 503 420 512 437 512 c 0
 453 512 468 505 477 492 c 0
 484 484 487 474 487 450 c 2
 487 326 l 1
 387 420 l 5
EndSplineSet
Refer: 349 1075 N 1 0 0 1 0 0 2
Validated: 5
EndChar

StartChar: uni0492
Encoding: 1170 1170 415
Width: 600
Flags: HMW
HStem: 0 97<83 108 95 108 205 302> 289 97<83 108 95 108 205 302> 468 97<82.5 550 95 108 205 205 205 453>
VStem: 108 97<97 289 386 468> 453 97<418 468 468 468>
LayerCount: 2
Fore
SplineSet
97 289 m 5
 70 289 57 291 50 298 c 4
 39 308 31 323 31 337 c 4
 31 354 39 370 54 379 c 5
 62 386 70 387 97 386 c 5
 302 386 l 6
 329 386 337 384 347 377 c 4
 358 367 365 353 365 337 c 4
 365 321 358 305 343 296 c 5
 337 291 322 289 302 289 c 6
 97 289 l 5
EndSplineSet
Refer: 316 1043 N 1 0 0 1 0 0 2
Validated: 37
EndChar

StartChar: uni0493
Encoding: 1171 1171 416
Width: 600
Flags: HMW
HStem: 0 97<138 154 135 160 135 246> 171 78<107 154 116 154 250 301> 326 97<135 487 250 250 250 389>
VStem: 154 96<97 171 97 171 249 326> 389 98<299 326 326 326>
LayerCount: 2
Fore
SplineSet
118 171 m 5
 97 171 92 172 84 183 c 1
 81 191 77 202 77 210 c 0
 77 234 89 249 118 249 c 1
 301 249 l 2
 319 249 326 246 332 239 c 0
 337 232 341 218 341 210 c 0
 341 186 326 171 301 171 c 2
 118 171 l 5
EndSplineSet
Refer: 349 1075 N 1 0 0 1 0 0 2
Validated: 5
EndChar

StartChar: uni0494
Encoding: 1172 1172 417
Width: 600
Flags: W
HStem: -145 96<295 368.869> 0 21G<108 205> 233 96<227.621 370.311> 468 97<205 550>
VStem: 108 97<0 219.701 291 468> 387 98<-28.4336 213.656>
LayerCount: 2
Fore
SplineSet
108 565 m 6
 550 565 l 1
 550 468 l 2
 205 468 l 1
 205 291 l 1
 231 313 264 329 308 329 c 0
 398 329 485 314 485 198 c 2
 485 -4 l 2
 485 -68 479 -145 295 -145 c 1
 295 -49 l 1
 352 -49 387 -26 387 13 c 2
 387 172 l 2
 387 218 343 233 302 233 c 0
 261 233 205 230 205 180 c 2
 205 0 l 2
 108 0 l 2
 108 565 l 6
EndSplineSet
Validated: 1
EndChar

StartChar: uni0496
Encoding: 1174 1174 419
Width: 600
Flags: HMW
HStem: 0 100<32 52 42 52 42 130 239.5 250> 483 100<15.5 97 349 360 566 569.5>
VStem: 250 99<100 260 100 260 337 483> 523 100<-75 0 0 0>
LayerCount: 2
Fore
SplineSet
469 0 m 1
 462 38 464 86 491 100 c 1
 557 100 l 2
 584 100 593 98 603 91 c 0
 615 81 623 66 623 50 c 2
 623 -75 l 2
 623 -102 621 -110 614 -120 c 0
 604 -133 589 -141 573 -141 c 0
 556 -141 540 -132 530 -117 c 0
 525 -109 523 -98 523 -75 c 2
 523 0 l 1
 469 0 l 1
EndSplineSet
Refer: 320 1046 N 1 0 0 1 0 0 2
Validated: 37
EndChar

StartChar: uni0497
Encoding: 1175 1175 420
Width: 600
Flags: HMW
HStem: 0 100<26 47 26 118> 337 100<29 118 351 351>
VStem: 520 100<-26 0 0 0>
LayerCount: 2
Fore
SplineSet
566 40 m 2
 578.344 54.7178 604.28 9.02637 620 12 c 1
 620 -26 l 2
 620 -52.0029 618 -62 611 -72 c 0
 601 -84 586 -92 570 -92 c 0
 553 -92 536 -83 527 -68 c 0
 521 -59 520 -50 520 -26 c 2
 520 0 l 1
 566 40 l 2
EndSplineSet
Refer: 353 1078 N 1 0 0 1 0 0 2
Validated: 37
EndChar

StartChar: uni049A
Encoding: 1178 1178 423
Width: 570
Flags: HMW
HStem: 0 97<34.5 60 46 60 156 191> 468 97<33.5 191 46 60 156 156 156 191 464 472>
VStem: 60 96<97 270 97 324 324 468> 455 95<-73 0 0 0>
LayerCount: 2
Fore
SplineSet
424 0 m 1
 432 0 444 96 444 97 c 5
 508 97 l 2
 535 97 542 95 552 88 c 0
 563 78 570 64 570 48 c 2
 570 -73 l 2
 570 -99 570 -107 563 -116 c 0
 553 -129 538 -136 523 -136 c 0
 507 -136 491 -128 481 -113 c 0
 476 -105 475 -95 475 -73 c 2
 475 0 l 1
 424 0 l 1
EndSplineSet
Refer: 43 75 N 1 0 0 1 0 0 2
EndChar

StartChar: uni049B
Encoding: 1179 1179 424
Width: 600
Flags: HMW
HStem: 0 97<93 129 115 129 115 226> 326 97<102 226 115 129 434 434 434 461>
VStem: 129 97<97 159 277 326 326 326> 434 98<-24 0 0 0>
LayerCount: 2
Fore
SplineSet
417 0 m 1
 338 97 l 1
 434 97 l 1
 466 97 l 2
 492 97 500 95 508 88 c 0
 523 78 532 64 532 48 c 2
 532 -24 l 2
 532 -50 529 -60 522 -70 c 0
 514 -81 498 -89 484 -89 c 0
 467 -89 450 -81 442 -66 c 0
 436 -57 434 -48 434 -24 c 2
 434 0 l 1
 417 0 l 1
EndSplineSet
Refer: 357 1082 N 1 0 0 1 0 0 2
Validated: 5
EndChar

StartChar: uni04A2
Encoding: 1186 1186 431
Width: 554
Flags: HW
HStem: -141 241<464.445 534.577> 0 20 241 100<170 384 170 384> 563 20<84 185 185 198.5 369 470 470 483.5>
VStem: 70 100<100 241 341 483> 384 100<100 241 241 241 341 483 100 483> 456 100<-116.623 90.5276>
LayerCount: 2
Fore
SplineSet
456 100 m 1xba
 490 100 l 2
 516 100 526 98 535 91 c 0
 548 81 556 66 556 50 c 2
 556 -75 l 2
 556 -102 554 -110 547 -120 c 0
 537 -133 522 -141 506 -141 c 0
 489 -141 473 -132 463 -117 c 0
 458 -109 456 -98 456 -75 c 2
 456 100 l 1xba
EndSplineSet
Refer: 40 72 N 1 0 0 1 0 0 2
Validated: 5
EndChar

StartChar: uni04A3
Encoding: 1187 1187 432
Width: 600
Flags: W
HStem: -92 192<476.318 558.528> 0 97<93 109 90 115 90 202 359 375> 156 99<205 375 205 375> 326 97<90 115 115 224 473 489.5>
VStem: 109 96<97 156 255 326> 375 98<97 156 156 156 255 326 97 326> 448 120<36.6232 91.3561> 468 100<-67.5781 0>
LayerCount: 2
Fore
SplineSet
448 99 m 4x7a
 507 100 l 1
 546 100 569 82 568 50 c 2xba
 568 -26 l 2
 568 -52 566 -62 559 -72 c 0
 549 -84 534 -92 518 -92 c 0xb9
 501 -92 484 -83 475 -68 c 0
 469 -59 468 -50 468 -26 c 2
 468 0 l 1x79
 413 0 l 2
 413 0 450 102 448 99 c 4x7a
EndSplineSet
Refer: 360 1085 N 1 0 0 1 0 0 2
Validated: 37
EndChar

StartChar: uni04A6
Encoding: 1190 1190 435
Width: 600
Flags: HMW
HStem: 0 97<-7.5 10 4 10 107 122 282 296 393 399> 233 96<450 486.5> 468 97<10 379 107 296 107 107 24 393>
VStem: 10 97<97 468 97 468> 296 97<97 174 291 468> 532 98<13 172 172 195>
LayerCount: 2
Fore
SplineSet
393 0 m 6
 296 0 l 2
 296 468 l 1
 107 468 l 1
 107 0 l 2
 10 0 l 2
 10 565 l 2
 393 565 l 2
 393 291 l 1
 408 314 428 329 472 329 c 0
 562 329 630 314 630 198 c 2
 630 -4 l 2
 630 -68 624 -145 440 -145 c 1
 440 -49 l 1
 497 -49 532 -26 532 13 c 2
 532 172 l 2
 532 218 507 233 466 233 c 0
 425 233 393 224 393 174 c 2
 393 0 l 6
EndSplineSet
Validated: 1
EndChar

StartChar: uni04AC
Encoding: 1196 1196 441
Width: 616
Flags: HW
HStem: -141 241<397.445 467.577> 0 100<180.5 257 192 257 357 423> 483 100<150 257 150 150 357 466 357 357>
VStem: 50 100<390 483 376.5 583> 257 100<100 483 100 483> 389 100<-116.623 0> 466 100<390 483 483 483>
LayerCount: 2
Fore
SplineSet
357 100 m 0x7c
 423 100 l 2
 449 100 459 98 468 91 c 0
 481 81 489 66 489 50 c 2
 489 -75 l 2
 489 -102 487 -110 480 -120 c 0
 470 -133 455 -141 439 -141 c 0xbc
 422 -141 406 -132 396 -117 c 0
 391 -109 389 -98 389 -75 c 2
 389 0 l 1
 289 0 l 6
 289 0 358 98 357 100 c 0x7c
EndSplineSet
Refer: 52 84 N 1 0 0 1 0 0 2
Validated: 37
EndChar

StartChar: uni04AD
Encoding: 1197 1197 442
Width: 600
Flags: W
HStem: 0 100<197.292 250> 244 193<71.4724 153.682 446.318 528.528> 336 101<162 250 350 438>
VStem: 62 100<268.422 336> 189 222<9.67798 90.6895> 250 100<100 336> 311 100<-67.5781 0> 438 100<268.422 336>
LayerCount: 2
Fore
SplineSet
411 50 m 2xb9
 411 -26 l 2
 411 -52 409 -62 402 -72 c 0
 392 -84 377 -92 361 -92 c 0
 344 -92 327 -83 318 -68 c 0
 312 -59 311 -50 311 -26 c 2
 311 0 l 1xb3
 256 0 l 2
 211 0 189 17 189 50 c 0xb9
 189 82 211 100 250 100 c 1
 250 336 l 1
 162 336 l 1xb5
 162 310 l 2
 162 286 161 277 155 268 c 0
 146 253 129 244 112 244 c 0xd5
 96 244 81 252 71 264 c 0
 64 274 62 284 62 310 c 2
 62 437 l 1
 538 437 l 1xb5
 538 310 l 2
 538 284 536 274 529 264 c 0
 519 252 504 244 488 244 c 0xd5
 471 244 454 253 445 268 c 0
 439 277 438 286 438 310 c 2
 438 336 l 1
 350 336 l 1
 350 100 l 1xb5
 389 100 411 82 411 50 c 2xb9
EndSplineSet
Validated: 1
EndChar

StartChar: uni04AF
Encoding: 1199 1199 444
Width: 600
Flags: HMW
HStem: -146 100<173 250 185 250 350 415> 337 100<64.5 177 514 514 514 516>
VStem: 250 100<-46 99 -46 99>
LayerCount: 2
Fore
SplineSet
250 -146 m 17
 250 99 l 1
 15 437 l 1
 135 437 l 1
 300 202 l 1
 463 437 l 1
 583 437 l 1
 350 99 l 1
 350 -146 l 1
 250 -146 l 17
EndSplineSet
Validated: 1
EndChar

StartChar: uni04B0
Encoding: 1200 1200 445
Width: 668
Flags: HMW
HStem: 0 100<208 285 220 285 385 450> 145 100<173 285 185 285 385 485> 483 100<99.5 212 549 549 549 551>
VStem: 285 100<100 145 100 145>
LayerCount: 2
Fore
SplineSet
189 145 m 5
 160 145 148 148 139 155 c 0
 126 164 118 179 118 195 c 0
 118 212 127 229 142 238 c 0
 151 244 158 245 190 245 c 1
 485 245 l 2
 513 245 521 243 531 236 c 0
 544 226 552 211 552 195 c 0
 552 178 543 161 528 152 c 0
 521 148 506 145 485 145 c 2
 189 145 l 5
EndSplineSet
Refer: 443 1198 N 1 0 0 1 0 0 2
Validated: 5
EndChar

StartChar: uni04B1
Encoding: 1201 1201 446
Width: 600
Flags: HMW
HStem: -146 100<173 250 185 250 350 415> -1 100<143 250 155 250 350 445> 337 100<64.5 177 514 514 514 516>
VStem: 250 100<-46 -1 -46 -1>
LayerCount: 2
Fore
SplineSet
157 -1 m 5
 130 -1 118 2 109 9 c 0
 96 18 88 33 88 49 c 0
 88 66 97 83 112 92 c 0
 121 98 127 99 157 99 c 1
 445 99 l 2
 473 99 481 97 491 90 c 0
 504 80 512 65 512 49 c 0
 512 32 503 15 488 6 c 0
 481 2 466 -1 445 -1 c 2
 157 -1 l 5
EndSplineSet
Refer: 444 1199 N 1 0 0 1 0 0 2
Validated: 5
EndChar

StartChar: uni04B2
Encoding: 1202 1202 447
Width: 611
Flags: HMW
HStem: 0 97<67 72 54 79 54 186>
VStem: 482 95<-73 0 0 0>
LayerCount: 2
Fore
SplineSet
501 3 m 5
 538 97 l 1
 574 97 595 78 595 48 c 2
 595 -73 l 2
 595 -99 595 -107 588 -116 c 0
 578 -129 562 -136 548 -136 c 0
 531 -136 516 -128 506 -113 c 0
 500 -105 499.711 -94.998 500 -73 c 2
 501 3 l 5
EndSplineSet
Refer: 56 88 N 1 0 0 1 0 0 2
EndChar

StartChar: uni04B3
Encoding: 1203 1203 448
Width: 623
Flags: HMW
HStem: -20 20G<70 92 92 200 384 396 396 471> 0 21G<70 92 92 200 384 396 396 471>
VStem: 471 98<-24 0 0 0>
LayerCount: 2
Fore
SplineSet
492 47 m 5
 537 97 l 1
 571 95 590 78 590 48 c 2
 590 -24 l 2
 590 -50 588 -60 581 -70 c 0
 572 -81 557 -89 542 -89 c 0
 526 -89 509 -81 500 -66 c 0
 495 -57 492 -48 492 -24 c 2
 492 47 l 5
EndSplineSet
Refer: 88 120 N 1 0 0 1 0 0 2
EndChar

StartChar: uni04B4
Encoding: 1204 1204 449
Width: 600
Flags: HMW
HStem: 0 97<76 89 172 380 477 479> 468 97<58 187 70 76 172 172 172 187 365 380 477 477 477 482>
VStem: 76 96<97 468 97 468> 380 97<97 468 97 468> 479 95<-73 0 0 0>
LayerCount: 2
Fore
SplineSet
76 0 m 6
 76 565 l 2
 172 565 l 2
 172 97 l 1
 380 97 l 1
 380 565 l 2
 477 565 l 2
 477 97 l 1
 574 97 l 1
 574 -73 l 2
 574 -99 574 -107 567 -116 c 0
 557 -129 542 -136 527 -136 c 0
 511 -136 495 -128 485 -113 c 0
 480 -105 479 -95 479 -73 c 2
 479 0 l 1
 76 0 l 6
EndSplineSet
Validated: 1
EndChar

StartChar: uni04B5
Encoding: 1205 1205 450
Width: 600
Flags: W
HStem: -89 186<469.776 549.573> 0 97<178 371>
VStem: 82 96<98 423> 371 97<97 423> 462 96<-65.5781 0>
LayerCount: 2
Fore
SplineSet
82 0 m 6x68
 82 423 l 2
 178 423 l 2
 178 98 l 1
 371 97 l 1
 371 423 l 2
 468 423 l 2
 468 97 l 1x70
 558 97 l 1x68
 558 -24 l 2
 558 -50 557 -60 550 -70 c 0
 541 -81 525 -89 511 -89 c 0xa8
 494 -89 477 -81 469 -66 c 0
 463 -57 462 -48 462 -24 c 2
 462 0 l 1
 82 0 l 6x68
EndSplineSet
Validated: 1
EndChar

StartChar: uni04B6
Encoding: 1206 1206 451
Width: 600
Flags: W
HStem: -141 241<470.445 541.531> 0 97<351 378 363 378 474 480> 164 96<260.5 297> 468 97<87 200 185 185 185 200 363 378>
VStem: 87 98<298 468 298 468 298 468> 378 96<97 202 202 202 298 468 97 468> 462 100<-116.623 0>
LayerCount: 2
Fore
SplineSet
444 100 m 5xba
 490 100 l 5
 496 100 l 6
 522 100 532 98 542 91 c 4
 554 81 562 66 562 50 c 6
 562 -75 l 6
 562 -102 560 -110 553 -120 c 4
 543 -133 528 -141 512 -141 c 4xba
 495 -141 479 -132 469 -117 c 4
 464 -109 462 -98 462 -75 c 6
 462 0 l 5
 414 0 l 6x7a
 390 0 452 94 444 100 c 5xba
EndSplineSet
Refer: 337 1063 N 1 0 0 1 0 0 2
Validated: 37
EndChar

StartChar: uni04B7
Encoding: 1207 1207 452
Width: 600
Flags: W
HStem: -92 192<464.346 525.528> 0 97<362 378 359 384 359 470> 107 95<271.5 310 271.5 311> 326 97<88.5 113 113 222 474 491>
VStem: 107 96<244 326 227.5 326> 378 96<97 136 136 136 244 326 97 326> 435 100<-67.5781 57.7488> 471 64<39.5598 75.7764>
LayerCount: 2
Fore
SplineSet
436 1 m 0xba
 434 0 472 96 471 100 c 1xb9
 513 100 535 82 535 50 c 2
 535 -26 l 2
 535 -52 533 -62 526 -72 c 0
 516 -84 501 -92 485 -92 c 0
 468 -92 451 -83 442 -68 c 0
 436 -59 434.111 -49.9834 435 -26 c 2
 436 1 l 0xba
EndSplineSet
Refer: 454 1209 N 1 0 0 1 0 0 2
Validated: 37
EndChar

StartChar: uni04B9
Encoding: 1209 1209 454
Width: 600
Flags: HMW
HStem: 0 97<362 378 359 384 359 470> 107 95<271.5 310 271.5 311> 326 97<88.5 113 113 222 474 491>
VStem: 107 96<244 326 227.5 326> 378 96<97 136 136 136 244 326 97 326>
LayerCount: 2
Fore
SplineSet
474 0 m 6
 378 0 l 6
 378 136 l 5
 358 119 329 107 293 107 c 4
 195 107 107 131 107 244 c 6
 107 423 l 6
 203 423 l 6
 203 244 l 6
 203 211 252 202 291 202 c 4
 329 202 378 224 378 244 c 6
 378 423 l 6
 474 423 l 6
 474 0 l 6
EndSplineSet
Validated: 1
EndChar

StartChar: uni04BA
Encoding: 1210 1210 455
Width: 600
Flags: HMW
HStem: 0 97<107 120 203 218 381 396> 305 96<284 320.5> 468 97<88.5 218 101 107 203 203 203 218>
VStem: 107 96<97 267 363 468> 396 98<97 267 267 267>
LayerCount: 2
Fore
SplineSet
494 0 m 6
 396 0 l 2
 396 267 l 1
 386 292 341 305 300 305 c 0
 259 305 224 292 203 267 c 1
 203 0 l 2
 107 0 l 2
 107 565 l 2
 203 565 l 2
 203 363 l 1
 229 385 262 401 306 401 c 0
 396 401 494 386 494 270 c 2
 494 0 l 6
EndSplineSet
Validated: 1
EndChar

StartChar: uni04BB
Encoding: 1211 1211 456
Width: 600
Flags: HMW
HStem: 0 97<90 107 88 111> 221 95<271 309.5> 326 97<88 197 203 219 111 222>
VStem: 107 96<97 179 287 326> 378 96<97 179 97 195.5>
LayerCount: 2
Fore
SplineSet
203 423 m 6
 203 287 l 1
 223 304 252 316 288 316 c 0
 386 316 474 292 474 179 c 2
 474 0 l 2
 378 0 l 2
 378 179 l 2
 378 212 329 221 290 221 c 0
 252 221 203 199 203 179 c 2
 203 0 l 2
 107 0 l 2
 107 423 l 2
 203 423 l 6
EndSplineSet
Validated: 1
EndChar

StartChar: uni04E8
Encoding: 1256 1256 494
Width: 600
Flags: HMW
HStem: -15 99<251 330 251 364> 229 97<123 458 123 123> 482 96<250 323.5 216 332>
LayerCount: 2
Fore
SplineSet
291 578 m 0
 356 578 418 552 470 503 c 0
 532 446 561 371 561 277 c 0
 561 119 437 -15 291 -15 c 0
 141 -15 20 119 20 283 c 0
 20 446 141 578 291 578 c 0
458 229 m 1
 123 229 l 1
 144 146 211 84 291 84 c 0
 369 84 437 147 458 229 c 1
460 326 m 1
 441 415 373 482 291 482 c 0
 209 482 139 415 121 326 c 1
 460 326 l 1
EndSplineSet
Validated: 1
EndChar

StartChar: uni04E9
Encoding: 1257 1257 495
Width: 600
Flags: HMW
HStem: -16 97<255.5 326 255.5 360.5> 172 78<144 436 144 437 143 436> 339 97<257 327>
LayerCount: 2
Fore
SplineSet
294 436 m 0
 430 436 541 335 541 210 c 0
 541 84 430 -16 291 -16 c 0
 152 -16 40 84 40 210 c 0
 40 339 150 436 294 436 c 0
436 250 m 1
 418 302 361 339 293 339 c 0
 221 339 164 303 144 250 c 1
 436 250 l 1
437 172 m 1
 143 172 l 1
 162 119 220 81 291 81 c 0
 361 81 418 119 437 172 c 1
EndSplineSet
Validated: 1
EndChar

StartChar: uni04EA
Encoding: 1258 1258 496
Width: 600
Flags: HMW
HStem: -15 99<251 330 251 364> 229 97<123 458 123 123> 482 96<250 323.5 216 332> 604 116<174.5 206.5 375.5 407>
LayerCount: 2
Fore
SplineSet
291 578 m 0
 356 578 418 552 470 503 c 0
 532 446 561 371 561 277 c 0
 561 119 437 -15 291 -15 c 0
 141 -15 20 119 20 283 c 0
 20 446 141 578 291 578 c 0
458 229 m 1
 123 229 l 1
 144 146 211 84 291 84 c 0
 369 84 437 147 458 229 c 1
460 326 m 1
 441 415 373 482 291 482 c 0
 209 482 139 415 121 326 c 1
 460 326 l 1
EndSplineSet
Refer: 130 168 N 1 0 0 1 -6 144 2
Validated: 1
EndChar

StartChar: uni04EB
Encoding: 1259 1259 497
Width: 600
Flags: HMW
HStem: -16 97<255.5 326 255.5 360.5> 172 78<144 436 144 437 143 436> 339 97<257 327> 463 116<174.5 206.5 375.5 407>
LayerCount: 2
Fore
SplineSet
294 436 m 0
 430 436 541 335 541 210 c 0
 541 84 430 -16 291 -16 c 0
 152 -16 40 84 40 210 c 0
 40 339 150 436 294 436 c 0
436 250 m 1
 418 302 361 339 293 339 c 0
 221 339 164 303 144 250 c 1
 436 250 l 1
437 172 m 1
 143 172 l 1
 162 119 220 81 291 81 c 0
 361 81 418 119 437 172 c 1
EndSplineSet
Refer: 130 168 N 1 0 0 1 -8 0 2
Validated: 1
EndChar

StartChar: uni04F4
Encoding: 1268 1268 506
Width: 600
Flags: HMW
HStem: 0 97<351 378 363 378 474 480> 164 96<260.5 297> 468 97<87 200 185 185 185 200 363 378> 604 116<174.5 206.5 375.5 407>
VStem: 87 98<298 468 298 468 298 468> 378 96<97 202 202 202 298 468 97 468>
LayerCount: 2
Fore
SplineSet
191 720 m 0
 224 720 248 694 248 660 c 0
 248 629 222 604 191 604 c 0
 158 604 132 629 132 660 c 0
 132 694 158 720 191 720 c 0
391 720 m 0
 425 720 450 694 450 660 c 0
 450 629 423 604 391 604 c 0
 360 604 332 629 332 660 c 0
 332 694 360 720 391 720 c 0
EndSplineSet
Refer: 337 1063 S 1 0 0 1 0 0 2
Validated: 1
EndChar

StartChar: uni04F9
Encoding: 1273 1273 509
Width: 600
Flags: HMW
HStem: 0 97<34.5 51 31.5 57 148 199 436.5 443> 174 97<148 195.5> 326 96<423.5 457 457 558> 463 116<174.5 206.5 375.5 407>
VStem: 51 97<97 174 271 326> 283 98 443 96<97 326 97 326>
LayerCount: 2
Fore
SplineSet
191 579 m 0
 224 579 248 553 248 519 c 0
 248 488 222 463 191 463 c 0
 158 463 132 488 132 519 c 0
 132 553 158 579 191 579 c 0
391 579 m 0
 425 579 450 553 450 519 c 0
 450 488 423 463 391 463 c 0
 360 463 332 488 332 519 c 0
 332 553 360 579 391 579 c 0
EndSplineSet
Refer: 374 1099 N 1 0 0 1 0 0 2
Validated: 1
EndChar

StartChar: uniF6C5
Encoding: 1114114 -1 511
Width: 600
Flags: W
HStem: -14 100<217.012 386.457> 351 100<228.669 386.776> 509 76<266.72 508>
VStem: 52 100<147.89 290.674> 448 100<147.379 289.639>
LayerCount: 2
Fore
SplineSet
508 579 m 6
 508 509 l 1
 328 526 199 508 200 478 c 0
 200 450 215 450 244 445 c 1
 268 448 242 451 302 451 c 0
 376 451 432 430 478 386 c 0
 524 342 548 284 548 218 c 0
 548 153 524 96 478 51 c 0
 432 7 376 -14 302 -14 c 0
 158 -14 52 70 52 234 c 0
 52 338 110 384 144 405 c 1
 117 428 93 470 99 511 c 1
 142 597 277 586 408 585 c 1
 508 579 l 6
300 351 m 0
 252 351 218 339 190 311 c 0
 166 286 152 253 152 220 c 0
 152 141 212 86 300 86 c 0
 348 86 382 99 410 126 c 0
 434 151 448 185 448 219 c 0
 448 252 434 286 410 311 c 0
 380 339 348 351 300 351 c 0
EndSplineSet
Validated: 33
EndChar

StartChar: Ccircumflex
Encoding: 264 264 515
Width: 611
Flags: HMW
HStem: -15 99<268 348 268 358.5> 482 96<257.5 322.5> 604 67<149 164.5>
VStem: 39 97<241 243 243 306 194.5 383>
LayerCount: 2
Fore
SplineSet
296 710 m 1
 187 616 l 2
 176 607 169 604 160 604 c 0
 141 604 126 621 126 637 c 0
 126 651 128 654 149 671 c 2
 296 797 l 1
 442 671 l 1
 446 671 450 666 451 664 c 2
 462 656 466 647 466 637 c 0
 466 621 451 604 433 604 c 0
 424 604 416 607 405 616 c 2
 296 710 l 1
EndSplineSet
Refer: 35 67 N 1 0 0 1 0 0 2
Validated: 1
EndChar

StartChar: ccircumflex
Encoding: 265 265 516
Width: 591
Flags: HMW
HStem: -16 97<252 324.5 249.5 334.5> 339 97<260.5 307> 463 67<138 153.5>
VStem: 37 98<171.5 219.5 161.5 270.5>
LayerCount: 2
Fore
SplineSet
285 569 m 1
 176 475 l 2
 165 466 158 463 149 463 c 0
 130 463 115 480 115 496 c 0
 115 510 117 513 138 530 c 2
 285 656 l 1
 431 530 l 1
 435 530 439 525 440 523 c 2
 451 515 455 506 455 496 c 0
 455 480 440 463 422 463 c 0
 413 463 405 466 394 475 c 2
 285 569 l 1
EndSplineSet
Refer: 67 99 N 1 0 0 1 0 0 2
Validated: 1
EndChar

StartChar: Hcircumflex
Encoding: 292 292 525
Width: 600
Flags: HMW
HStem: 0 97<75 92 86 92 189 203 381 396 492 499> 234 96<189 396 189 396> 468 97<92 203 189 189 189 203 381 396 492 492> 604 67<145 160.5>
VStem: 92 97<97 234 97 330 330 468> 396 96<97 234 234 234 330 468 97 468>
LayerCount: 2
Fore
SplineSet
499 0 m 1
 399 0 l 1
 399 241 l 1
 185 241 l 1
 185 0 l 1
 85 0 l 17
 85 566 l 1
 185 566 l 1
 185 341 l 1
 399 341 l 1
 399 566 l 1
 499 566 l 1
 499 0 l 1
EndSplineSet
Refer: 125 710 N 1 0 0 1 -9 143 2
Validated: 1
EndChar

StartChar: hcircumflex
Encoding: 293 293 526
Width: 554
Flags: HMW
HStem: 0 97<50 67 61 67 164 170 366 371 467 474> 339 97<271.5 301.5> 508 96<39 164 52 67>
VStem: 67 97<97 274 378 508 508 508> 371 96<97 263 263 275 97 279>
LayerCount: 2
Fore
SplineSet
262 750 m 1
 153 656 l 2
 142 647 135 644 126 644 c 0
 107 644 92 661 92 677 c 0
 92 691 94 694 115 711 c 2
 262 837 l 1
 408 711 l 1
 412 711 416 706 417 704 c 2
 428 696 432 687 432 677 c 0
 432 661 417 644 399 644 c 0
 390 644 382 647 371 656 c 2
 262 750 l 1
EndSplineSet
Refer: 72 104 N 1 0 0 1 0 0 2
Validated: 1
EndChar

StartChar: IJ
Encoding: 306 306 533
Width: 600
Flags: HMW
HStem: 0 97<-17.5 92 -6 92 189 287> 468 97<-18 287 -6 92 189 287 189 189>
VStem: 92 97<97 468 97 468>
LayerCount: 2
Fore
SplineSet
234 51 m 1
 334 117 l 1
 383 95 417 86 451 86 c 0
 487 86 523 100 546 122 c 0
 567 143 570 152 570 198 c 2
 570 583 l 9
 670 583 l 17
 670 187 l 2
 670 121 653 83 606 42 c 0
 564 6 508 -14 449 -14 c 0
 392 -14 325 6 234 51 c 1
200 0 m 1
 100 0 l 1
 100 584 l 1
 200 584 l 1
 200 0 l 1
EndSplineSet
Validated: 1
Ligature2: "'dlig' Discretionary Ligatures lookup 0-1" I J
EndChar

StartChar: ij
Encoding: 307 307 534
Width: 600
Flags: HMW
HStem: -198 96<574 694 586 694 694 697> 326 97<577 882 589 785> 584 20G<710 826 826 826>
VStem: 785 97<-19 326 326 326>
LayerCount: 2
Fore
SplineSet
199 0 m 5
 199 337 l 5
 121 337 l 6
 96 337 84 339 75 347 c 4
 62 356 54 371 54 387 c 4
 54 404 63 421 78 430 c 4
 87 436 95 437 121 437 c 6
 299 437 l 5xe8
 299 0 l 5
 199 0 l 5
285 623 m 5xf0
 285 518 l 5
 167 518 l 5
 167 623 l 5
 285 623 l 5xf0
527 423 m 5
 527 -19 l 6
 527 -121 448 -198 342 -198 c 6
 231 -198 l 6
 207 -198 197 -197 187 -189 c 4
 175 -180 167 -164 167 -150 c 4
 167 -133 177 -117 190 -108 c 4
 200 -102 207 -102 231 -102 c 6
 339 -102 l 6
 394 -102 430 -70 430 -19 c 6
 430 424 l 5
 527 423 l 5
528 626 m 5
 528 524 l 5
 412 524 l 5
 412 626 l 5
 528 626 l 5
EndSplineSet
Validated: 1
Ligature2: "'dlig' Discretionary Ligatures lookup 0-1" i j
EndChar

